<svg width="36" height="36" viewBox="0 0 36 36" fill="none" xmlns="http://www.w3.org/2000/svg">
<g clip-path="url(#clip0_517_686)">
<path d="M14.6249 4.5V13.1906C14.6236 13.3929 14.5703 13.5914 14.4702 13.7672L5.52648 28.6734C5.42498 28.8435 5.37016 29.0373 5.36757 29.2353C5.36499 29.4334 5.41472 29.6286 5.51174 29.8012C5.60876 29.9738 5.74964 30.1178 5.92013 30.2186C6.09063 30.3193 6.2847 30.3733 6.48273 30.375H29.5171C29.7151 30.3733 29.9092 30.3193 30.0797 30.2186C30.2502 30.1178 30.3911 29.9738 30.4881 29.8012C30.5851 29.6286 30.6348 29.4334 30.6323 29.2353C30.6297 29.0373 30.5749 28.8435 30.4734 28.6734L21.5296 13.7672C21.4295 13.5914 21.3763 13.3929 21.3749 13.1906V4.5" stroke="#FF585A" stroke-width="2.25" stroke-linecap="round" stroke-linejoin="round"/>
<path d="M12.375 4.5H23.625" stroke="#FF585A" stroke-width="2.25" stroke-linecap="round" stroke-linejoin="round"/>
<path d="M8.80313 23.2032C10.4625 21.9798 13.3172 21.2907 18 23.6251C23.0203 26.1423 25.9453 25.1439 27.5484 23.7798" stroke="#FF585A" stroke-width="2.25" stroke-linecap="round" stroke-linejoin="round"/>
</g>
<defs>
<clipPath id="clip0_517_686">
<rect width="36" height="36" fill="white"/>
</clipPath>
</defs>
</svg>
