<svg width="36" height="36" viewBox="0 0 36 36" fill="none" xmlns="http://www.w3.org/2000/svg">
<g clip-path="url(#clip0_13_720)">
<path d="M6.94678 13.3033C6.17116 12.4473 5.75443 11.3258 5.78286 10.171C5.81129 9.01619 6.28271 7.91656 7.09951 7.09976C7.91632 6.28296 9.01595 5.81154 10.1707 5.7831C11.3255 5.75467 12.447 6.1714 13.303 6.94702L29.053 22.697C29.8286 23.553 30.2454 24.6745 30.2169 25.8293C30.1885 26.9841 29.7171 28.0837 28.9003 28.9005C28.0835 29.7173 26.9839 30.1888 25.8291 30.2172C24.6743 30.2456 23.5528 29.8289 22.6968 29.0533L6.94678 13.3033Z" stroke="#FF2E31" stroke-opacity="0.8" stroke-width="2.25" stroke-linecap="round" stroke-linejoin="round"/>
<path d="M22.6968 6.94702C23.5528 6.1714 24.6743 5.75467 25.8291 5.7831C26.9839 5.81154 28.0835 6.28296 28.9003 7.09976C29.7171 7.91656 30.1885 9.01619 30.2169 10.171C30.2454 11.3258 29.8286 12.4473 29.053 13.3033L13.303 29.0533C12.447 29.8289 11.3255 30.2456 10.1707 30.2172C9.01595 30.1888 7.91632 29.7173 7.09951 28.9005C6.28271 28.0837 5.81129 26.9841 5.78286 25.8293C5.75443 24.6745 6.17116 23.553 6.94678 22.697L22.6968 6.94702Z" stroke="#FF2E31" stroke-opacity="0.8" stroke-width="2.25" stroke-linecap="round" stroke-linejoin="round"/>
<path opacity="0.5" d="M18 18.5625C18.3107 18.5625 18.5625 18.3107 18.5625 18C18.5625 17.6893 18.3107 17.4375 18 17.4375C17.6893 17.4375 17.4375 17.6893 17.4375 18C17.4375 18.3107 17.6893 18.5625 18 18.5625Z" stroke="#FF2E31" stroke-opacity="0.8" stroke-width="2.25" stroke-linecap="round" stroke-linejoin="round"/>
<path d="M18 19.6875C18.932 19.6875 19.6875 18.932 19.6875 18C19.6875 17.068 18.932 16.3125 18 16.3125C17.068 16.3125 16.3125 17.068 16.3125 18C16.3125 18.932 17.068 19.6875 18 19.6875Z" fill="#FF2E31" fill-opacity="0.8"/>
</g>
<defs>
<clipPath id="clip0_13_720">
<rect width="36" height="36" fill="white"/>
</clipPath>
</defs>
</svg>
