<?xml version="1.0" standalone="no"?>
<!DOCTYPE svg PUBLIC "-//W3C//DTD SVG 1.1//EN" "http://www.w3.org/Graphics/SVG/1.1/DTD/svg11.dtd" >
<svg xmlns="http://www.w3.org/2000/svg" xmlns:xlink="http://www.w3.org/1999/xlink" version="1.1">
<metadata>
Created by FontForge 20170731 at Tue Mar 20 17:36:52 2018
 By Aleksey,,,
Digitized data copyright 2012-2018 for FiraGO, bBox Type GmbH and HERE Europe B.V. All rights reserved, with Reserved Font Name "Fira" / Digitized data copyright 2012-2018 for Fira Sans The Mozilla Foundation, Telefonica S.A., Carrois Corporate GbR and bBox Type GmbH, with Reserved Font Name "Fira"
</metadata>
<defs>
<font id="FiraGO-Regular" horiz-adv-x="0" >
  <font-face 
    font-family="FiraGO"
    font-weight="400"
    font-stretch="normal"
    units-per-em="1000"
    panose-1="2 11 5 3 5 0 0 2 0 4"
    ascent="800"
    descent="-200"
    x-height="527"
    cap-height="689"
    bbox="-756 -725 2416 1277"
    underline-thickness="50"
    underline-position="-250"
    unicode-range="U+000D-FEFF"
  />
<missing-glyph horiz-adv-x="666" 
d="M543 1050v-1400h-420v1400h420zM489 998h-311v-1296h311v1296zM324 451q111 0 111 -115q0 -104 -95 -118v-45q0 -11 -7.5 -17.5t-17.5 -6.5t-17.5 6.5t-7.5 17.5v84q53 3 72 19.5t19 57.5q0 33 -13 51t-48 18q-29 0 -52 -11q-8 -3 -13 -3q-24 0 -24 23q0 19 29.5 29
t63.5 10zM315 120q15 0 25 -10t10 -25q0 -16 -10 -26.5t-25 -10.5t-25 10.5t-10 26.5q0 15 10 25t25 10z" />
    <glyph glyph-name="fi" unicode="fi" horiz-adv-x="572" 
d="M276 750q76 0 146 -36l-32 -64q-52 25 -111 25q-53 0 -73 -19t-20 -59v-70h294v-527h-92v456h-202v-456h-92v456h-84v71h84v69q0 70 45 112t137 42z" />
    <glyph glyph-name="fl" unicode="fl" horiz-adv-x="597" 
d="M548 70l24 -64q-38 -18 -78 -18q-51 0 -78 29.5t-27 86.5v555q-57 17 -115 17q-49 0 -68.5 -18t-19.5 -58v-73h128l-10 -71h-118v-456h-92v456h-84v71h84v72q0 69 44.5 110t129.5 41q59 0 122 -20l91 12v-636q0 -42 33 -42q19 0 34 6z" />
    <glyph glyph-name="uniFDF2" unicode="&#x627;&#xfedf;&#xfee0;&#xfeea;" horiz-adv-x="1150" arabic-form="isolated" 
d="M611 922v-183h-57v176zM528 604q-26 0 -48 19.5t-22 57.5q0 27 13 66l45 -10q-6 -22 -6 -45q0 -32 22 -32q12 0 20 10t8 29v37h47v-41q0 -32 24 -32q25 0 25 39q0 29 -12 56l46 15q18 -44 18 -86q0 -38 -20.5 -58t-52.5 -20q-34 0 -51 24q-20 -29 -56 -29zM996 756l84 11
v-767h-84v756zM772 204v456l84 11v-470q0 -109 -38.5 -155t-111.5 -46q-85 0 -122 68q-33 -68 -116 -68q-114 0 -143 99q-48 -65 -145 -65q-70 0 -112.5 38t-42.5 101q0 79 76 137.5t209 77.5v82l84 11v-279q0 -63 16 -87.5t56 -24.5q42 0 58.5 24t16.5 91v353l84 11v-364
q0 -64 17 -89.5t60 -25.5q39 0 54.5 25.5t15.5 88.5zM310 173v139q-98 -9 -152 -46t-54 -81q0 -73 83 -73q82 0 123 61z" />
    <glyph glyph-name="uniFEF5" unicode="&#xfedf;&#xfe82;" horiz-adv-x="644" arabic-form="isolated" 
d="M117 747q-27 0 -41 -42l-48 14q12 37 36 61.5t52 24.5q22 0 50 -14.5t43 -14.5q17 0 40 16l23 -40q-37 -32 -74 -32q-16 0 -42.5 13.5t-38.5 13.5zM482 363q97 -100 97 -192q0 -89 -57 -130t-190 -41h-233l8 85q115 89 179 147t101 115l-301 286l106 16l232 -229
q34 84 34 229v107l84 10v-124q0 -162 -60 -279zM326 89q101 0 141.5 15.5t40.5 66.5q0 50 -67 123q-71 -101 -217 -205h102z" />
    <glyph glyph-name="uniFEF6" unicode="&#xfee0;&#xfe82;" horiz-adv-x="696" arabic-form="final" 
d="M704 90l12 -45l-20 -45q-52 0 -92 25.5t-55 73.5q-79 -99 -299 -99h-153l-11 90h175q107 0 165 21l-292 470l98 15l162 -279q58 -99 83 -178q48 39 48 142v475l83 11v-549q0 -71 21.5 -99.5t74.5 -28.5zM157 692q-27 0 -41 -42l-48 14q12 37 36 61.5t52 24.5
q22 0 50 -14.5t43 -14.5q17 0 40 16l23 -40q-37 -32 -74 -32q-16 0 -42.5 13.5t-38.5 13.5z" />
    <glyph glyph-name="uniFEF7" unicode="&#xfedf;&#xfe84;" horiz-adv-x="644" arabic-form="isolated" 
d="M246 781l7 -51l-213 -35l-6 50l64 11q-42 37 -42 72q0 39 27 64.5t78 25.5q34 0 76 -22l-31 -49q-28 16 -52 16q-23 0 -33 -11t-10 -26q0 -27 42 -61zM482 363q97 -100 97 -192q0 -89 -57 -130t-190 -41h-233l8 85q115 89 179 147t101 115l-301 286l106 16l232 -229
q34 84 34 229v107l84 10v-124q0 -162 -60 -279zM326 89q101 0 141.5 15.5t40.5 66.5q0 50 -67 123q-71 -101 -217 -205h102z" />
    <glyph glyph-name="uniFEF8" unicode="&#xfee0;&#xfe84;" horiz-adv-x="696" arabic-form="final" 
d="M286 726l7 -51l-213 -35l-6 50l64 11q-42 37 -42 72q0 39 27 64.5t78 25.5q34 0 76 -22l-31 -49q-28 16 -52 16q-23 0 -33 -11t-10 -26q0 -27 42 -61zM704 90l12 -45l-20 -45q-52 0 -92 25.5t-55 73.5q-79 -99 -299 -99h-153l-11 90h175q107 0 165 21l-292 470l98 15
l162 -279q58 -99 83 -178q48 39 48 142v475l83 11v-549q0 -71 21.5 -99.5t74.5 -28.5z" />
    <glyph glyph-name="uniFEF9" unicode="&#xfedf;&#xfe88;" horiz-adv-x="644" arabic-form="isolated" 
d="M482 363q97 -100 97 -192q0 -89 -57 -130t-190 -41h-233l8 85q115 89 179 147t101 115l-301 286l106 16l232 -229q34 84 34 229v107l84 10v-124q0 -162 -60 -279zM326 89q101 0 141.5 15.5t40.5 66.5q0 50 -67 123q-71 -101 -217 -205h102zM205 -193l93 16l7 -51
l-213 -35l-6 50l64 11q-42 37 -42 72q0 39 27 64.5t78 25.5q34 0 76 -22l-31 -49q-28 16 -52 16q-23 0 -33 -11t-10 -26q0 -27 42 -61z" />
    <glyph glyph-name="uniFEFA" unicode="&#xfee0;&#xfe88;" horiz-adv-x="696" arabic-form="final" 
d="M704 90l12 -45l-20 -45q-52 0 -92 25.5t-55 73.5q-79 -99 -299 -99h-153l-11 90h175q107 0 165 21l-292 470l98 15l162 -279q58 -99 83 -178q48 39 48 142v475l83 11v-549q0 -71 21.5 -99.5t74.5 -28.5zM207 -193l93 16l7 -51l-213 -35l-6 50l64 11q-42 37 -42 72
q0 39 27 64.5t78 25.5q34 0 76 -22l-31 -49q-28 16 -52 16q-23 0 -33 -11t-10 -26q0 -27 42 -61z" />
    <glyph glyph-name="uniFEFB" unicode="&#xfedf;&#xfe8e;" horiz-adv-x="644" arabic-form="isolated" 
d="M482 363q97 -100 97 -192q0 -89 -57 -130t-190 -41h-233l8 85q115 89 179 147t101 115l-301 286l106 16l232 -229q34 84 34 229v107l84 10v-124q0 -162 -60 -279zM326 89q101 0 141.5 15.5t40.5 66.5q0 50 -67 123q-71 -101 -217 -205h102z" />
    <glyph glyph-name="uniFEFC" unicode="&#xfee0;&#xfe8e;" horiz-adv-x="696" arabic-form="final" 
d="M704 90l12 -45l-20 -45q-52 0 -92 25.5t-55 73.5q-79 -99 -299 -99h-153l-11 90h175q107 0 165 21l-292 470l98 15l162 -279q58 -99 83 -178q48 39 48 142v475l83 11v-549q0 -71 21.5 -99.5t74.5 -28.5z" />
    <glyph glyph-name="f_f" unicode="ff" horiz-adv-x="610" 
d="M549 676q-42 0 -60 -18.5t-18 -57.5v-73h128l-10 -71h-118v-456h-92v456h-193v-456h-92v456h-84v71h84v62q0 69 44.5 110t129.5 41q76 0 151 -35q45 45 125 45q63 0 126 -27l-29 -67q-45 20 -92 20zM379 527v72q0 25 6 46q-56 21 -111 21q-49 0 -68.5 -18t-19.5 -58v-63
h193z" />
    <glyph glyph-name="f_f_i" unicode="ffi" horiz-adv-x="857" 
d="M471 527h294v-527h-92v456h-202v-456h-92v456h-193v-456h-92v456h-84v71h84v62q0 69 44.5 110t129.5 41q75 0 152 -35q48 45 141 45q76 0 146 -36l-32 -64q-52 25 -111 25q-53 0 -73 -19t-20 -59v-70zM379 527v69q0 26 6 49q-56 21 -111 21q-49 0 -68.5 -18t-19.5 -58
v-63h193z" />
    <glyph glyph-name="f_f_j" unicode="ffj" horiz-adv-x="857" 
d="M765 527v-495q0 -55 -9.5 -93.5t-32.5 -66t-51 -45.5t-74 -39l-27 67q39 18 58.5 34t31.5 49t12 88v430h-202v-456h-92v456h-193v-456h-92v456h-84v71h84v62q0 69 44.5 110t129.5 41q75 0 152 -35q48 45 141 45q76 0 146 -36l-32 -64q-52 25 -111 25q-53 0 -73 -19
t-20 -59v-70h294zM379 527v69q0 26 6 49q-56 21 -111 21q-49 0 -68.5 -18t-19.5 -58v-63h193z" />
    <glyph glyph-name="f_f_l" unicode="ffl" horiz-adv-x="882" 
d="M833 70l24 -64q-37 -18 -78 -18q-51 0 -78 29.5t-27 86.5v555q-57 17 -115 17q-49 0 -68.5 -18t-19.5 -58v-73h128l-10 -71h-118v-456h-92v456h-193v-456h-92v456h-84v71h84v62q0 69 44.5 110t129.5 41q75 0 152 -35q47 45 133 45q59 0 122 -20l91 12v-636q0 -42 33 -42
q19 0 34 6zM379 527v72q0 25 6 46q-56 21 -111 21q-49 0 -68.5 -18t-19.5 -58v-63h193z" />
    <glyph glyph-name="f_j" unicode="fj" horiz-adv-x="572" 
d="M480 527v-495q0 -55 -9.5 -93.5t-32.5 -66t-51 -45.5t-74 -39l-27 67q39 18 58.5 34t31.5 49t12 88v430h-202v-456h-92v456h-84v71h84v69q0 70 45 112t137 42q76 0 146 -36l-32 -64q-52 25 -111 25q-53 0 -73 -19t-20 -59v-70h294z" />
    <glyph glyph-name="uni0E240E45" unicode="&#xe24;&#xe45;" horiz-adv-x="930" 
d="M639 584q101 0 149.5 -43.5t48.5 -131.5v-601l-92 11v586q0 56 -30.5 80t-92.5 24q-53 0 -122 -18q31 -47 31 -122v-571l-92 11v560q0 68 -32 100.5t-99 32.5q-102 0 -168 -66q79 -14 152 -44v-71q-58 -2 -86.5 -29t-28.5 -86v-90q0 -52 40 -52q23 0 42 9l20 -66
q-46 -19 -82 -19q-109 0 -109 132v86q0 66 33 105t93 48q-76 25 -154 33v60q98 122 252 122q85 0 139 -34q102 44 188 44z" />
    <glyph glyph-name="uni0E260E45" unicode="&#xe26;&#xe45;" horiz-adv-x="923" 
d="M632 584q101 0 149.5 -43.5t48.5 -131.5v-601l-92 11v586q0 56 -30 80t-93 24q-53 0 -120 -18q30 -48 30 -122v-571l-92 11v560q0 68 -31 100.5t-97 32.5q-100 0 -164 -66q79 -14 152 -44v-71q-47 -2 -71 -29t-24 -91v-87q0 -121 -122 -121q-11 0 -21 1l-4 66h6
q18 0 28.5 3.5t15 15t5 20.5t0.5 31v88q0 59 29 95t81 46q-78 25 -155 33v60q98 122 248 122q83 0 137 -34q100 44 186 44z" />
    <glyph glyph-name="uni06440671" unicode="&#xfedf;&#xfb51;" horiz-adv-x="644" 
d="M163 739q-36 0 -79 13l-18 -38l-46 16l28 84q12 -4 36 -10q47 102 120 102q33 0 55.5 -21t22.5 -56q0 -47 -33.5 -68.5t-85.5 -21.5zM199 851q-36 0 -72 -56q23 -4 48 -4q56 0 56 33q0 27 -32 27zM482 363q97 -100 97 -192q0 -89 -57 -130t-190 -41h-233l8 85
q115 89 179 147t101 115l-301 286l106 16l232 -229q34 84 34 229v107l84 10v-124q0 -162 -60 -279zM326 89q101 0 141.5 15.5t40.5 66.5q0 50 -67 123q-71 -101 -217 -205h102z" />
    <glyph glyph-name="uni06440671.fina" unicode="&#xfee0;&#xfb51;" horiz-adv-x="696" 
d="M124 697l-18 -38l-46 16l28 84q12 -4 36 -10q47 102 120 102q33 0 55.5 -21t22.5 -56q0 -47 -33.5 -68.5t-85.5 -21.5q-36 0 -79 13zM239 796q-36 0 -72 -56q23 -4 48 -4q56 0 56 33q0 27 -32 27zM704 90l12 -45l-20 -45q-52 0 -92 25.5t-55 73.5q-79 -99 -299 -99h-153
l-11 90h175q107 0 165 21l-292 470l98 15l162 -279q58 -99 83 -178q48 39 48 142v475l83 11v-549q0 -71 21.5 -99.5t74.5 -28.5z" />
    <glyph glyph-name="uni0E1B0E31" unicode="&#xe1b;&#xe31;" horiz-adv-x="606" 
d="M644 677q-56 -13 -131 -22v-452q0 -96 -58.5 -156t-159.5 -60q-104 0 -159 56.5t-55 159.5v189q0 108 -22 163l87 12q10 -17 18.5 -54.5t8.5 -75.5v-228q0 -149 122 -149q61 0 93.5 38t32.5 111v439h-15q-74 0 -112.5 22t-38.5 77q0 28 7 56h66q-4 -24 -4 -40
q0 -31 19 -42.5t73 -11.5h5v72l92 -11v-55q63 6 120 20z" />
    <glyph glyph-name="uni0E1B0E49" unicode="&#xe1b;&#xe49;" horiz-adv-x="606" 
d="M421 781l92 -11v-567q0 -96 -58.5 -156t-159.5 -60q-104 0 -159 56.5t-55 159.5v189q0 108 -22 163l87 12q10 -17 18.5 -54.5t8.5 -75.5v-228q0 -149 122 -149q61 0 93.5 38t32.5 111v492q-73 -54 -256 -57l-22 27q25 34 25 57q0 25 -11 34t-33 9q-19 0 -42 -5l-9 54
q29 11 65 11q47 0 77 -20.5t30 -57.5q0 -28 -14 -49q74 4 118 22t72 55z" />
    <glyph glyph-name="uni0E1B0E4A" unicode="&#xe1b;&#xe4a;" horiz-adv-x="606" 
d="M421 781l92 -11v-567q0 -96 -58.5 -156t-159.5 -60q-104 0 -159 56.5t-55 159.5v189q0 108 -22 163l87 12q10 -17 18.5 -54.5t8.5 -75.5v-228q0 -149 122 -149q61 0 93.5 38t32.5 111v481q-52 -45 -141 -45q-22 0 -40 3q6 42 6 80q0 20 -10.5 31.5t-27.5 11.5
q-18 0 -30 -16t-12 -43v-41l-71 -5v46q0 27 -11.5 43t-29.5 16q-38 0 -38 -44q0 -39 9 -79h-70q-10 38 -10 87q0 41 26 68.5t70 27.5q75 0 90 -68q5 30 28 49t63 19q44 0 69.5 -24.5t25.5 -59.5q0 -23 -8 -47q81 9 112 81z" />
    <glyph glyph-name="uni0E1B0E4B" unicode="&#xe1b;&#xe4b;" horiz-adv-x="606" 
d="M219 648l1 64l-78 -1l7 60l71 -1l-1 55l73 10l-1 -65l75 1v-60l-75 1l1 -64h-73zM421 781l92 -11v-567q0 -96 -58.5 -156t-159.5 -60q-104 0 -159 56.5t-55 159.5v189q0 108 -22 163l87 12q10 -17 18.5 -54.5t8.5 -75.5v-228q0 -149 122 -149q61 0 93.5 38t32.5 111v572z
" />
    <glyph glyph-name="uni0E1B0E4C" unicode="&#xe1b;&#xe4c;" horiz-adv-x="606" 
d="M601 745v-60h-88v-482q0 -96 -58.5 -156t-159.5 -60q-104 0 -159 56.5t-55 159.5v189q0 108 -22 163l87 12q10 -17 18.5 -54.5t8.5 -75.5v-228q0 -149 122 -149q61 0 93.5 38t32.5 111v476h-54q-25 0 -33.5 -10t-8.5 -37q0 -12 2 -32h-74q-4 28 -4 48q0 91 108 91h64v36
l92 -11v-25h88z" />
    <glyph glyph-name="uni0E1B0E4D" unicode="&#xe1b;&#xe4d;" horiz-adv-x="606" 
d="M272 643q-44 0 -73 27.5t-29 67.5t29 67.5t73 27.5t73 -27.5t29 -67.5t-29 -67.5t-73 -27.5zM421 781l92 -11v-567q0 -96 -58.5 -156t-159.5 -60q-104 0 -159 56.5t-55 159.5v189q0 108 -22 163l87 12q10 -17 18.5 -54.5t8.5 -75.5v-228q0 -149 122 -149q61 0 93.5 38
t32.5 111v572zM272 776q-36 0 -36 -38t36 -38t36 38t-36 38z" />
    <glyph glyph-name="uni0E1D0E31" unicode="&#xe1d;&#xe31;" horiz-adv-x="735" 
d="M773 677q-56 -13 -131 -22v-449q0 -112 -44 -165t-114 -53q-107 0 -125 117q-13 -61 -44 -89t-87 -28q-69 0 -111.5 52t-42.5 166v87q0 112 18.5 174.5t50.5 84.5t85 22q36 0 73 -16l-14 -64q-24 8 -43 8q-44 0 -61 -44.5t-17 -165.5v-77q0 -83 18.5 -118t58.5 -35
q35 0 53 24.5t18 94.5v123l88 10v-133q0 -119 69 -119q37 0 58 30.5t21 114.5v441h-15q-74 0 -112.5 22t-38.5 77q0 28 7 56h66q-4 -24 -4 -40q0 -31 19 -42.5t73 -11.5h5v72l92 -11v-55q63 6 120 20z" />
    <glyph glyph-name="uni0E1D0E49" unicode="&#xe1d;&#xe49;" horiz-adv-x="735" 
d="M550 781l92 -11v-564q0 -112 -44 -165t-114 -53q-107 0 -125 117q-13 -61 -44 -89t-87 -28q-69 0 -111.5 52t-42.5 166v87q0 112 18.5 174.5t50.5 84.5t85 22q36 0 73 -16l-14 -64q-24 8 -43 8q-44 0 -61 -44.5t-17 -165.5v-77q0 -83 18.5 -118t58.5 -35q35 0 53 24.5
t18 94.5v123l88 10v-133q0 -119 69 -119q37 0 58 30.5t21 114.5v494q-73 -54 -256 -57l-22 27q25 34 25 57q0 25 -11 34t-33 9q-19 0 -42 -5l-9 54q29 11 65 11q47 0 77 -20.5t30 -57.5q0 -28 -14 -49q74 4 118 22t72 55z" />
    <glyph glyph-name="uni0E1D0E4A" unicode="&#xe1d;&#xe4a;" horiz-adv-x="735" 
d="M550 781l92 -11v-564q0 -112 -44 -165t-114 -53q-107 0 -125 117q-13 -61 -44 -89t-87 -28q-69 0 -111.5 52t-42.5 166v87q0 112 18.5 174.5t50.5 84.5t85 22q36 0 73 -16l-14 -64q-24 8 -43 8q-44 0 -61 -44.5t-17 -165.5v-77q0 -83 18.5 -118t58.5 -35q35 0 53 24.5
t18 94.5v123l88 10v-133q0 -119 69 -119q37 0 58 30.5t21 114.5v483q-52 -45 -141 -45q-22 0 -40 3q6 42 6 80q0 20 -10.5 31.5t-27.5 11.5q-18 0 -30 -16t-12 -43v-41l-71 -5v46q0 27 -11.5 43t-29.5 16q-38 0 -38 -44q0 -39 9 -79h-70q-10 38 -10 87q0 41 26 68.5t70 27.5
q75 0 90 -68q5 30 28 49t63 19q44 0 69.5 -24.5t25.5 -59.5q0 -23 -8 -47q81 9 112 81z" />
    <glyph glyph-name="uni0E1D0E4B" unicode="&#xe1d;&#xe4b;" horiz-adv-x="735" 
d="M348 648l1 64l-78 -1l7 60l71 -1l-1 55l73 10l-1 -65l75 1v-60l-75 1l1 -64h-73zM550 781l92 -11v-564q0 -112 -44 -165t-114 -53q-107 0 -125 117q-13 -61 -44 -89t-87 -28q-69 0 -111.5 52t-42.5 166v87q0 112 18.5 174.5t50.5 84.5t85 22q36 0 73 -16l-14 -64
q-24 8 -43 8q-44 0 -61 -44.5t-17 -165.5v-77q0 -83 18.5 -118t58.5 -35q35 0 53 24.5t18 94.5v123l88 10v-133q0 -119 69 -119q37 0 58 30.5t21 114.5v574z" />
    <glyph glyph-name="uni0E1D0E4C" unicode="&#xe1d;&#xe4c;" horiz-adv-x="735" 
d="M730 745v-60h-88v-479q0 -112 -44 -165t-114 -53q-107 0 -125 117q-13 -61 -44 -89t-87 -28q-69 0 -111.5 52t-42.5 166v87q0 112 18.5 174.5t50.5 84.5t85 22q36 0 73 -16l-14 -64q-24 8 -43 8q-44 0 -61 -44.5t-17 -165.5v-77q0 -83 18.5 -118t58.5 -35q35 0 53 24.5
t18 94.5v123l88 10v-133q0 -119 69 -119q37 0 58 30.5t21 114.5v478h-54q-25 0 -33.5 -10t-8.5 -37q0 -12 2 -32h-74q-4 28 -4 48q0 91 108 91h64v36l92 -11v-25h88z" />
    <glyph glyph-name="uni0E1D0E4D" unicode="&#xe1d;&#xe4d;" horiz-adv-x="735" 
d="M401 643q-44 0 -73 27.5t-29 67.5t29 67.5t73 27.5t73 -27.5t29 -67.5t-29 -67.5t-73 -27.5zM550 781l92 -11v-564q0 -112 -44 -165t-114 -53q-107 0 -125 117q-13 -61 -44 -89t-87 -28q-69 0 -111.5 52t-42.5 166v87q0 112 18.5 174.5t50.5 84.5t85 22q36 0 73 -16
l-14 -64q-24 8 -43 8q-44 0 -61 -44.5t-17 -165.5v-77q0 -83 18.5 -118t58.5 -35q35 0 53 24.5t18 94.5v123l88 10v-133q0 -119 69 -119q37 0 58 30.5t21 114.5v574zM401 776q-36 0 -36 -38t36 -38t36 38t-36 38z" />
    <glyph glyph-name="uni0E1F0E31" unicode="&#xe1f;&#xe31;" horiz-adv-x="772" 
d="M890 677q-66 -16 -153 -25l-19 -88l-117 -564h-119l-103 456l-107 -456h-115l-73 364q-26 131 -67 190l81 17q45 -53 70 -198l52 -299l111 490h97l114 -490l92 490l15 84q-72 0 -110 22.5t-38 76.5q0 28 7 56h66q-4 -24 -4 -40q0 -31 19 -42.5t72 -11.5l13 72h90l-14 -67
q70 7 129 21z" />
    <glyph glyph-name="uni0E1F0E49" unicode="&#xe1f;&#xe49;" horiz-adv-x="762" 
d="M674 781h90l-46 -217l-117 -564h-119l-103 456l-107 -456h-115l-73 364q-26 131 -67 190l81 17q45 -53 70 -198l52 -299l111 490h97l114 -490l92 490l12 66q6 32 15 63q-74 -45 -234 -50l-21 29q24 32 24 56q0 25 -11 34t-33 9q-19 0 -42 -5l-9 54q29 11 65 11
q47 0 77 -21t30 -60q0 -23 -15 -46q125 9 182 77z" />
    <glyph glyph-name="uni0E1F0E4A" unicode="&#xe1f;&#xe4a;" horiz-adv-x="762" 
d="M674 781h90l-46 -217l-117 -564h-119l-103 456l-107 -456h-115l-73 364q-26 131 -67 190l81 17q45 -53 70 -198l52 -299l111 490h97l114 -490l92 490l8 43q7 38 17 71q-45 -33 -119 -33q-22 0 -40 3q6 42 6 80q0 20 -10.5 31.5t-27.5 11.5q-18 0 -30 -16t-12 -43v-41
l-71 -5v46q0 27 -11.5 43t-29.5 16q-38 0 -38 -44q0 -39 9 -79h-70q-10 38 -10 87q0 41 26 68.5t70 27.5q75 0 90 -68q5 30 28 49t63 19q44 0 69.5 -24.5t25.5 -59.5q0 -23 -8 -47q78 9 105 81z" />
    <glyph glyph-name="uni0E1F0E4B" unicode="&#xe1f;&#xe4b;" horiz-adv-x="762" 
d="M459 648l1 64l-78 -1l7 60l71 -1l-1 55l73 10l-1 -65l75 1v-60l-75 1l1 -64h-73zM674 781h90l-46 -217l-117 -564h-119l-103 456l-107 -456h-115l-73 364q-26 131 -67 190l81 17q45 -53 70 -198l52 -299l111 490h97l114 -490l92 490z" />
    <glyph glyph-name="uni0E1F0E4C" unicode="&#xe1f;&#xe4c;" horiz-adv-x="772" 
d="M847 745v-60h-103l-26 -121l-117 -564h-119l-103 456l-107 -456h-115l-73 364q-26 131 -67 190l81 17q45 -53 70 -198l52 -299l111 490h97l114 -490l92 490l22 121h-43q-25 0 -33.5 -10t-8.5 -37q0 -12 2 -32h-74q-4 28 -4 48q0 91 108 91h64l7 36h90l-8 -36h91z" />
    <glyph glyph-name="uni0E1F0E4D" unicode="&#xe1f;&#xe4d;" horiz-adv-x="762" 
d="M512 643q-44 0 -73 27.5t-29 67.5t29 67.5t73 27.5t73 -27.5t29 -67.5t-29 -67.5t-73 -27.5zM674 781h90l-46 -217l-117 -564h-119l-103 456l-107 -456h-115l-73 364q-26 131 -67 190l81 17q45 -53 70 -198l52 -299l111 490h97l114 -490l92 490zM512 776q-36 0 -36 -38
t36 -38t36 38t-36 38z" />
    <glyph glyph-name="uni0E310E4A" unicode="&#xe31;&#xe4a;" 
d="M-93 1024l63 -13q-57 -142 -200 -142q-21 0 -36 3q5 42 5 72q0 39 -34 39q-17 0 -27.5 -14.5t-10.5 -38.5v-37l-64 -5v42q0 24 -10 38.5t-27 14.5q-34 0 -34 -40q0 -31 8 -71h-63q-9 38 -9 78q0 37 23.5 62t63.5 25q66 0 81 -61q4 27 25 44t57 17q40 0 62.5 -22t22.5 -54
q0 -17 -7 -42q79 10 111 105zM-356 712q36 0 93 11t105 31l16 -63q-115 -46 -224 -46q-69 0 -105 23t-36 79q0 30 8 56h66q-5 -20 -5 -40q0 -30 17 -40.5t65 -10.5z" />
    <glyph glyph-name="uni0620.init" unicode="&#x620;" horiz-adv-x="292" 
d="M195 45q36 -26 36 -70q0 -35 -23.5 -59.5t-62.5 -24.5q-37 0 -62 24.5t-25 59.5q0 11 4 27q-36 -2 -62 -2l-20 45l28 45q91 0 119 20t28 77q0 68 -46 200l86 28q42 -126 42 -233q0 -98 -42 -137zM145 -62q18 0 29 11t11 26q0 16 -11.5 26.5t-28.5 10.5t-28.5 -10.5
t-11.5 -26.5q0 -14 11 -25.5t29 -11.5z" />
    <glyph glyph-name="uni0620.medi" unicode="&#x620;" horiz-adv-x="346" 
d="M346 0q-68 0 -107 16t-64 59q-7 -13 -14 -22q21 -11 34 -31.5t13 -44.5q0 -35 -23.5 -59.5t-62.5 -24.5q-38 0 -62.5 24.5t-24.5 59.5q0 13 4 24q-12 -1 -39 -1l-20 45l29 45q30 0 51.5 2.5t34.5 10t20.5 14t11 22t4 25.5t0.5 33v4v4v133h84v-133q0 -34 4 -53t18 -34.5
t42 -21.5t75 -6l12 -45zM122 -60q18 0 29 11t11 26q0 16 -11.5 26.5t-28.5 10.5t-28.5 -10.5t-11.5 -26.5q0 -14 11 -25.5t29 -11.5z" />
    <glyph glyph-name="uni0620.fina" unicode="&#x620;" horiz-adv-x="737" 
d="M757 45l-20 -45q-45 0 -84 17q7 -15 7 -35q0 -72 -72 -126.5t-204 -67.5q9 -18 9 -39q0 -35 -23.5 -59.5t-62.5 -24.5q-37 0 -62 24.5t-25 59.5q0 23 11 42q-186 35 -186 242q0 100 47 196l63 -19q-28 -77 -28 -164q0 -172 191 -172q121 0 193 37.5t72 77.5
q0 27 -36.5 47.5t-134.5 48.5l39 79q30 -9 81 -26.5t76.5 -25.5t63.5 -15t73 -7zM347 -251q0 26 -26 35h-11h-16q-27 -7 -27 -35q0 -14 11 -25.5t29 -11.5t29 11t11 26z" />
    <glyph glyph-name="uni063B.init" unicode="&#x63b;" horiz-adv-x="466" 
d="M33 777q0 -22 -15 -37t-37 -15q-21 0 -36.5 15t-15.5 37t15.5 37t36.5 15q22 0 37 -15t15 -37zM136 725q-22 0 -37 15t-15 37t15 37t37 15q21 0 36.5 -15t15.5 -37t-15.5 -37t-36.5 -15zM421 770l-5 -95l-322 -190q156 -70 210 -129.5t54 -140.5q0 -215 -358 -215l-20 45
l28 45q105 0 167 18t83.5 46t21.5 71q0 32 -18.5 59.5t-82 67.5t-179.5 89l19 85z" />
    <glyph glyph-name="uni063B.medi" unicode="&#x63b;" horiz-adv-x="549" 
d="M21 725q-21 0 -36.5 15t-15.5 37t15.5 37t36.5 15q22 0 37 -15t15 -37t-15 -37t-37 -15zM176 725q-22 0 -37 15t-15 37t15 37t37 15q21 0 36.5 -15t15.5 -37t-15.5 -37t-36.5 -15zM557 90l12 -43l-20 -47q-90 0 -153 36t-129 133q-5 -76 -74.5 -122.5t-192.5 -46.5
l-20 45l28 45q95 0 142 28t47 78q0 63 -68 148l-80 100l18 81l402 245l-5 -95l-336 -198l184 -232q58 -73 88.5 -102t64 -41t92.5 -12z" />
    <glyph glyph-name="uni063B.fina" unicode="&#x63b;" horiz-adv-x="998" 
d="M461 725q-21 0 -36.5 15t-15.5 37t15.5 37t36.5 15q22 0 37 -15t15 -37t-15 -37t-37 -15zM616 725q-22 0 -37 15t-15 37t15 37t37 15q21 0 36.5 -15t15.5 -37t-15.5 -37t-36.5 -15zM1006 90l12 -43l-20 -47q-90 0 -153 36t-129 133q-13 -183 -379 -183q-159 0 -225.5 49
t-66.5 157q0 84 37 159l63 -21q-21 -66 -21 -125q0 -71 48.5 -100t172.5 -29q89 0 150.5 9.5t93 27t44.5 37.5t13 46q0 63 -68 148l-80 100l18 81l402 245l-5 -95l-336 -198l184 -232q58 -73 88.5 -102t64 -41t92.5 -12z" />
    <glyph glyph-name="uni063C.init" unicode="&#x63c;" horiz-adv-x="466" 
d="M421 770l-5 -95l-322 -190q156 -70 210 -129.5t54 -140.5q0 -215 -358 -215l-20 45l28 45q105 0 167 18t83.5 46t21.5 71q0 32 -18.5 59.5t-82 67.5t-179.5 89l19 85zM79 -144q0 -21 -15.5 -36t-35.5 -15q-22 0 -37 15t-15 36t15 36t37 15q20 0 35.5 -15t15.5 -36z
M196 -93q22 0 37 -15t15 -36t-15 -36t-37 -15q-20 0 -35.5 15t-15.5 36t15.5 36t35.5 15zM112 -215q20 0 35.5 -15t15.5 -36t-15.5 -36t-35.5 -15t-35.5 15t-15.5 36t15.5 36t35.5 15z" />
    <glyph glyph-name="uni063C.medi" unicode="&#x63c;" horiz-adv-x="549" 
d="M557 90l12 -43l-20 -47q-90 0 -153 36t-129 133q-5 -76 -74.5 -122.5t-192.5 -46.5l-20 45l28 45q95 0 142 28t47 78q0 63 -68 148l-80 100l18 81l402 245l-5 -95l-336 -198l184 -232q58 -73 88.5 -102t64 -41t92.5 -12zM254 -144q0 -21 -15.5 -36t-35.5 -15
q-22 0 -37 15t-15 36t15 36t37 15q20 0 35.5 -15t15.5 -36zM371 -93q22 0 37 -15t15 -36t-15 -36t-37 -15q-20 0 -35.5 15t-15.5 36t15.5 36t35.5 15zM287 -215q20 0 35.5 -15t15.5 -36t-15.5 -36t-35.5 -15t-35.5 15t-15.5 36t15.5 36t35.5 15z" />
    <glyph glyph-name="uni063C.fina" unicode="&#x63c;" horiz-adv-x="998" 
d="M1006 90l12 -43l-20 -47q-90 0 -153 36t-129 133q-13 -183 -379 -183q-159 0 -225.5 49t-66.5 157q0 84 37 159l63 -21q-21 -66 -21 -125q0 -71 48.5 -100t172.5 -29q89 0 150.5 9.5t93 27t44.5 37.5t13 46q0 63 -68 148l-80 100l18 81l402 245l-5 -95l-336 -198
l184 -232q58 -73 88.5 -102t64 -41t92.5 -12zM346 -144q0 -21 -15.5 -36t-35.5 -15q-22 0 -37 15t-15 36t15 36t37 15q20 0 35.5 -15t15.5 -36zM463 -93q22 0 37 -15t15 -36t-15 -36t-37 -15q-20 0 -35.5 15t-15.5 36t15.5 36t35.5 15zM379 -215q20 0 35.5 -15t15.5 -36
t-15.5 -36t-35.5 -15t-35.5 15t-15.5 36t15.5 36t35.5 15z" />
    <glyph glyph-name="uni066E.init" unicode="&#x66e;" horiz-adv-x="292" 
d="M8 90q91 0 119 20t28 77q0 68 -46 200l86 28q42 -126 42 -233q0 -106 -50 -144t-187 -38l-20 45z" />
    <glyph glyph-name="uni066E.medi" unicode="&#x66e;" horiz-adv-x="346" 
d="M354 90l12 -45l-20 -45q-68 0 -107 16t-64 59q-23 -44 -62.5 -59.5t-112.5 -15.5l-20 45l29 45q30 0 51.5 2.5t34.5 10t20.5 14t11 22t4 25.5t0.5 33v4v4v133h84v-133q0 -34 4 -53t18 -34.5t42 -21.5t75 -6z" />
    <glyph glyph-name="uni066E.fina" unicode="&#x66e;" horiz-adv-x="976" 
d="M984 90l12 -43l-20 -47q-77 0 -120 18.5t-71 58.5q-85 -45 -189.5 -68t-258.5 -23q-159 0 -225.5 49t-66.5 157q0 84 37 159l63 -21q-21 -66 -21 -125q0 -71 48.5 -100t172.5 -29q130 0 236 22t169 56v184h84v-118q0 -78 28 -104t122 -26z" />
    <glyph glyph-name="uni066F.init" unicode="&#x66f;" horiz-adv-x="473" 
d="M222 568q86 0 141 -76t55 -211q0 -86 -22.5 -140.5t-76 -86t-128 -43t-191.5 -11.5l-20 46l28 44q125 0 196 13t100.5 38t36.5 70q-37 -31 -115 -31q-88 0 -142 52t-54 133q0 84 56 143.5t136 59.5zM103 370q0 -53 39 -84t115 -31q48 0 88 14q-1 108 -33.5 159.5
t-89.5 51.5q-52 0 -85.5 -31t-33.5 -79z" />
    <glyph glyph-name="uni066F.medi" unicode="&#x66f;" horiz-adv-x="513" 
d="M519 90l14 -45l-20 -45h-49q-103 0 -201 45q-98 -45 -221 -45h-42l-20 45l28 45h44q60 0 120 11q-97 79 -97 179q0 80 54 143.5t128 63.5q84 0 137.5 -62.5t53.5 -144.5q0 -98 -96 -179q57 -11 112 -11h55zM149 280q0 -99 115 -151q110 52 110 151q0 48 -32.5 82.5
t-79.5 34.5q-48 0 -80.5 -34.5t-32.5 -82.5z" />
    <glyph glyph-name="uni066F.fina" unicode="&#x66f;" horiz-adv-x="781" 
d="M801 46l-20 -46h-79q-17 -130 -93 -194.5t-236 -64.5q-172 0 -250 64t-78 185q0 100 47 196l63 -19q-28 -77 -28 -164q0 -83 58 -127.5t196 -44.5q125 0 180.5 45t68.5 124h-63q-128 0 -187 49.5t-59 135.5q0 84 56 143.5t136 59.5q86 0 140.5 -76t54.5 -211v-11h81z
M548 90h88q-1 107 -34 158.5t-89 51.5q-52 0 -86 -31.5t-34 -78.5q0 -100 155 -100z" />
    <glyph glyph-name="uni0676.fina" unicode="&#x676;" horiz-adv-x="539" 
d="M205 504l-6 50l64 11q-42 37 -42 72q0 39 27 64.5t78 25.5q34 0 76 -22l-31 -49q-28 16 -52 16q-23 0 -33 -11t-10 -26q0 -27 42 -61l93 16l7 -51zM559 46l-20 -46h-103q-25 -106 -110 -172.5t-253 -101.5l-28 87q140 31 213.5 76t99.5 111h-76q-104 0 -162 52.5
t-58 135.5t56 142.5t136 59.5q85 0 139.5 -73.5t54.5 -200.5v-26h99zM289 90h86v12q0 100 -32.5 149.5t-90.5 49.5q-51 0 -84 -31t-33 -78q0 -102 154 -102z" />
    <glyph glyph-name="uni0677.fina" unicode="&#x677;" horiz-adv-x="539" 
d="M188 684l-23 47q49 16 80 37q-65 29 -65 81q0 41 26 64.5t61 23.5q39 0 60.5 -25t21.5 -61q0 -47 -40.5 -92.5t-120.5 -74.5zM231 848q0 -28 53 -44q16 21 16 42q0 15 -9.5 25t-24.5 10q-35 0 -35 -33zM365 469l-213 -35l-6 50l64 11q-42 37 -42 72q0 39 27 64.5t78 25.5
q34 0 76 -22l-31 -49q-28 16 -52 16q-23 0 -33 -11t-10 -26q0 -27 42 -61l93 16zM559 46l-20 -46h-103q-25 -106 -110 -172.5t-253 -101.5l-28 87q140 31 213.5 76t99.5 111h-76q-104 0 -162 52.5t-58 135.5t56 142.5t136 59.5q85 0 139.5 -73.5t54.5 -200.5v-26h99zM289 90
h86v12q0 100 -32.5 149.5t-90.5 49.5q-51 0 -84 -31t-33 -78q0 -102 154 -102z" />
    <glyph glyph-name="uni0678.init" unicode="&#x678;" horiz-adv-x="292" 
d="M253 630l7 -51l-213 -35l-6 50l64 11q-42 37 -42 72q0 39 27 64.5t78 25.5q34 0 76 -22l-31 -49q-28 16 -52 16q-23 0 -33 -11t-10 -26q0 -27 42 -61zM8 90q91 0 119 20t28 77q0 68 -46 200l86 28q42 -126 42 -233q0 -106 -50 -144t-187 -38l-20 45z" />
    <glyph glyph-name="uni0678.medi" unicode="&#x678;" horiz-adv-x="346" 
d="M97 474l-6 50l64 11q-42 37 -42 72q0 39 27 64.5t78 25.5q34 0 76 -22l-31 -49q-28 16 -52 16q-23 0 -33 -11t-10 -26q0 -27 42 -61l93 16l7 -51zM354 90l12 -45l-20 -45q-68 0 -107 16t-64 59q-23 -44 -62.5 -59.5t-112.5 -15.5l-20 45l29 45q30 0 51.5 2.5t34.5 10
t20.5 14t11 22t4 25.5t0.5 33v4v4v133h84v-133q0 -34 4 -53t18 -34.5t42 -21.5t75 -6z" />
    <glyph glyph-name="uni0678.fina" unicode="&#x678;" horiz-adv-x="737" 
d="M432 255l-6 50l64 11q-42 37 -42 72q0 39 27 64.5t78 25.5q34 0 76 -22l-31 -49q-28 16 -52 16q-23 0 -33 -11t-10 -26q0 -27 42 -61l93 16l7 -51zM757 45l-20 -45q-45 0 -84 17q7 -15 7 -35q0 -82 -92 -140t-258 -58q-136 0 -200.5 66t-64.5 183q0 100 47 196l63 -19
q-28 -77 -28 -164q0 -172 191 -172q121 0 193 37.5t72 77.5q0 27 -36.5 47.5t-134.5 48.5l39 79q30 -9 81 -26.5t76.5 -25.5t63.5 -15t73 -7z" />
    <glyph glyph-name="uni067C.init" unicode="&#x67c;" horiz-adv-x="286" 
d="M49 509q-21 0 -36.5 15t-15.5 37t15.5 37t36.5 15q22 0 37 -15t15 -37t-15 -37t-37 -15zM204 613q21 0 36.5 -15t15.5 -37t-15.5 -37t-36.5 -15q-22 0 -37 15t-15 37t15 37t37 15zM237 182q0 -108 -52 -146q26 -24 26 -61q0 -35 -23.5 -59.5t-62.5 -24.5q-37 0 -62 24.5
t-25 59.5q0 15 4 26q-13 -1 -42 -1l-20 45l28 45q91 0 119 20t28 77q0 68 -46 200l86 28q42 -126 42 -233zM165 -25q0 15 -10 25t-26 12q-15 -4 -26 -5q-18 -11 -18 -32q0 -14 11 -25.5t29 -11.5t29 11t11 26z" />
    <glyph glyph-name="uni067C.medi" unicode="&#x67c;" horiz-adv-x="346" 
d="M95 445q-21 0 -36.5 15t-15.5 37t15.5 37t36.5 15q22 0 37 -15t15 -37t-15 -37t-37 -15zM250 445q-22 0 -37 15t-15 37t15 37t37 15q21 0 36.5 -15t15.5 -37t-15.5 -37t-36.5 -15zM354 90l12 -45l-20 -45q-68 0 -107 16t-64 59q-5 -10 -17 -26q40 -25 40 -72
q0 -35 -23.5 -59.5t-62.5 -24.5q-38 0 -62.5 24.5t-24.5 59.5q0 12 3 24q-9 -1 -28 -1l-20 45l29 45q30 0 51.5 2.5t34.5 10t20.5 14t11 22t4 25.5t0.5 33v4v4v133h84v-133q0 -34 4 -53t18 -34.5t42 -21.5t75 -6zM112 -60q18 0 29 11t11 26q0 16 -11.5 26.5t-28.5 10.5h-4
q-12 -4 -19 -6q-17 -10 -17 -31q0 -14 11 -25.5t29 -11.5z" />
    <glyph glyph-name="uni067C.fina" unicode="&#x67c;" horiz-adv-x="976" 
d="M379 405q-21 0 -36.5 15t-15.5 37t15.5 37t36.5 15q22 0 37 -15t15 -37t-15 -37t-37 -15zM534 405q-22 0 -37 15t-15 37t15 37t37 15q21 0 36.5 -15t15.5 -37t-15.5 -37t-36.5 -15zM984 90l12 -43l-20 -47q-77 0 -120 18.5t-71 58.5q-138 -75 -343 -88q8 -18 8 -37
q0 -35 -23.5 -59.5t-62.5 -24.5q-38 0 -62.5 25t-24.5 59q0 19 8 35q-130 8 -185 57t-55 148q0 84 37 159l63 -21q-21 -66 -21 -125q0 -71 48.5 -100t172.5 -29q130 0 236 22t169 56v184h84v-118q0 -78 28 -104t122 -26zM404 -48q0 25 -24 34h-33q-23 -8 -23 -34
q0 -14 11 -25.5t29 -11.5t29 11t11 26z" />
    <glyph glyph-name="uni067D.init" unicode="&#x67d;" horiz-adv-x="292" 
d="M43 690q20 0 35.5 -15t15.5 -36t-15.5 -36t-35.5 -15q-22 0 -37 15t-15 36t15 36t37 15zM211 690q22 0 37 -15t15 -36t-15 -36t-37 -15q-20 0 -35.5 15t-15.5 36t15.5 36t35.5 15zM127 568q20 0 35.5 -15t15.5 -36t-15.5 -36t-35.5 -15t-35.5 15t-15.5 36t15.5 36
t35.5 15zM8 90q91 0 119 20t28 77q0 68 -46 200l86 28q42 -126 42 -233q0 -106 -50 -144t-187 -38l-20 45z" />
    <glyph glyph-name="uni067D.medi" unicode="&#x67d;" horiz-adv-x="346" 
d="M89 524q-22 0 -37 15t-15 36t15 36t37 15q20 0 35.5 -15t15.5 -36t-15.5 -36t-35.5 -15zM257 524q-20 0 -35.5 15t-15.5 36t15.5 36t35.5 15q22 0 37 -15t15 -36t-15 -36t-37 -15zM122 453q0 21 15.5 36t35.5 15t35.5 -15t15.5 -36t-15.5 -36t-35.5 -15t-35.5 15
t-15.5 36zM354 90l12 -45l-20 -45q-68 0 -107 16t-64 59q-23 -44 -62.5 -59.5t-112.5 -15.5l-20 45l29 45q30 0 51.5 2.5t34.5 10t20.5 14t11 22t4 25.5t0.5 33v4v4v133h84v-133q0 -34 4 -53t18 -34.5t42 -21.5t75 -6z" />
    <glyph glyph-name="uni067D.fina" unicode="&#x67d;" horiz-adv-x="976" 
d="M373 484q-22 0 -37 15t-15 36t15 36t37 15q20 0 35.5 -15t15.5 -36t-15.5 -36t-35.5 -15zM541 484q-20 0 -35.5 15t-15.5 36t15.5 36t35.5 15q22 0 37 -15t15 -36t-15 -36t-37 -15zM406 413q0 21 15.5 36t35.5 15t35.5 -15t15.5 -36t-15.5 -36t-35.5 -15t-35.5 15
t-15.5 36zM984 90l12 -43l-20 -47q-77 0 -120 18.5t-71 58.5q-85 -45 -189.5 -68t-258.5 -23q-159 0 -225.5 49t-66.5 157q0 84 37 159l63 -21q-21 -66 -21 -125q0 -71 48.5 -100t172.5 -29q130 0 236 22t169 56v184h84v-118q0 -78 28 -104t122 -26z" />
    <glyph glyph-name="uni0681.init" unicode="&#x681;" horiz-adv-x="706" 
d="M132 508l-6 50l64 11q-42 37 -42 72q0 39 27 64.5t78 25.5q34 0 76 -22l-31 -49q-28 16 -52 16q-23 0 -33 -11t-10 -26q0 -27 42 -61l93 16l7 -51zM236 464q48 0 85 -9t62.5 -24t47 -34t43.5 -40.5t46.5 -41.5t62 -39t84.5 -31l-12 -78l-101 -8q-77 -6 -153.5 -32.5
t-128.5 -54t-125 -50t-147 -22.5l-20 45l28 45q65 0 129.5 19t111.5 43t119.5 48.5t146.5 32.5q-44 19 -81.5 46.5t-57.5 46.5t-57 33.5t-88 14.5q-58 0 -121 -37l-42 78q84 49 168 49z" />
    <glyph glyph-name="uni0681.medi" unicode="&#x681;" horiz-adv-x="712" 
d="M128 508l-6 50l64 11q-42 37 -42 72q0 39 27 64.5t78 25.5q34 0 76 -22l-31 -49q-28 16 -52 16q-23 0 -33 -11t-10 -26q0 -27 42 -61l93 16l7 -51zM720 90l12 -45l-20 -45q-213 0 -233 183q-53 -13 -117 -45.5t-112.5 -62t-116 -52.5t-133.5 -23l-20 45l28 45
q63 0 127 22t112 49.5t119 57t142 40.5q-42 14 -80 36t-59.5 38t-57 28.5t-80.5 12.5q-58 0 -121 -37l-42 78q84 49 164 49q62 0 106 -13.5t74 -36t59.5 -47t79.5 -50.5t116 -42l-12 -78l-104 -4h-5q15 -66 52.5 -84.5t121.5 -18.5z" />
    <glyph glyph-name="uni0681.fina" unicode="&#x681;" horiz-adv-x="663" 
d="M127 508l-6 50l64 11q-42 37 -42 72q0 39 27 64.5t78 25.5q34 0 76 -22l-31 -49q-28 16 -52 16q-23 0 -33 -11t-10 -26q0 -27 42 -61l93 16l7 -51zM663 0q-99 0 -150.5 46t-59.5 142h1q-171 -18 -253 -91t-82 -171t70.5 -149t206.5 -51q127 0 218 47l34 -79
q-98 -60 -261 -60q-171 0 -256 74t-85 203q0 143 103 237.5t307 114.5q-37 17 -79.5 47t-77 46.5t-77.5 16.5q-67 0 -130 -38l-42 78q82 51 179 51q48 0 89 -17t71.5 -42t60.5 -51.5t71.5 -49t89.5 -30.5l-10 -78l-80 -3q14 -65 43.5 -84t106.5 -19l12 -45z" />
    <glyph glyph-name="uni0682.init" unicode="&#x682;" horiz-adv-x="706" 
d="M237 656q-21 0 -36.5 15t-15.5 37t15.5 37t36.5 15q22 0 37 -15t15 -37t-15 -37t-37 -15zM238 612q21 0 36.5 -15t15.5 -37t-15.5 -37t-36.5 -15q-22 0 -37 15t-15 37t15 37t37 15zM236 464q48 0 85 -9t62.5 -24t47 -34t43.5 -40.5t46.5 -41.5t62 -39t84.5 -31l-12 -78
l-101 -8q-77 -6 -153.5 -32.5t-128.5 -54t-125 -50t-147 -22.5l-20 45l28 45q65 0 129.5 19t111.5 43t119.5 48.5t146.5 32.5q-44 19 -81.5 46.5t-57.5 46.5t-57 33.5t-88 14.5q-58 0 -121 -37l-42 78q84 49 168 49z" />
    <glyph glyph-name="uni0682.medi" unicode="&#x682;" horiz-adv-x="712" 
d="M233 656q-21 0 -36.5 15t-15.5 37t15.5 37t36.5 15q22 0 37 -15t15 -37t-15 -37t-37 -15zM234 612q21 0 36.5 -15t15.5 -37t-15.5 -37t-36.5 -15q-22 0 -37 15t-15 37t15 37t37 15zM720 90l12 -45l-20 -45q-213 0 -233 183q-53 -13 -117 -45.5t-112.5 -62t-116 -52.5
t-133.5 -23l-20 45l28 45q63 0 127 22t112 49.5t119 57t142 40.5q-42 14 -80 36t-59.5 38t-57 28.5t-80.5 12.5q-58 0 -121 -37l-42 78q84 49 164 49q62 0 106 -13.5t74 -36t59.5 -47t79.5 -50.5t116 -42l-12 -78l-104 -4h-5q15 -66 52.5 -84.5t121.5 -18.5z" />
    <glyph glyph-name="uni0682.fina" unicode="&#x682;" horiz-adv-x="663" 
d="M232 656q-21 0 -36.5 15t-15.5 37t15.5 37t36.5 15q22 0 37 -15t15 -37t-15 -37t-37 -15zM233 612q21 0 36.5 -15t15.5 -37t-15.5 -37t-36.5 -15q-22 0 -37 15t-15 37t15 37t37 15zM663 0q-99 0 -150.5 46t-59.5 142h1q-171 -18 -253 -91t-82 -171t70.5 -149t206.5 -51
q127 0 218 47l34 -79q-98 -60 -261 -60q-171 0 -256 74t-85 203q0 143 103 237.5t307 114.5q-37 17 -79.5 47t-77 46.5t-77.5 16.5q-67 0 -130 -38l-42 78q82 51 179 51q48 0 89 -17t71.5 -42t60.5 -51.5t71.5 -49t89.5 -30.5l-10 -78l-80 -3q14 -65 43.5 -84t106.5 -19
l12 -45z" />
    <glyph glyph-name="uni0685.init" unicode="&#x685;" horiz-adv-x="706" 
d="M236 655q-20 0 -35.5 15t-15.5 36t15.5 36t35.5 15t35.5 -15t15.5 -36t-15.5 -36t-35.5 -15zM152 533q-22 0 -37 15t-15 36t15 36t37 15q20 0 35.5 -15t15.5 -36t-15.5 -36t-35.5 -15zM269 584q0 21 15.5 36t35.5 15q22 0 37 -15t15 -36t-15 -36t-37 -15q-20 0 -35.5 15
t-15.5 36zM236 464q48 0 85 -9t62.5 -24t47 -34t43.5 -40.5t46.5 -41.5t62 -39t84.5 -31l-12 -78l-101 -8q-77 -6 -153.5 -32.5t-128.5 -54t-125 -50t-147 -22.5l-20 45l28 45q65 0 129.5 19t111.5 43t119.5 48.5t146.5 32.5q-44 19 -81.5 46.5t-57.5 46.5t-57 33.5
t-88 14.5q-58 0 -121 -37l-42 78q84 49 168 49z" />
    <glyph glyph-name="uni0685.medi" unicode="&#x685;" horiz-adv-x="712" 
d="M232 655q-20 0 -35.5 15t-15.5 36t15.5 36t35.5 15t35.5 -15t15.5 -36t-15.5 -36t-35.5 -15zM148 533q-22 0 -37 15t-15 36t15 36t37 15q20 0 35.5 -15t15.5 -36t-15.5 -36t-35.5 -15zM265 584q0 21 15.5 36t35.5 15q22 0 37 -15t15 -36t-15 -36t-37 -15q-20 0 -35.5 15
t-15.5 36zM720 90l12 -45l-20 -45q-213 0 -233 183q-53 -13 -117 -45.5t-112.5 -62t-116 -52.5t-133.5 -23l-20 45l28 45q63 0 127 22t112 49.5t119 57t142 40.5q-42 14 -80 36t-59.5 38t-57 28.5t-80.5 12.5q-58 0 -121 -37l-42 78q84 49 164 49q62 0 106 -13.5t74 -36
t59.5 -47t79.5 -50.5t116 -42l-12 -78l-104 -4h-5q15 -66 52.5 -84.5t121.5 -18.5z" />
    <glyph glyph-name="uni0685.fina" unicode="&#x685;" horiz-adv-x="663" 
d="M231 655q-20 0 -35.5 15t-15.5 36t15.5 36t35.5 15t35.5 -15t15.5 -36t-15.5 -36t-35.5 -15zM147 533q-22 0 -37 15t-15 36t15 36t37 15q20 0 35.5 -15t15.5 -36t-15.5 -36t-35.5 -15zM264 584q0 21 15.5 36t35.5 15q22 0 37 -15t15 -36t-15 -36t-37 -15q-20 0 -35.5 15
t-15.5 36zM663 0q-99 0 -150.5 46t-59.5 142h1q-171 -18 -253 -91t-82 -171t70.5 -149t206.5 -51q127 0 218 47l34 -79q-98 -60 -261 -60q-171 0 -256 74t-85 203q0 143 103 237.5t307 114.5q-37 17 -79.5 47t-77 46.5t-77.5 16.5q-67 0 -130 -38l-42 78q82 51 179 51
q48 0 89 -17t71.5 -42t60.5 -51.5t71.5 -49t89.5 -30.5l-10 -78l-80 -3q14 -65 43.5 -84t106.5 -19l12 -45z" />
    <glyph glyph-name="uni0689.fina" unicode="&#x689;" horiz-adv-x="532" 
d="M540 90l12 -45l-20 -45q-47 0 -84 23t-58 62q-35 -66 -119 -89q13 -21 13 -45q0 -35 -23.5 -59.5t-62.5 -24.5q-38 0 -62.5 24.5t-24.5 59.5q0 21 9 38q-45 4 -95 18l27 88q77 -17 138 -17q104 0 172 63l-153 344l89 42l124 -318q27 -69 49 -94t69 -25zM238 -49
q0 29 -29 36q-8 -1 -25 -1q-26 -8 -26 -35q0 -14 11 -25.5t29 -11.5t29 11t11 26z" />
    <glyph glyph-name="uni068A.fina" unicode="&#x68a;" horiz-adv-x="532" 
d="M540 90l12 -45l-20 -45q-47 0 -84 23t-58 62q-54 -99 -206 -99q-82 0 -159 21l27 88q77 -17 138 -17q104 0 172 63l-153 344l89 42l124 -318q27 -69 49 -94t69 -25zM211 -98q23 0 39 -16t16 -39t-16 -39t-39 -16t-39 16t-16 39t16 39t39 16z" />
    <glyph glyph-name="uni068B.fina" unicode="&#x68b;" horiz-adv-x="532" 
d="M339 681q0 -34 -24.5 -61t-75.5 -27h-154l6 50h26q8 12 11 18v142h49v-75q38 42 80 42q36 0 59 -25.5t23 -63.5zM159 643h71q33 0 47 9t14 30q0 37 -38 37q-44 0 -94 -76zM540 90l12 -45l-20 -45q-47 0 -84 23t-58 62q-54 -99 -206 -99q-82 0 -159 21l27 88
q77 -17 138 -17q104 0 172 63l-153 344l89 42l124 -318q27 -69 49 -94t69 -25zM211 -98q23 0 39 -16t16 -39t-16 -39t-39 -16t-39 16t-16 39t16 39t39 16z" />
    <glyph glyph-name="uni068F.fina" unicode="&#x68f;" horiz-adv-x="532" 
d="M130 696q-22 0 -37 15t-15 36t15 36t37 15q20 0 35.5 -15t15.5 -36t-15.5 -36t-35.5 -15zM298 696q-20 0 -35.5 15t-15.5 36t15.5 36t35.5 15q22 0 37 -15t15 -36t-15 -36t-37 -15zM163 625q0 21 15.5 36t35.5 15t35.5 -15t15.5 -36t-15.5 -36t-35.5 -15t-35.5 15
t-15.5 36zM540 90l12 -45l-20 -45q-47 0 -84 23t-58 62q-54 -99 -206 -99q-82 0 -159 21l27 88q77 -17 138 -17q104 0 172 63l-153 344l89 42l124 -318q27 -69 49 -94t69 -25z" />
    <glyph glyph-name="uni0690.fina" unicode="&#x690;" horiz-adv-x="532" 
d="M138 715q-22 0 -37 15t-15 35q0 23 15 38.5t37 15.5t37 -15.5t15 -38.5q0 -20 -15 -35t-37 -15zM292 715q-22 0 -37 15t-15 35q0 23 15 38.5t37 15.5t37 -15.5t15 -38.5q0 -20 -15 -35t-37 -15zM138 568q-22 0 -37 15.5t-15 37.5q0 21 15 36t37 15t37 -15t15 -36
q0 -22 -15 -37.5t-37 -15.5zM292 568q-22 0 -37 15.5t-15 37.5q0 21 15 36t37 15t37 -15t15 -36q0 -22 -15 -37.5t-37 -15.5zM540 90l12 -45l-20 -45q-47 0 -84 23t-58 62q-54 -99 -206 -99q-82 0 -159 21l27 88q77 -17 138 -17q104 0 172 63l-153 344l89 42l124 -318
q27 -69 49 -94t69 -25z" />
    <glyph glyph-name="uni0692.fina" unicode="&#x692;" horiz-adv-x="413" 
d="M204 417h-48l-76 142l45 18l56 -95l56 95l45 -18zM421 90l12 -45l-20 -45q-78 0 -109 49q-25 -224 -297 -300l-37 87q137 38 200.5 104t63.5 144q0 79 -78 243l95 30q11 -32 39 -128q21 -79 48.5 -109t82.5 -30z" />
    <glyph glyph-name="uni0693.fina" unicode="&#x693;" horiz-adv-x="413" 
d="M421 90l12 -45l-20 -45q-78 0 -109 49q-12 -109 -86 -185q32 -5 52.5 -28.5t20.5 -55.5q0 -35 -23.5 -59.5t-62.5 -24.5q-37 0 -62 25t-25 59q0 8 1 12q-46 -24 -112 -43l-37 87q137 38 200.5 104t63.5 144q0 79 -78 243l95 30q11 -32 39 -128q21 -79 48.5 -109t82.5 -30
zM245 -220q0 16 -11.5 26.5t-28.5 10.5t-28.5 -10.5t-11.5 -26.5q0 -14 11 -25.5t29 -11.5t29 11t11 26z" />
    <glyph glyph-name="uni0694.fina" unicode="&#x694;" horiz-adv-x="413" 
d="M421 90l12 -45l-20 -45q-78 0 -109 49q-25 -224 -297 -300l-37 87q137 38 200.5 104t63.5 144q0 79 -78 243l95 30q11 -32 39 -128q21 -79 48.5 -109t82.5 -30zM220 -268q23 0 39 -16t16 -39t-16 -39t-39 -16t-39 16t-16 39t16 39t39 16z" />
    <glyph glyph-name="uni0695.fina" unicode="&#x695;" horiz-adv-x="413" 
d="M421 90l12 -45l-20 -45q-78 0 -109 49q-25 -224 -297 -300l-37 87q137 38 200.5 104t63.5 144q0 79 -78 243l95 30q11 -32 39 -128q21 -79 48.5 -109t82.5 -30zM220 -322l56 95l45 -18l-78 -142h-48l-76 142l45 18z" />
    <glyph glyph-name="uni0696.fina" unicode="&#x696;" horiz-adv-x="413" 
d="M178 443q-23 0 -39 16t-16 39t16 39t39 16t39 -16t16 -39t-16 -39t-39 -16zM421 90l12 -45l-20 -45q-78 0 -109 49q-25 -224 -297 -300l-37 87q137 38 200.5 104t63.5 144q0 79 -78 243l95 30q11 -32 39 -128q21 -79 48.5 -109t82.5 -30zM220 -268q23 0 39 -16t16 -39
t-16 -39t-39 -16t-39 16t-16 39t16 39t39 16z" />
    <glyph glyph-name="uni0697.fina" unicode="&#x697;" horiz-adv-x="413" 
d="M103 470q-21 0 -36.5 15t-15.5 37t15.5 37t36.5 15q22 0 37 -15t15 -37t-15 -37t-37 -15zM258 470q-22 0 -37 15t-15 37t15 37t37 15q21 0 36.5 -15t15.5 -37t-15.5 -37t-36.5 -15zM421 90l12 -45l-20 -45q-78 0 -109 49q-25 -224 -297 -300l-37 87q137 38 200.5 104
t63.5 144q0 79 -78 243l95 30q11 -32 39 -128q21 -79 48.5 -109t82.5 -30z" />
    <glyph glyph-name="uni0699.fina" unicode="&#x699;" horiz-adv-x="413" 
d="M105 568q-22 0 -37 15t-15 35q0 23 15 38.5t37 15.5t37 -15.5t15 -38.5q0 -20 -15 -35t-37 -15zM259 568q-22 0 -37 15t-15 35q0 23 15 38.5t37 15.5t37 -15.5t15 -38.5q0 -20 -15 -35t-37 -15zM105 421q-22 0 -37 15.5t-15 37.5q0 21 15 36t37 15t37 -15t15 -36
q0 -22 -15 -37.5t-37 -15.5zM259 421q-22 0 -37 15.5t-15 37.5q0 21 15 36t37 15t37 -15t15 -36q0 -22 -15 -37.5t-37 -15.5zM421 90l12 -45l-20 -45q-78 0 -109 49q-25 -224 -297 -300l-37 87q137 38 200.5 104t63.5 144q0 79 -78 243l95 30q11 -32 39 -128
q21 -79 48.5 -109t82.5 -30z" />
    <glyph glyph-name="uni069A.init" unicode="&#x69a;" horiz-adv-x="835" 
d="M463 418q-23 0 -39 16t-16 39t16 39t39 16t39 -16t16 -39t-16 -39t-39 -16zM738 415q42 -111 42 -221q0 -99 -46.5 -146.5t-126.5 -47.5q-93 0 -138 67q-47 -67 -141 -67q-46 0 -84 17t-58 47q-47 -64 -186 -64l-20 46l28 44q68 0 102.5 21.5t34.5 75.5v151h81v-129
q0 -71 26 -95t77 -24q96 0 96 118v130h82v-129q0 -64 26.5 -91.5t79.5 -27.5q44 0 64.5 22.5t20.5 73.5q0 85 -41 202zM478 -98q23 0 39 -16t16 -39t-16 -39t-39 -16t-39 16t-16 39t16 39t39 16z" />
    <glyph glyph-name="uni069A.medi" unicode="&#x69a;" horiz-adv-x="929" 
d="M465 418q-23 0 -39 16t-16 39t16 39t39 16t39 -16t16 -39t-16 -39t-39 -16zM937 90l12 -43l-20 -47q-131 0 -169 67q-45 -67 -151 -67q-93 0 -138 67q-47 -67 -141 -67q-46 0 -84 17t-58 47q-47 -64 -188 -64l-20 46l29 44q69 0 103.5 21.5t34.5 75.5v151h81v-129
q0 -71 26 -95t77 -24q96 0 96 118v130h82v-129q0 -64 26.5 -91.5t79.5 -27.5q93 0 93 96v182h84v-173q0 -60 31 -82.5t114 -22.5zM468 -98q23 0 39 -16t16 -39t-16 -39t-39 -16t-39 16t-16 39t16 39t39 16z" />
    <glyph glyph-name="uni069A.fina" unicode="&#x69a;" horiz-adv-x="1340" 
d="M876 418q-23 0 -39 16t-16 39t16 39t39 16t39 -16t16 -39t-16 -39t-39 -16zM1348 90l12 -43l-20 -47q-131 0 -169 67q-45 -67 -151 -67q-93 0 -138 67q-47 -67 -146 -67h-1q-70 0 -110 37q-6 -162 -83 -229t-232 -67q-136 0 -200.5 66t-64.5 183q0 100 47 196l63 -19
q-28 -77 -28 -164q0 -172 191 -172q124 0 175 49.5t51 168.5q0 57 -15 110t-50 130l92 37q4 -16 9.5 -34t13 -40t11.5 -34q24 -75 55 -101.5t84 -26.5q94 0 94 118v130h82v-129q0 -64 26.5 -91.5t79.5 -27.5q93 0 93 96v190h84v-181q0 -60 31 -82.5t114 -22.5zM881 -98
q23 0 39 -16t16 -39t-16 -39t-39 -16t-39 16t-16 39t16 39t39 16z" />
    <glyph glyph-name="uni069B.init" unicode="&#x69b;" horiz-adv-x="835" 
d="M738 415q42 -111 42 -221q0 -99 -46.5 -146.5t-126.5 -47.5q-93 0 -138 67q-47 -67 -141 -67q-46 0 -84 17t-58 47q-47 -64 -186 -64l-20 46l28 44q68 0 102.5 21.5t34.5 75.5v151h81v-129q0 -71 26 -95t77 -24q96 0 96 118v130h82v-129q0 -64 26.5 -91.5t79.5 -27.5
q44 0 64.5 22.5t20.5 73.5q0 85 -41 202zM445 -144q0 -21 -15.5 -36t-35.5 -15q-22 0 -37 15t-15 36t15 36t37 15q20 0 35.5 -15t15.5 -36zM562 -93q22 0 37 -15t15 -36t-15 -36t-37 -15q-20 0 -35.5 15t-15.5 36t15.5 36t35.5 15zM478 -215q20 0 35.5 -15t15.5 -36
t-15.5 -36t-35.5 -15t-35.5 15t-15.5 36t15.5 36t35.5 15z" />
    <glyph glyph-name="uni069B.medi" unicode="&#x69b;" horiz-adv-x="929" 
d="M937 90l12 -43l-20 -47q-131 0 -169 67q-45 -67 -151 -67q-93 0 -138 67q-47 -67 -141 -67q-46 0 -84 17t-58 47q-47 -64 -188 -64l-20 46l29 44q69 0 103.5 21.5t34.5 75.5v151h81v-129q0 -71 26 -95t77 -24q96 0 96 118v130h82v-129q0 -64 26.5 -91.5t79.5 -27.5
q93 0 93 96v182h84v-173q0 -60 31 -82.5t114 -22.5zM435 -144q0 -21 -15.5 -36t-35.5 -15q-22 0 -37 15t-15 36t15 36t37 15q20 0 35.5 -15t15.5 -36zM552 -93q22 0 37 -15t15 -36t-15 -36t-37 -15q-20 0 -35.5 15t-15.5 36t15.5 36t35.5 15zM468 -215q20 0 35.5 -15
t15.5 -36t-15.5 -36t-35.5 -15t-35.5 15t-15.5 36t15.5 36t35.5 15z" />
    <glyph glyph-name="uni069B.fina" unicode="&#x69b;" horiz-adv-x="1340" 
d="M1348 90l12 -43l-20 -47q-131 0 -169 67q-45 -67 -151 -67q-93 0 -138 67q-47 -67 -146 -67h-1q-70 0 -110 37q-6 -162 -83 -229t-232 -67q-136 0 -200.5 66t-64.5 183q0 100 47 196l63 -19q-28 -77 -28 -164q0 -172 191 -172q124 0 175 49.5t51 168.5q0 57 -15 110
t-50 130l92 37q4 -16 9.5 -34t13 -40t11.5 -34q24 -75 55 -101.5t84 -26.5q94 0 94 118v130h82v-129q0 -64 26.5 -91.5t79.5 -27.5q93 0 93 96v190h84v-181q0 -60 31 -82.5t114 -22.5zM848 -144q0 -21 -15.5 -36t-35.5 -15q-22 0 -37 15t-15 36t15 36t37 15q20 0 35.5 -15
t15.5 -36zM965 -93q22 0 37 -15t15 -36t-15 -36t-37 -15q-20 0 -35.5 15t-15.5 36t15.5 36t35.5 15zM881 -215q20 0 35.5 -15t15.5 -36t-15.5 -36t-35.5 -15t-35.5 15t-15.5 36t15.5 36t35.5 15z" />
    <glyph glyph-name="uni069C.init" unicode="&#x69c;" horiz-adv-x="835" 
d="M466 543q-20 0 -35.5 15t-15.5 36t15.5 36t35.5 15t35.5 -15t15.5 -36t-15.5 -36t-35.5 -15zM382 421q-22 0 -37 15t-15 36t15 36t37 15q20 0 35.5 -15t15.5 -36t-15.5 -36t-35.5 -15zM499 472q0 21 15.5 36t35.5 15q22 0 37 -15t15 -36t-15 -36t-37 -15q-20 0 -35.5 15
t-15.5 36zM738 415q42 -111 42 -221q0 -99 -46.5 -146.5t-126.5 -47.5q-93 0 -138 67q-47 -67 -141 -67q-46 0 -84 17t-58 47q-47 -64 -186 -64l-20 46l28 44q68 0 102.5 21.5t34.5 75.5v151h81v-129q0 -71 26 -95t77 -24q96 0 96 118v130h82v-129q0 -64 26.5 -91.5
t79.5 -27.5q44 0 64.5 22.5t20.5 73.5q0 85 -41 202zM445 -144q0 -21 -15.5 -36t-35.5 -15q-22 0 -37 15t-15 36t15 36t37 15q20 0 35.5 -15t15.5 -36zM562 -93q22 0 37 -15t15 -36t-15 -36t-37 -15q-20 0 -35.5 15t-15.5 36t15.5 36t35.5 15zM478 -215q20 0 35.5 -15
t15.5 -36t-15.5 -36t-35.5 -15t-35.5 15t-15.5 36t15.5 36t35.5 15z" />
    <glyph glyph-name="uni069C.medi" unicode="&#x69c;" horiz-adv-x="929" 
d="M468 543q-20 0 -35.5 15t-15.5 36t15.5 36t35.5 15t35.5 -15t15.5 -36t-15.5 -36t-35.5 -15zM384 421q-22 0 -37 15t-15 36t15 36t37 15q20 0 35.5 -15t15.5 -36t-15.5 -36t-35.5 -15zM501 472q0 21 15.5 36t35.5 15q22 0 37 -15t15 -36t-15 -36t-37 -15q-20 0 -35.5 15
t-15.5 36zM937 90l12 -43l-20 -47q-131 0 -169 67q-45 -67 -151 -67q-93 0 -138 67q-47 -67 -141 -67q-46 0 -84 17t-58 47q-47 -64 -188 -64l-20 46l29 44q69 0 103.5 21.5t34.5 75.5v151h81v-129q0 -71 26 -95t77 -24q96 0 96 118v130h82v-129q0 -64 26.5 -91.5
t79.5 -27.5q93 0 93 96v182h84v-173q0 -60 31 -82.5t114 -22.5zM435 -144q0 -21 -15.5 -36t-35.5 -15q-22 0 -37 15t-15 36t15 36t37 15q20 0 35.5 -15t15.5 -36zM552 -93q22 0 37 -15t15 -36t-15 -36t-37 -15q-20 0 -35.5 15t-15.5 36t15.5 36t35.5 15zM468 -215
q20 0 35.5 -15t15.5 -36t-15.5 -36t-35.5 -15t-35.5 15t-15.5 36t15.5 36t35.5 15z" />
    <glyph glyph-name="uni069C.fina" unicode="&#x69c;" horiz-adv-x="1340" 
d="M879 543q-20 0 -35.5 15t-15.5 36t15.5 36t35.5 15t35.5 -15t15.5 -36t-15.5 -36t-35.5 -15zM795 421q-22 0 -37 15t-15 36t15 36t37 15q20 0 35.5 -15t15.5 -36t-15.5 -36t-35.5 -15zM912 472q0 21 15.5 36t35.5 15q22 0 37 -15t15 -36t-15 -36t-37 -15q-20 0 -35.5 15
t-15.5 36zM1348 90l12 -43l-20 -47q-131 0 -169 67q-45 -67 -151 -67q-93 0 -138 67q-47 -67 -146 -67h-1q-70 0 -110 37q-6 -162 -83 -229t-232 -67q-136 0 -200.5 66t-64.5 183q0 100 47 196l63 -19q-28 -77 -28 -164q0 -172 191 -172q124 0 175 49.5t51 168.5
q0 57 -15 110t-50 130l92 37q4 -16 9.5 -34t13 -40t11.5 -34q24 -75 55 -101.5t84 -26.5q94 0 94 118v130h82v-129q0 -64 26.5 -91.5t79.5 -27.5q93 0 93 96v190h84v-181q0 -60 31 -82.5t114 -22.5zM848 -144q0 -21 -15.5 -36t-35.5 -15q-22 0 -37 15t-15 36t15 36t37 15
q20 0 35.5 -15t15.5 -36zM965 -93q22 0 37 -15t15 -36t-15 -36t-37 -15q-20 0 -35.5 15t-15.5 36t15.5 36t35.5 15zM881 -215q20 0 35.5 -15t15.5 -36t-15.5 -36t-35.5 -15t-35.5 15t-15.5 36t15.5 36t35.5 15z" />
    <glyph glyph-name="uni069D.init" unicode="&#x69d;" horiz-adv-x="935" 
d="M671 459q91 0 150 -63t59 -177q0 -58 -15.5 -96.5t-44.5 -63.5t-86 -37.5t-123.5 -17t-173.5 -4.5h-104q-63 0 -101.5 15.5t-63.5 57.5q-23 -43 -61 -58t-107 -15l-20 45l29 45q42 0 66.5 5.5t34.5 21.5t12 30t2 46v9v194h84v-194q0 -56 16.5 -80t70.5 -30
q57 172 161 269.5t215 97.5zM437 90q214 0 292 25.5t78 109.5q0 46 -12.5 77t-34.5 44t-40.5 17t-42.5 4q-89 0 -163.5 -63.5t-141.5 -213.5h65zM88 -91q22 0 37 -15t15 -37t-15 -37t-37 -15q-21 0 -36.5 15t-15.5 37t15.5 37t36.5 15zM243 -91q21 0 36.5 -15t15.5 -37
t-15.5 -37t-36.5 -15q-22 0 -37 15t-15 37t15 37t37 15z" />
    <glyph glyph-name="uni069D.medi" unicode="&#x69d;" horiz-adv-x="966" 
d="M974 90l12 -45l-20 -45q-82 0 -132 72q-42 -43 -132.5 -57.5t-264.5 -14.5h-104q-63 0 -101.5 15.5t-63.5 57.5q-23 -43 -61 -58t-107 -15l-20 45l29 45q42 0 66.5 5.5t34.5 21.5t12 30t2 46v9v194h84v-194q0 -56 16.5 -80t70.5 -30q57 172 161 269.5t215 97.5
q91 0 150 -63t59 -177q0 -45 -9 -79q36 -50 103 -50zM437 90q214 0 292 25.5t78 109.5q0 46 -12.5 77t-34.5 44t-40.5 17t-42.5 4q-89 0 -163.5 -63.5t-141.5 -213.5h65zM88 -91q22 0 37 -15t15 -37t-15 -37t-37 -15q-21 0 -36.5 15t-15.5 37t15.5 37t36.5 15zM243 -91
q21 0 36.5 -15t15.5 -37t-15.5 -37t-36.5 -15q-22 0 -37 15t-15 37t15 37t37 15z" />
    <glyph glyph-name="uni069D.fina" unicode="&#x69d;" horiz-adv-x="1369" 
d="M1377 90l12 -45l-20 -45q-82 0 -132 72q-42 -43 -132.5 -57.5t-264.5 -14.5h-104q-70 0 -111 37q-6 -162 -83 -229t-232 -67q-136 0 -200.5 66t-64.5 183q0 100 47 196l63 -19q-28 -77 -28 -164q0 -172 191 -172q124 0 175 49.5t51 168.5q0 57 -15 110t-50 130l92 37
q4 -16 9.5 -34t13 -40t11.5 -34q18 -58 40 -86t54 -37q58 170 161.5 267t213.5 97q91 0 150 -63t59 -177q0 -45 -9 -79q36 -50 103 -50zM840 90q214 0 292 25.5t78 109.5q0 46 -12.5 77t-34.5 44t-40.5 17t-42.5 4q-89 0 -163.5 -63.5t-141.5 -213.5h65zM238 -336
q22 0 37 -15t15 -37t-15 -37t-37 -15q-21 0 -36.5 15t-15.5 37t15.5 37t36.5 15zM393 -336q21 0 36.5 -15t15.5 -37t-15.5 -37t-36.5 -15q-22 0 -37 15t-15 37t15 37t37 15z" />
    <glyph glyph-name="uni069E.init" unicode="&#x69e;" horiz-adv-x="935" 
d="M641 650q-20 0 -35.5 15t-15.5 36t15.5 36t35.5 15t35.5 -15t15.5 -36t-15.5 -36t-35.5 -15zM557 528q-22 0 -37 15t-15 36t15 36t37 15q20 0 35.5 -15t15.5 -36t-15.5 -36t-35.5 -15zM674 579q0 21 15.5 36t35.5 15q22 0 37 -15t15 -36t-15 -36t-37 -15q-20 0 -35.5 15
t-15.5 36zM671 459q91 0 150 -63t59 -177q0 -58 -15.5 -96.5t-44.5 -63.5t-86 -37.5t-123.5 -17t-173.5 -4.5h-104q-63 0 -101.5 15.5t-63.5 57.5q-23 -43 -61 -58t-107 -15l-20 45l29 45q42 0 66.5 5.5t34.5 21.5t12 30t2 46v9v194h84v-194q0 -56 16.5 -80t70.5 -30
q57 172 161 269.5t215 97.5zM437 90q214 0 292 25.5t78 109.5q0 46 -12.5 77t-34.5 44t-40.5 17t-42.5 4q-89 0 -163.5 -63.5t-141.5 -213.5h65z" />
    <glyph glyph-name="uni069E.medi" unicode="&#x69e;" horiz-adv-x="966" 
d="M641 650q-20 0 -35.5 15t-15.5 36t15.5 36t35.5 15t35.5 -15t15.5 -36t-15.5 -36t-35.5 -15zM557 528q-22 0 -37 15t-15 36t15 36t37 15q20 0 35.5 -15t15.5 -36t-15.5 -36t-35.5 -15zM674 579q0 21 15.5 36t35.5 15q22 0 37 -15t15 -36t-15 -36t-37 -15q-20 0 -35.5 15
t-15.5 36zM974 90l12 -45l-20 -45q-82 0 -132 72q-42 -43 -132.5 -57.5t-264.5 -14.5h-104q-63 0 -101.5 15.5t-63.5 57.5q-23 -43 -61 -58t-107 -15l-20 45l29 45q42 0 66.5 5.5t34.5 21.5t12 30t2 46v9v194h84v-194q0 -56 16.5 -80t70.5 -30q57 172 161 269.5t215 97.5
q91 0 150 -63t59 -177q0 -45 -9 -79q36 -50 103 -50zM437 90q214 0 292 25.5t78 109.5q0 46 -12.5 77t-34.5 44t-40.5 17t-42.5 4q-89 0 -163.5 -63.5t-141.5 -213.5h65z" />
    <glyph glyph-name="uni069E.fina" unicode="&#x69e;" horiz-adv-x="1369" 
d="M1044 650q-20 0 -35.5 15t-15.5 36t15.5 36t35.5 15t35.5 -15t15.5 -36t-15.5 -36t-35.5 -15zM960 528q-22 0 -37 15t-15 36t15 36t37 15q20 0 35.5 -15t15.5 -36t-15.5 -36t-35.5 -15zM1077 579q0 21 15.5 36t35.5 15q22 0 37 -15t15 -36t-15 -36t-37 -15
q-20 0 -35.5 15t-15.5 36zM1377 90l12 -45l-20 -45q-82 0 -132 72q-42 -43 -132.5 -57.5t-264.5 -14.5h-104q-70 0 -111 37q-6 -162 -83 -229t-232 -67q-136 0 -200.5 66t-64.5 183q0 100 47 196l63 -19q-28 -77 -28 -164q0 -172 191 -172q124 0 175 49.5t51 168.5
q0 57 -15 110t-50 130l92 37q4 -16 9.5 -34t13 -40t11.5 -34q18 -58 40 -86t54 -37q58 170 161.5 267t213.5 97q91 0 150 -63t59 -177q0 -45 -9 -79q36 -50 103 -50zM840 90q214 0 292 25.5t78 109.5q0 46 -12.5 77t-34.5 44t-40.5 17t-42.5 4q-89 0 -163.5 -63.5
t-141.5 -213.5h65z" />
    <glyph glyph-name="uni069F.init" unicode="&#x69f;" horiz-adv-x="767" 
d="M503 459q91 0 150 -63t59 -177q0 -58 -15.5 -96.5t-44.5 -63.5t-86 -37.5t-123.5 -17t-173.5 -4.5h-271l1 3l-19 43l28 44h118l21 56v610l84 11v-471q59 79 130 121t142 42zM473 650q-20 0 -35.5 15t-15.5 36t15.5 36t35.5 15t35.5 -15t15.5 -36t-15.5 -36t-35.5 -15z
M389 528q-22 0 -37 15t-15 36t15 36t37 15q20 0 35.5 -15t15.5 -36t-15.5 -36t-35.5 -15zM506 579q0 21 15.5 36t35.5 15q22 0 37 -15t15 -36t-15 -36t-37 -15q-20 0 -35.5 15t-15.5 36zM269 90q214 0 292 25.5t78 109.5q0 46 -12.5 77t-34.5 44t-40.5 17t-42.5 4
q-89 0 -163.5 -63.5t-141.5 -213.5h65z" />
    <glyph glyph-name="uni069F.medi" unicode="&#x69f;" horiz-adv-x="798" 
d="M806 90l12 -45l-20 -45q-82 0 -132 72q-42 -43 -132.5 -57.5t-264.5 -14.5h-271l1 3l-19 43l28 44h118l21 56v610l84 11v-471q59 79 130 121t142 42q91 0 150 -63t59 -177q0 -45 -9 -79q36 -50 103 -50zM473 650q-20 0 -35.5 15t-15.5 36t15.5 36t35.5 15t35.5 -15
t15.5 -36t-15.5 -36t-35.5 -15zM389 528q-22 0 -37 15t-15 36t15 36t37 15q20 0 35.5 -15t15.5 -36t-15.5 -36t-35.5 -15zM506 579q0 21 15.5 36t35.5 15q22 0 37 -15t15 -36t-15 -36t-37 -15q-20 0 -35.5 15t-15.5 36zM269 90q214 0 292 25.5t78 109.5q0 46 -12.5 77
t-34.5 44t-40.5 17t-42.5 4q-89 0 -163.5 -63.5t-141.5 -213.5h65z" />
    <glyph glyph-name="uni069F.fina" unicode="&#x69f;" horiz-adv-x="830" 
d="M838 90l12 -45l-20 -45q-82 0 -132 72q-42 -43 -132.5 -57.5t-264.5 -14.5h-271l18 90h110l21 56v610l84 11v-471q59 79 130 121t142 42q91 0 150 -63t59 -177q0 -45 -9 -79q36 -50 103 -50zM505 650q-20 0 -35.5 15t-15.5 36t15.5 36t35.5 15t35.5 -15t15.5 -36
t-15.5 -36t-35.5 -15zM421 528q-22 0 -37 15t-15 36t15 36t37 15q20 0 35.5 -15t15.5 -36t-15.5 -36t-35.5 -15zM538 579q0 21 15.5 36t35.5 15q22 0 37 -15t15 -36t-15 -36t-37 -15q-20 0 -35.5 15t-15.5 36zM301 90q214 0 292 25.5t78 109.5q0 46 -12.5 77t-34.5 44
t-40.5 17t-42.5 4q-89 0 -163.5 -63.5t-141.5 -213.5h65z" />
    <glyph glyph-name="uni06A0.init" unicode="&#x6a0;" horiz-adv-x="573" 
d="M305 655q-20 0 -35.5 15t-15.5 36t15.5 36t35.5 15t35.5 -15t15.5 -36t-15.5 -36t-35.5 -15zM221 533q-22 0 -37 15t-15 36t15 36t37 15q20 0 35.5 -15t15.5 -36t-15.5 -36t-35.5 -15zM338 584q0 21 15.5 36t35.5 15q22 0 37 -15t15 -36t-15 -36t-37 -15q-20 0 -35.5 15
t-15.5 36zM547 144l11 -90q-137 -33 -230 -43.5t-199 -10.5h-129l-20 45l28 45h102h64q-49 38 -74 86t-25 95q0 78 61 135.5t169 57.5q89 0 157 -37l-39 -86q-57 31 -118 31q-73 0 -109.5 -31.5t-36.5 -78.5q0 -95 128 -166q91 9 260 48z" />
    <glyph glyph-name="uni06A0.medi" unicode="&#x6a0;" horiz-adv-x="599" 
d="M305 655q-20 0 -35.5 15t-15.5 36t15.5 36t35.5 15t35.5 -15t15.5 -36t-15.5 -36t-35.5 -15zM221 533q-22 0 -37 15t-15 36t15 36t37 15q20 0 35.5 -15t15.5 -36t-15.5 -36t-35.5 -15zM338 584q0 21 15.5 36t35.5 15q22 0 37 -15t15 -36t-15 -36t-37 -15q-20 0 -35.5 15
t-15.5 36zM607 90l12 -45l-20 -45h-42q-130 0 -228 80q-149 -80 -290 -80h-39l-20 45l28 45h15q121 0 243 51q-7 7 -28.5 30.5t-33 35.5t-33 32.5t-45.5 39.5t-52 39l11 90q103 42 220 42q115 0 166 -35.5t51 -104.5q0 -96 -116 -182q34 -23 69 -30.5t102 -7.5h30zM165 341
q32 -26 89 -81.5t87 -81.5q108 63 108 123q0 61 -144 61q-58 0 -140 -21z" />
    <glyph glyph-name="uni06A0.fina" unicode="&#x6a0;" horiz-adv-x="569" 
d="M301 654q-20 0 -35.5 15t-15.5 36t15.5 36t35.5 15t35.5 -15t15.5 -36t-15.5 -36t-35.5 -15zM217 532q-22 0 -37 15t-15 36t15 36t37 15q20 0 35.5 -15t15.5 -36t-15.5 -36t-35.5 -15zM334 583q0 21 15.5 36t35.5 15q22 0 37 -15t15 -36t-15 -36t-37 -15q-20 0 -35.5 15
t-15.5 36zM346 -274q118 0 207 47l35 -79q-99 -60 -251 -60q-153 0 -227.5 69t-74.5 178q0 187 186 275q-98 103 -179 163l12 90q105 41 223 41t169.5 -35t51.5 -105q0 -56 -32 -97.5t-98 -77.5q37 -27 72 -36t105 -9h32l12 -44l-20 -46h-43q-69 0 -125.5 22.5t-115.5 72.5
q-98 -45 -137 -90t-39 -110q0 -77 60 -123t177 -46zM134 341q33 -26 89.5 -80t76.5 -72q65 28 95.5 53.5t30.5 59.5q0 60 -149 60q-67 0 -143 -21z" />
    <glyph glyph-name="uni06A1.init" unicode="&#x6a1;" horiz-adv-x="473" 
d="M222 568q86 0 141 -76t55 -211q0 -86 -22.5 -140.5t-76 -86t-128 -43t-191.5 -11.5l-20 46l28 44q125 0 196 13t100.5 38t36.5 70q-37 -31 -115 -31q-88 0 -142 52t-54 133q0 84 56 143.5t136 59.5zM103 370q0 -53 39 -84t115 -31q48 0 88 14q-1 108 -33.5 159.5
t-89.5 51.5q-52 0 -85.5 -31t-33.5 -79z" />
    <glyph glyph-name="uni06A1.medi" unicode="&#x6a1;" horiz-adv-x="513" 
d="M519 90l14 -45l-20 -45h-49q-103 0 -201 45q-98 -45 -221 -45h-42l-20 45l28 45h44q60 0 120 11q-97 79 -97 179q0 80 54 143.5t128 63.5q84 0 137.5 -62.5t53.5 -144.5q0 -98 -96 -179q57 -11 112 -11h55zM149 280q0 -99 115 -151q110 52 110 151q0 48 -32.5 82.5
t-79.5 34.5q-48 0 -80.5 -34.5t-32.5 -82.5z" />
    <glyph glyph-name="uni06A1.fina" unicode="&#x6a1;" horiz-adv-x="964" 
d="M970 90l14 -45l-20 -45h-49q-102 0 -200 45q-141 -59 -378 -59q-159 0 -225.5 49t-66.5 157q0 84 37 159l63 -21q-21 -66 -21 -125q0 -71 48.5 -100t171.5 -29q165 0 279 25q-97 79 -97 179q0 80 54 143.5t128 63.5q84 0 137.5 -62.5t53.5 -144.5q0 -107 -90 -180
q50 -10 106 -10h55zM600 280q0 -97 112 -150q113 52 113 150q0 48 -32.5 82.5t-79.5 34.5q-48 0 -80.5 -34.5t-32.5 -82.5z" />
    <glyph glyph-name="uni06A2.init" unicode="&#x6a2;" horiz-adv-x="473" 
d="M222 568q86 0 141 -76t55 -211q0 -86 -22.5 -140.5t-76 -86t-128 -43t-191.5 -11.5l-20 46l28 44q125 0 196 13t100.5 38t36.5 70q-37 -31 -115 -31q-88 0 -142 52t-54 133q0 84 56 143.5t136 59.5zM103 370q0 -53 39 -84t115 -31q48 0 88 14q-1 108 -33.5 159.5
t-89.5 51.5q-52 0 -85.5 -31t-33.5 -79zM205 -98q23 0 39 -16t16 -39t-16 -39t-39 -16t-39 16t-16 39t16 39t39 16z" />
    <glyph glyph-name="uni06A2.medi" unicode="&#x6a2;" horiz-adv-x="513" 
d="M519 90l14 -45l-20 -45h-49q-103 0 -201 45q-98 -45 -221 -45h-42l-20 45l28 45h44q60 0 120 11q-97 79 -97 179q0 80 54 143.5t128 63.5q84 0 137.5 -62.5t53.5 -144.5q0 -98 -96 -179q57 -11 112 -11h55zM149 280q0 -99 115 -151q110 52 110 151q0 48 -32.5 82.5
t-79.5 34.5q-48 0 -80.5 -34.5t-32.5 -82.5zM262 -98q23 0 39 -16t16 -39t-16 -39t-39 -16t-39 16t-16 39t16 39t39 16z" />
    <glyph glyph-name="uni06A2.fina" unicode="&#x6a2;" horiz-adv-x="964" 
d="M970 90l14 -45l-20 -45h-49q-102 0 -200 45q-141 -59 -378 -59q-159 0 -225.5 49t-66.5 157q0 84 37 159l63 -21q-21 -66 -21 -125q0 -71 48.5 -100t171.5 -29q165 0 279 25q-97 79 -97 179q0 80 54 143.5t128 63.5q84 0 137.5 -62.5t53.5 -144.5q0 -107 -90 -180
q50 -10 106 -10h55zM600 280q0 -97 112 -150q113 52 113 150q0 48 -32.5 82.5t-79.5 34.5q-48 0 -80.5 -34.5t-32.5 -82.5zM713 -98q23 0 39 -16t16 -39t-16 -39t-39 -16t-39 16t-16 39t16 39t39 16z" />
    <glyph glyph-name="uni06A3.init" unicode="&#x6a3;" horiz-adv-x="473" 
d="M219 634q-23 0 -39 16t-16 39t16 39t39 16t39 -16t16 -39t-16 -39t-39 -16zM222 568q86 0 141 -76t55 -211q0 -86 -22.5 -140.5t-76 -86t-128 -43t-191.5 -11.5l-20 46l28 44q125 0 196 13t100.5 38t36.5 70q-37 -31 -115 -31q-88 0 -142 52t-54 133q0 84 56 143.5
t136 59.5zM103 370q0 -53 39 -84t115 -31q48 0 88 14q-1 108 -33.5 159.5t-89.5 51.5q-52 0 -85.5 -31t-33.5 -79zM204 -98q23 0 39 -16t16 -39t-16 -39t-39 -16t-39 16t-16 39t16 39t39 16z" />
    <glyph glyph-name="uni06A3.medi" unicode="&#x6a3;" horiz-adv-x="513" 
d="M255 552q-23 0 -39 16t-16 39t16 39t39 16t39 -16t16 -39t-16 -39t-39 -16zM519 90l14 -45l-20 -45h-49q-103 0 -201 45q-98 -45 -221 -45h-42l-20 45l28 45h44q60 0 120 11q-97 79 -97 179q0 80 54 143.5t128 63.5q84 0 137.5 -62.5t53.5 -144.5q0 -98 -96 -179
q57 -11 112 -11h55zM149 280q0 -99 115 -151q110 52 110 151q0 48 -32.5 82.5t-79.5 34.5q-48 0 -80.5 -34.5t-32.5 -82.5zM259 -98q23 0 39 -16t16 -39t-16 -39t-39 -16t-39 16t-16 39t16 39t39 16z" />
    <glyph glyph-name="uni06A3.fina" unicode="&#x6a3;" horiz-adv-x="964" 
d="M706 552q-23 0 -39 16t-16 39t16 39t39 16t39 -16t16 -39t-16 -39t-39 -16zM970 90l14 -45l-20 -45h-49q-102 0 -200 45q-141 -59 -378 -59q-159 0 -225.5 49t-66.5 157q0 84 37 159l63 -21q-21 -66 -21 -125q0 -71 48.5 -100t171.5 -29q165 0 279 25q-97 79 -97 179
q0 80 54 143.5t128 63.5q84 0 137.5 -62.5t53.5 -144.5q0 -107 -90 -180q50 -10 106 -10h55zM600 280q0 -97 112 -150q113 52 113 150q0 48 -32.5 82.5t-79.5 34.5q-48 0 -80.5 -34.5t-32.5 -82.5zM709 -98q23 0 39 -16t16 -39t-16 -39t-39 -16t-39 16t-16 39t16 39t39 16z
" />
    <glyph glyph-name="uni06A5.init" unicode="&#x6a5;" horiz-adv-x="473" 
d="M222 568q86 0 141 -76t55 -211q0 -86 -22.5 -140.5t-76 -86t-128 -43t-191.5 -11.5l-20 46l28 44q125 0 196 13t100.5 38t36.5 70q-37 -31 -115 -31q-88 0 -142 52t-54 133q0 84 56 143.5t136 59.5zM103 370q0 -53 39 -84t115 -31q48 0 88 14q-1 108 -33.5 159.5
t-89.5 51.5q-52 0 -85.5 -31t-33.5 -79zM172 -144q0 -21 -15.5 -36t-35.5 -15q-22 0 -37 15t-15 36t15 36t37 15q20 0 35.5 -15t15.5 -36zM289 -93q22 0 37 -15t15 -36t-15 -36t-37 -15q-20 0 -35.5 15t-15.5 36t15.5 36t35.5 15zM205 -215q20 0 35.5 -15t15.5 -36
t-15.5 -36t-35.5 -15t-35.5 15t-15.5 36t15.5 36t35.5 15z" />
    <glyph glyph-name="uni06A5.medi" unicode="&#x6a5;" horiz-adv-x="513" 
d="M519 90l14 -45l-20 -45h-49q-103 0 -201 45q-98 -45 -221 -45h-42l-20 45l28 45h44q60 0 120 11q-97 79 -97 179q0 80 54 143.5t128 63.5q84 0 137.5 -62.5t53.5 -144.5q0 -98 -96 -179q57 -11 112 -11h55zM149 280q0 -99 115 -151q110 52 110 151q0 48 -32.5 82.5
t-79.5 34.5q-48 0 -80.5 -34.5t-32.5 -82.5zM229 -144q0 -21 -15.5 -36t-35.5 -15q-22 0 -37 15t-15 36t15 36t37 15q20 0 35.5 -15t15.5 -36zM346 -93q22 0 37 -15t15 -36t-15 -36t-37 -15q-20 0 -35.5 15t-15.5 36t15.5 36t35.5 15zM262 -215q20 0 35.5 -15t15.5 -36
t-15.5 -36t-35.5 -15t-35.5 15t-15.5 36t15.5 36t35.5 15z" />
    <glyph glyph-name="uni06A5.fina" unicode="&#x6a5;" horiz-adv-x="964" 
d="M970 90l14 -45l-20 -45h-49q-102 0 -200 45q-141 -59 -378 -59q-159 0 -225.5 49t-66.5 157q0 84 37 159l63 -21q-21 -66 -21 -125q0 -71 48.5 -100t171.5 -29q165 0 279 25q-97 79 -97 179q0 80 54 143.5t128 63.5q84 0 137.5 -62.5t53.5 -144.5q0 -107 -90 -180
q50 -10 106 -10h55zM600 280q0 -97 112 -150q113 52 113 150q0 48 -32.5 82.5t-79.5 34.5q-48 0 -80.5 -34.5t-32.5 -82.5zM680 -144q0 -21 -15.5 -36t-35.5 -15q-22 0 -37 15t-15 36t15 36t37 15q20 0 35.5 -15t15.5 -36zM797 -93q22 0 37 -15t15 -36t-15 -36t-37 -15
q-20 0 -35.5 15t-15.5 36t15.5 36t35.5 15zM713 -215q20 0 35.5 -15t15.5 -36t-15.5 -36t-35.5 -15t-35.5 15t-15.5 36t15.5 36t35.5 15z" />
    <glyph glyph-name="uni06A7.init" unicode="&#x6a7;" horiz-adv-x="473" 
d="M219 634q-23 0 -39 16t-16 39t16 39t39 16t39 -16t16 -39t-16 -39t-39 -16zM222 568q86 0 141 -76t55 -211q0 -86 -22.5 -140.5t-76 -86t-128 -43t-191.5 -11.5l-20 46l28 44q125 0 196 13t100.5 38t36.5 70q-37 -31 -115 -31q-88 0 -142 52t-54 133q0 84 56 143.5
t136 59.5zM103 370q0 -53 39 -84t115 -31q48 0 88 14q-1 108 -33.5 159.5t-89.5 51.5q-52 0 -85.5 -31t-33.5 -79z" />
    <glyph glyph-name="uni06A7.medi" unicode="&#x6a7;" horiz-adv-x="513" 
d="M255 552q-23 0 -39 16t-16 39t16 39t39 16t39 -16t16 -39t-16 -39t-39 -16zM519 90l14 -45l-20 -45h-49q-103 0 -201 45q-98 -45 -221 -45h-42l-20 45l28 45h44q60 0 120 11q-97 79 -97 179q0 80 54 143.5t128 63.5q84 0 137.5 -62.5t53.5 -144.5q0 -98 -96 -179
q57 -11 112 -11h55zM149 280q0 -99 115 -151q110 52 110 151q0 48 -32.5 82.5t-79.5 34.5q-48 0 -80.5 -34.5t-32.5 -82.5z" />
    <glyph glyph-name="uni06A7.fina" unicode="&#x6a7;" horiz-adv-x="781" 
d="M510 454q-23 0 -39 16t-16 39t16 39t39 16t39 -16t16 -39t-16 -39t-39 -16zM801 46l-20 -46h-79q-17 -130 -93 -194.5t-236 -64.5q-172 0 -250 64t-78 185q0 100 47 196l63 -19q-28 -77 -28 -164q0 -83 58 -127.5t196 -44.5q125 0 180.5 45t68.5 124h-63
q-128 0 -187 49.5t-59 135.5q0 84 56 143.5t136 59.5q86 0 140.5 -76t54.5 -211v-11h81zM548 90h88q-1 107 -34 158.5t-89 51.5q-52 0 -86 -31.5t-34 -78.5q0 -100 155 -100z" />
    <glyph glyph-name="uni06A8.init" unicode="&#x6a8;" horiz-adv-x="473" 
d="M222 759q-20 0 -35.5 15t-15.5 36t15.5 36t35.5 15t35.5 -15t15.5 -36t-15.5 -36t-35.5 -15zM138 637q-22 0 -37 15t-15 36t15 36t37 15q20 0 35.5 -15t15.5 -36t-15.5 -36t-35.5 -15zM255 688q0 21 15.5 36t35.5 15q22 0 37 -15t15 -36t-15 -36t-37 -15q-20 0 -35.5 15
t-15.5 36zM222 568q86 0 141 -76t55 -211q0 -86 -22.5 -140.5t-76 -86t-128 -43t-191.5 -11.5l-20 46l28 44q125 0 196 13t100.5 38t36.5 70q-37 -31 -115 -31q-88 0 -142 52t-54 133q0 84 56 143.5t136 59.5zM103 370q0 -53 39 -84t115 -31q48 0 88 14q-1 108 -33.5 159.5
t-89.5 51.5q-52 0 -85.5 -31t-33.5 -79z" />
    <glyph glyph-name="uni06A8.medi" unicode="&#x6a8;" horiz-adv-x="513" 
d="M258 677q-20 0 -35.5 15t-15.5 36t15.5 36t35.5 15t35.5 -15t15.5 -36t-15.5 -36t-35.5 -15zM174 555q-22 0 -37 15t-15 36t15 36t37 15q20 0 35.5 -15t15.5 -36t-15.5 -36t-35.5 -15zM291 606q0 21 15.5 36t35.5 15q22 0 37 -15t15 -36t-15 -36t-37 -15q-20 0 -35.5 15
t-15.5 36zM519 90l14 -45l-20 -45h-49q-103 0 -201 45q-98 -45 -221 -45h-42l-20 45l28 45h44q60 0 120 11q-97 79 -97 179q0 80 54 143.5t128 63.5q84 0 137.5 -62.5t53.5 -144.5q0 -98 -96 -179q57 -11 112 -11h55zM149 280q0 -99 115 -151q110 52 110 151
q0 48 -32.5 82.5t-79.5 34.5q-48 0 -80.5 -34.5t-32.5 -82.5z" />
    <glyph glyph-name="uni06A8.fina" unicode="&#x6a8;" horiz-adv-x="781" 
d="M513 579q-20 0 -35.5 15t-15.5 36t15.5 36t35.5 15t35.5 -15t15.5 -36t-15.5 -36t-35.5 -15zM429 457q-22 0 -37 15t-15 36t15 36t37 15q20 0 35.5 -15t15.5 -36t-15.5 -36t-35.5 -15zM546 508q0 21 15.5 36t35.5 15q22 0 37 -15t15 -36t-15 -36t-37 -15q-20 0 -35.5 15
t-15.5 36zM801 46l-20 -46h-79q-17 -130 -93 -194.5t-236 -64.5q-172 0 -250 64t-78 185q0 100 47 196l63 -19q-28 -77 -28 -164q0 -83 58 -127.5t196 -44.5q125 0 180.5 45t68.5 124h-63q-128 0 -187 49.5t-59 135.5q0 84 56 143.5t136 59.5q86 0 140.5 -76t54.5 -211v-11
h81zM548 90h88q-1 107 -34 158.5t-89 51.5q-52 0 -86 -31.5t-34 -78.5q0 -100 155 -100z" />
    <glyph glyph-name="uni06AA.init" unicode="&#x6aa;" horiz-adv-x="1200" 
d="M852 372q293 0 293 -179q0 -79 -104 -123q-167 -70 -656 -70h-385l-20 44l28 46h361q699 0 699 106q0 93 -216 92q-100 -1 -267 -12.5t-253 -11.5q-148 0 -230 17l9 75q35 107 129.5 186.5t229.5 108.5l-20 -88q-89 -22 -162.5 -77t-110.5 -130q100 -8 165 -8
q91 0 255 12t255 12z" />
    <glyph glyph-name="uni06AA.medi" unicode="&#x6aa;" horiz-adv-x="1282" 
d="M1290 90l12 -43l-20 -47q-84 0 -130.5 29t-48.5 75v4q-26 -23 -62 -38q-167 -70 -656 -70h-385l-20 44l28 46h361q699 0 699 106q0 93 -216 92q-100 -1 -267 -12.5t-253 -11.5q-148 0 -230 17l9 75q35 107 129.5 186.5t229.5 108.5l-20 -88q-89 -22 -162.5 -77
t-110.5 -130q100 -8 165 -8q91 0 255 12t255 12q292 0 293 -177q0 -60 31 -82.5t114 -22.5z" />
    <glyph glyph-name="uni06AA.fina" unicode="&#x6aa;" horiz-adv-x="1347" 
d="M1355 90l12 -43l-20 -47q-84 0 -130.5 29t-48.5 75v4q-26 -23 -62 -38q-167 -70 -656 -70h-384l-26 90h394q699 0 699 106q0 93 -216 92q-100 -1 -267 -12.5t-253 -11.5q-148 0 -230 17l9 75q36 107 130.5 186.5t229.5 108.5l-20 -88q-90 -22 -163.5 -77t-109.5 -130
q98 -8 164 -8q91 0 255 12t255 12q292 0 293 -177q0 -60 31 -82.5t114 -22.5z" />
    <glyph glyph-name="uni06AB.init" unicode="&#x6ab;" horiz-adv-x="466" 
d="M421 770l-5 -95l-82 -48q21 -11 34 -31.5t13 -44.5q0 -35 -23.5 -59.5t-62.5 -24.5q-37 0 -62 24.5t-25 59.5v1l-114 -67q156 -70 210 -129.5t54 -140.5q0 -215 -358 -215l-20 45l28 45q105 0 167 18t83.5 46t21.5 71q0 32 -18.5 59.5t-82 67.5t-179.5 89l19 85zM295 514
q18 0 29 11t11 26q0 16 -11.5 26.5t-28.5 10.5t-28.5 -10.5t-11.5 -26.5q0 -14 11 -25.5t29 -11.5z" />
    <glyph glyph-name="uni06AB.medi" unicode="&#x6ab;" horiz-adv-x="549" 
d="M557 90l12 -43l-20 -47q-90 0 -153 36t-129 133q-5 -76 -74.5 -122.5t-192.5 -46.5l-20 45l28 45q95 0 142 28t47 78q0 63 -68 148l-80 100l18 81l402 245l-5 -95l-88 -52q40 -25 40 -72q0 -35 -23.5 -59.5t-62.5 -24.5q-36 0 -60.5 23t-26.5 55l-115 -68l184 -232
q58 -73 88.5 -102t64 -41t92.5 -12zM330 514q18 0 29 11t11 26q0 16 -11.5 26.5t-28.5 10.5t-28.5 -10.5t-11.5 -26.5q0 -14 11 -25.5t29 -11.5z" />
    <glyph glyph-name="uni06AB.fina" unicode="&#x6ab;" horiz-adv-x="998" 
d="M1006 90l12 -43l-20 -47q-90 0 -153 36t-129 133q-13 -183 -379 -183q-159 0 -225.5 49t-66.5 157q0 84 37 159l63 -21q-21 -66 -21 -125q0 -71 48.5 -100t172.5 -29q89 0 150.5 9.5t93 27t44.5 37.5t13 46q0 63 -68 148l-80 100l18 81l402 245l-5 -95l-90 -53
q38 -25 38 -71q0 -35 -23.5 -59.5t-62.5 -24.5q-35 0 -59 22t-28 54l-111 -66l184 -232q58 -73 88.5 -102t64 -41t92.5 -12zM775 588q-4 0 -12 -2l-19 -11q-9 -9 -9 -24q0 -14 11 -25.5t29 -11.5t29 11t11 26q0 16 -11.5 26.5t-28.5 10.5z" />
    <glyph glyph-name="uni06AC.init" unicode="&#x6ac;" horiz-adv-x="466" 
d="M56 698q-23 0 -39 16t-16 39t16 39t39 16t39 -16t16 -39t-16 -39t-39 -16zM421 770l-5 -95l-322 -190q156 -70 210 -129.5t54 -140.5q0 -215 -358 -215l-20 45l28 45q105 0 167 18t83.5 46t21.5 71q0 32 -18.5 59.5t-82 67.5t-179.5 89l19 85z" />
    <glyph glyph-name="uni06AC.medi" unicode="&#x6ac;" horiz-adv-x="549" 
d="M96 698q-23 0 -39 16t-16 39t16 39t39 16t39 -16t16 -39t-16 -39t-39 -16zM557 90l12 -43l-20 -47q-90 0 -153 36t-129 133q-5 -76 -74.5 -122.5t-192.5 -46.5l-20 45l28 45q95 0 142 28t47 78q0 63 -68 148l-80 100l18 81l402 245l-5 -95l-336 -198l184 -232
q58 -73 88.5 -102t64 -41t92.5 -12z" />
    <glyph glyph-name="uni06AC.fina" unicode="&#x6ac;" horiz-adv-x="834" 
d="M701 836q-23 0 -39 16t-16 39t16 39t39 16t39 -16t16 -39t-16 -39t-39 -16zM842 90l12 -43l-20 -47q-47 0 -78.5 18t-58.5 57q-70 -45 -154 -67t-206 -22q-159 0 -225.5 49t-66.5 157q0 84 37 159l63 -21q-21 -66 -21 -125q0 -71 48.5 -100t172.5 -29q185 0 317 78v605
l84 11v-573q0 -57 19.5 -82t76.5 -25zM290 326q142 0 142 33q0 15 -22 25.5t-90 24.5l11 60l166 98l-4 -64l-102 -58q54 -16 76.5 -36t22.5 -50q0 -89 -191 -89z" />
    <glyph glyph-name="uni06AE.init" unicode="&#x6ae;" horiz-adv-x="466" 
d="M421 770l-5 -95l-322 -190q156 -70 210 -129.5t54 -140.5q0 -215 -358 -215l-20 45l28 45q105 0 167 18t83.5 46t21.5 71q0 32 -18.5 59.5t-82 67.5t-179.5 89l19 85zM79 -144q0 -21 -15.5 -36t-35.5 -15q-22 0 -37 15t-15 36t15 36t37 15q20 0 35.5 -15t15.5 -36z
M196 -93q22 0 37 -15t15 -36t-15 -36t-37 -15q-20 0 -35.5 15t-15.5 36t15.5 36t35.5 15zM112 -215q20 0 35.5 -15t15.5 -36t-15.5 -36t-35.5 -15t-35.5 15t-15.5 36t15.5 36t35.5 15z" />
    <glyph glyph-name="uni06AE.medi" unicode="&#x6ae;" horiz-adv-x="549" 
d="M557 90l12 -43l-20 -47q-90 0 -153 36t-129 133q-5 -76 -74.5 -122.5t-192.5 -46.5l-20 45l28 45q95 0 142 28t47 78q0 63 -68 148l-80 100l18 81l402 245l-5 -95l-336 -198l184 -232q58 -73 88.5 -102t64 -41t92.5 -12zM254 -144q0 -21 -15.5 -36t-35.5 -15
q-22 0 -37 15t-15 36t15 36t37 15q20 0 35.5 -15t15.5 -36zM371 -93q22 0 37 -15t15 -36t-15 -36t-37 -15q-20 0 -35.5 15t-15.5 36t15.5 36t35.5 15zM287 -215q20 0 35.5 -15t15.5 -36t-15.5 -36t-35.5 -15t-35.5 15t-15.5 36t15.5 36t35.5 15z" />
    <glyph glyph-name="uni06AE.fina" unicode="&#x6ae;" horiz-adv-x="834" 
d="M842 90l12 -43l-20 -47q-47 0 -78.5 18t-58.5 57q-70 -45 -154 -67t-206 -22q-159 0 -225.5 49t-66.5 157q0 84 37 159l63 -21q-21 -66 -21 -125q0 -71 48.5 -100t172.5 -29q185 0 317 78v605l84 11v-573q0 -57 19.5 -82t76.5 -25zM290 326q142 0 142 33q0 15 -22 25.5
t-90 24.5l11 60l166 98l-4 -64l-102 -58q54 -16 76.5 -36t22.5 -50q0 -89 -191 -89zM344 -144q0 -21 -15.5 -36t-35.5 -15q-22 0 -37 15t-15 36t15 36t37 15q20 0 35.5 -15t15.5 -36zM461 -93q22 0 37 -15t15 -36t-15 -36t-37 -15q-20 0 -35.5 15t-15.5 36t15.5 36t35.5 15z
M377 -215q20 0 35.5 -15t15.5 -36t-15.5 -36t-35.5 -15t-35.5 15t-15.5 36t15.5 36t35.5 15z" />
    <glyph glyph-name="uni06B0.init" unicode="&#x6b0;" horiz-adv-x="466" 
d="M418 883l-4 -67l-393 -237l17 72zM421 770l-5 -95l-75 -44q45 -25 45 -75q0 -35 -23.5 -59.5t-62.5 -24.5q-37 0 -62 24.5t-25 58.5l-119 -70q156 -70 210 -129.5t54 -140.5q0 -215 -358 -215l-20 45l28 45q105 0 167 18t83.5 46t21.5 71q0 32 -18.5 59.5t-82 67.5
t-179.5 89l19 85zM300 519q18 0 29 11t11 26q0 16 -11.5 26.5t-28.5 10.5t-28.5 -10.5t-11.5 -26.5q0 -14 11 -25.5t29 -11.5z" />
    <glyph glyph-name="uni06B0.medi" unicode="&#x6b0;" horiz-adv-x="549" 
d="M458 883l-4 -67l-393 -237l17 72zM557 90l12 -43l-20 -47q-90 0 -153 36t-129 133q-5 -76 -74.5 -122.5t-192.5 -46.5l-20 45l28 45q95 0 142 28t47 78q0 63 -68 148l-80 100l18 81l402 245l-5 -95l-79 -46q41 -25 41 -73q0 -35 -23.5 -59.5t-62.5 -24.5q-36 0 -60.5 23
t-26.5 56l-125 -74l184 -232q58 -73 88.5 -102t64 -41t92.5 -12zM340 519q18 0 29 11t11 26q0 16 -11.5 26.5t-28.5 10.5t-28.5 -10.5t-11.5 -26.5q0 -14 11 -25.5t29 -11.5z" />
    <glyph glyph-name="uni06B0.fina" unicode="&#x6b0;" horiz-adv-x="998" 
d="M918 883l-4 -67l-393 -237l17 72zM1006 90l12 -43l-20 -47q-90 0 -153 36t-129 133q-13 -183 -379 -183q-159 0 -225.5 49t-66.5 157q0 84 37 159l63 -21q-21 -66 -21 -125q0 -71 48.5 -100t172.5 -29q89 0 150.5 9.5t93 27t44.5 37.5t13 46q0 63 -68 148l-80 100l18 81
l402 245l-5 -95l-78 -46q41 -25 41 -73q0 -35 -23.5 -59.5t-62.5 -24.5q-36 0 -60.5 23t-26.5 56l-126 -74l184 -232q58 -73 88.5 -102t64 -41t92.5 -12zM790 519q18 0 29 11t11 26q0 16 -11.5 26.5t-28.5 10.5t-28.5 -10.5t-11.5 -26.5q0 -14 11 -25.5t29 -11.5z" />
    <glyph glyph-name="uni06B2.init" unicode="&#x6b2;" horiz-adv-x="466" 
d="M418 883l-4 -67l-393 -237l17 72zM421 770l-5 -95l-322 -190q156 -70 210 -129.5t54 -140.5q0 -215 -358 -215l-20 45l28 45q105 0 167 18t83.5 46t21.5 71q0 32 -18.5 59.5t-82 67.5t-179.5 89l19 85zM34 -91q22 0 37 -15t15 -37t-15 -37t-37 -15q-21 0 -36.5 15
t-15.5 37t15.5 37t36.5 15zM189 -91q21 0 36.5 -15t15.5 -37t-15.5 -37t-36.5 -15q-22 0 -37 15t-15 37t15 37t37 15z" />
    <glyph glyph-name="uni06B2.medi" unicode="&#x6b2;" horiz-adv-x="549" 
d="M458 883l-4 -67l-393 -237l17 72zM557 90l12 -43l-20 -47q-90 0 -153 36t-129 133q-5 -76 -74.5 -122.5t-192.5 -46.5l-20 45l28 45q95 0 142 28t47 78q0 63 -68 148l-80 100l18 81l402 245l-5 -95l-336 -198l184 -232q58 -73 88.5 -102t64 -41t92.5 -12zM209 -91
q22 0 37 -15t15 -37t-15 -37t-37 -15q-21 0 -36.5 15t-15.5 37t15.5 37t36.5 15zM364 -91q21 0 36.5 -15t15.5 -37t-15.5 -37t-36.5 -15q-22 0 -37 15t-15 37t15 37t37 15z" />
    <glyph glyph-name="uni06B2.fina" unicode="&#x6b2;" horiz-adv-x="998" 
d="M918 883l-4 -67l-393 -237l17 72zM1006 90l12 -43l-20 -47q-90 0 -153 36t-129 133q-13 -183 -379 -183q-159 0 -225.5 49t-66.5 157q0 84 37 159l63 -21q-21 -66 -21 -125q0 -71 48.5 -100t172.5 -29q89 0 150.5 9.5t93 27t44.5 37.5t13 46q0 63 -68 148l-80 100l18 81
l402 245l-5 -95l-336 -198l184 -232q58 -73 88.5 -102t64 -41t92.5 -12zM301 -91q22 0 37 -15t15 -37t-15 -37t-37 -15q-21 0 -36.5 15t-15.5 37t15.5 37t36.5 15zM456 -91q21 0 36.5 -15t15.5 -37t-15.5 -37t-36.5 -15q-22 0 -37 15t-15 37t15 37t37 15z" />
    <glyph glyph-name="uni06B4.init" unicode="&#x6b4;" horiz-adv-x="466" 
d="M48 894q-20 0 -35.5 15t-15.5 36t15.5 36t35.5 15t35.5 -15t15.5 -36t-15.5 -36t-35.5 -15zM21 579l17 72l380 232l-4 -67zM15 823q0 -21 -15.5 -36t-35.5 -15q-22 0 -37 15t-15 36t15 36t37 15q20 0 35.5 -15t15.5 -36zM81 823q0 21 15.5 36t35.5 15q22 0 37 -15t15 -36
t-15 -36t-37 -15q-20 0 -35.5 15t-15.5 36zM421 770l-5 -95l-322 -190q156 -70 210 -129.5t54 -140.5q0 -215 -358 -215l-20 45l28 45q105 0 167 18t83.5 46t21.5 71q0 32 -18.5 59.5t-82 67.5t-179.5 89l19 85z" />
    <glyph glyph-name="uni06B4.medi" unicode="&#x6b4;" horiz-adv-x="549" 
d="M91 894q-20 0 -35.5 15t-15.5 36t15.5 36t35.5 15t35.5 -15t15.5 -36t-15.5 -36t-35.5 -15zM61 579l17 72l380 232l-4 -67zM58 823q0 -21 -15.5 -36t-35.5 -15q-22 0 -37 15t-15 36t15 36t37 15q20 0 35.5 -15t15.5 -36zM124 823q0 21 15.5 36t35.5 15q22 0 37 -15
t15 -36t-15 -36t-37 -15q-20 0 -35.5 15t-15.5 36zM557 90l12 -43l-20 -47q-90 0 -153 36t-129 133q-5 -76 -74.5 -122.5t-192.5 -46.5l-20 45l28 45q95 0 142 28t47 78q0 63 -68 148l-80 100l18 81l402 245l-5 -95l-336 -198l184 -232q58 -73 88.5 -102t64 -41t92.5 -12z
" />
    <glyph glyph-name="uni06B4.fina" unicode="&#x6b4;" horiz-adv-x="998" 
d="M547 894q-20 0 -35.5 15t-15.5 36t15.5 36t35.5 15t35.5 -15t15.5 -36t-15.5 -36t-35.5 -15zM521 579l17 72l380 232l-4 -67zM463 772q-22 0 -37 15t-15 36t15 36t37 15q20 0 35.5 -15t15.5 -36t-15.5 -36t-35.5 -15zM580 823q0 21 15.5 36t35.5 15q22 0 37 -15t15 -36
t-15 -36t-37 -15q-20 0 -35.5 15t-15.5 36zM1006 90l12 -43l-20 -47q-90 0 -153 36t-129 133q-13 -183 -379 -183q-159 0 -225.5 49t-66.5 157q0 84 37 159l63 -21q-21 -66 -21 -125q0 -71 48.5 -100t172.5 -29q89 0 150.5 9.5t93 27t44.5 37.5t13 46q0 63 -68 148l-80 100
l18 81l402 245l-5 -95l-336 -198l184 -232q58 -73 88.5 -102t64 -41t92.5 -12z" />
    <glyph glyph-name="uni06B5.init" unicode="&#x6b5;" horiz-adv-x="242" 
d="M74 975l56 -95l56 95l45 -18l-78 -142h-48l-76 142zM0 0l-20 45l28 45q44 0 62 26t18 89v551l84 10v-565q0 -117 -43.5 -159t-128.5 -42z" />
    <glyph glyph-name="uni06B5.medi" unicode="&#x6b5;" horiz-adv-x="252" 
d="M149 810h-48l-76 142l45 18l56 -95l56 95l45 -18zM260 90l12 -45l-20 -45q-85 0 -125 58q-21 -34 -52 -46t-75 -12l-20 45l28 45q28 0 44 5.5t22.5 20t8 26.5t1.5 39v575l84 11v-586q0 -47 21.5 -69t70.5 -22z" />
    <glyph glyph-name="uni06B5.fina" unicode="&#x6b5;" horiz-adv-x="706" 
d="M600 810h-48l-76 142l45 18l56 -95l56 95l45 -18zM726 47l-20 -47q-57 0 -90 30q-7 -72 -33.5 -121.5t-69.5 -76t-91.5 -37.5t-111.5 -11q-136 0 -200.5 66t-64.5 183q0 100 47 196l63 -19q-28 -77 -28 -164q0 -172 191 -172q119 0 168 48t49 158v676l84 10v-571
q0 -61 21.5 -83t73.5 -22z" />
    <glyph glyph-name="uni06B6.init" unicode="&#x6b6;" horiz-adv-x="242" 
d="M127 841q-23 0 -39 16t-16 39t16 39t39 16t39 -16t16 -39t-16 -39t-39 -16zM0 0l-20 45l28 45q44 0 62 26t18 89v551l84 10v-565q0 -117 -43.5 -159t-128.5 -42z" />
    <glyph glyph-name="uni06B6.medi" unicode="&#x6b6;" horiz-adv-x="252" 
d="M123 836q-23 0 -39 16t-16 39t16 39t39 16t39 -16t16 -39t-16 -39t-39 -16zM260 90l12 -45l-20 -45q-85 0 -125 58q-21 -34 -52 -46t-75 -12l-20 45l28 45q28 0 44 5.5t22.5 20t8 26.5t1.5 39v575l84 11v-586q0 -47 21.5 -69t70.5 -22z" />
    <glyph glyph-name="uni06B6.fina" unicode="&#x6b6;" horiz-adv-x="706" 
d="M574 836q-23 0 -39 16t-16 39t16 39t39 16t39 -16t16 -39t-16 -39t-39 -16zM726 47l-20 -47q-57 0 -90 30q-7 -72 -33.5 -121.5t-69.5 -76t-91.5 -37.5t-111.5 -11q-136 0 -200.5 66t-64.5 183q0 100 47 196l63 -19q-28 -77 -28 -164q0 -172 191 -172q119 0 168 48
t49 158v676l84 10v-571q0 -61 21.5 -83t73.5 -22z" />
    <glyph glyph-name="uni06B7.init" unicode="&#x6b7;" horiz-adv-x="242" 
d="M130 966q-20 0 -35.5 15t-15.5 36t15.5 36t35.5 15t35.5 -15t15.5 -36t-15.5 -36t-35.5 -15zM46 844q-22 0 -37 15t-15 36t15 36t37 15q20 0 35.5 -15t15.5 -36t-15.5 -36t-35.5 -15zM214 844q-20 0 -35.5 15t-15.5 36t15.5 36t35.5 15q22 0 37 -15t15 -36t-15 -36
t-37 -15zM0 0l-20 45l28 45q44 0 62 26t18 89v551l84 10v-565q0 -117 -43.5 -159t-128.5 -42z" />
    <glyph glyph-name="uni06B7.medi" unicode="&#x6b7;" horiz-adv-x="252" 
d="M126 961q-20 0 -35.5 15t-15.5 36t15.5 36t35.5 15t35.5 -15t15.5 -36t-15.5 -36t-35.5 -15zM42 839q-22 0 -37 15t-15 36t15 36t37 15q20 0 35.5 -15t15.5 -36t-15.5 -36t-35.5 -15zM159 890q0 21 15.5 36t35.5 15q22 0 37 -15t15 -36t-15 -36t-37 -15q-20 0 -35.5 15
t-15.5 36zM260 90l12 -45l-20 -45q-85 0 -125 58q-21 -34 -52 -46t-75 -12l-20 45l28 45q28 0 44 5.5t22.5 20t8 26.5t1.5 39v575l84 11v-586q0 -47 21.5 -69t70.5 -22z" />
    <glyph glyph-name="uni06B7.fina" unicode="&#x6b7;" horiz-adv-x="706" 
d="M577 961q-20 0 -35.5 15t-15.5 36t15.5 36t35.5 15t35.5 -15t15.5 -36t-15.5 -36t-35.5 -15zM493 839q-22 0 -37 15t-15 36t15 36t37 15q20 0 35.5 -15t15.5 -36t-15.5 -36t-35.5 -15zM610 890q0 21 15.5 36t35.5 15q22 0 37 -15t15 -36t-15 -36t-37 -15q-20 0 -35.5 15
t-15.5 36zM726 47l-20 -47q-57 0 -90 30q-7 -72 -33.5 -121.5t-69.5 -76t-91.5 -37.5t-111.5 -11q-136 0 -200.5 66t-64.5 183q0 100 47 196l63 -19q-28 -77 -28 -164q0 -172 191 -172q119 0 168 48t49 158v676l84 10v-571q0 -61 21.5 -83t73.5 -22z" />
    <glyph glyph-name="uni06B8.init" unicode="&#x6b8;" horiz-adv-x="242" 
d="M0 0l-20 45l28 45q44 0 62 26t18 89v551l84 10v-565q0 -117 -43.5 -159t-128.5 -42zM43 -93q20 0 35.5 -15t15.5 -36t-15.5 -36t-35.5 -15q-22 0 -37 15t-15 36t15 36t37 15zM211 -93q22 0 37 -15t15 -36t-15 -36t-37 -15q-20 0 -35.5 15t-15.5 36t15.5 36t35.5 15z
M127 -215q20 0 35.5 -15t15.5 -36t-15.5 -36t-35.5 -15t-35.5 15t-15.5 36t15.5 36t35.5 15z" />
    <glyph glyph-name="uni06B8.medi" unicode="&#x6b8;" horiz-adv-x="252" 
d="M127 58q-21 -34 -52 -46t-75 -12l-20 45l28 45q28 0 44 5.5t22.5 20t8 26.5t1.5 39v575l84 11v-586q0 -47 21.5 -69t70.5 -22l12 -45l-20 -45q-85 0 -125 58zM93 -144q0 -21 -15.5 -36t-35.5 -15q-22 0 -37 15t-15 36t15 36t37 15q20 0 35.5 -15t15.5 -36zM210 -93
q22 0 37 -15t15 -36t-15 -36t-37 -15q-20 0 -35.5 15t-15.5 36t15.5 36t35.5 15zM126 -215q20 0 35.5 -15t15.5 -36t-15.5 -36t-35.5 -15t-35.5 15t-15.5 36t15.5 36t35.5 15z" />
    <glyph glyph-name="uni06B8.fina" unicode="&#x6b8;" horiz-adv-x="706" 
d="M726 47l-20 -47q-57 0 -90 30q-7 -72 -33.5 -121.5t-69.5 -76t-91.5 -37.5t-111.5 -11q-136 0 -200.5 66t-64.5 183q0 100 47 196l63 -19q-28 -77 -28 -164q0 -172 191 -172q119 0 168 48t49 158v676l84 10v-571q0 -61 21.5 -83t73.5 -22zM277 -360q0 -21 -15.5 -36
t-35.5 -15q-22 0 -37 15t-15 36t15 36t37 15q20 0 35.5 -15t15.5 -36zM394 -309q22 0 37 -15t15 -36t-15 -36t-37 -15q-20 0 -35.5 15t-15.5 36t15.5 36t35.5 15zM310 -431q20 0 35.5 -15t15.5 -36t-15.5 -36t-35.5 -15t-35.5 15t-15.5 36t15.5 36t35.5 15z" />
    <glyph glyph-name="uni06B9.init" unicode="&#x6b9;" horiz-adv-x="292" 
d="M124 482q-23 0 -39 16t-16 39t16 39t39 16t39 -16t16 -39t-16 -39t-39 -16zM8 90q91 0 119 20t28 77q0 68 -46 200l86 28q42 -126 42 -233q0 -106 -50 -144t-187 -38l-20 45zM141 -208q-23 0 -39 16t-16 39t16 39t39 16t39 -16t16 -39t-16 -39t-39 -16z" />
    <glyph glyph-name="uni06B9.medi" unicode="&#x6b9;" horiz-adv-x="346" 
d="M170 418q-23 0 -39 16t-16 39t16 39t39 16t39 -16t16 -39t-16 -39t-39 -16zM354 90l12 -45l-20 -45q-68 0 -107 16t-64 59q-23 -44 -62.5 -59.5t-112.5 -15.5l-20 45l29 45q30 0 51.5 2.5t34.5 10t20.5 14t11 22t4 25.5t0.5 33v4v4v133h84v-133q0 -34 4 -53t18 -34.5
t42 -21.5t75 -6zM173 -98q23 0 39 -16t16 -39t-16 -39t-39 -16t-39 16t-16 39t16 39t39 16z" />
    <glyph glyph-name="uni06B9.fina" unicode="&#x6b9;" horiz-adv-x="736" 
d="M312 330q-23 0 -39 16t-16 39t16 39t39 16t39 -16t16 -39t-16 -39t-39 -16zM756 45l-20 -45q-70 0 -111 37q-6 -162 -83 -229t-232 -67q-136 0 -200.5 66t-64.5 183q0 100 47 196l63 -19q-28 -77 -28 -164q0 -172 191 -172q124 0 175 49.5t51 168.5q0 57 -15 110t-50 130
l92 37q4 -16 9.5 -34t13 -40t11.5 -34q24 -75 55 -101.5t84 -26.5zM316 -343q23 0 39 -16t16 -39t-16 -39t-39 -16t-39 16t-16 39t16 39t39 16z" />
    <glyph glyph-name="uni06BC.init" unicode="&#x6bc;" horiz-adv-x="292" 
d="M124 482q-23 0 -39 16t-16 39t16 39t39 16t39 -16t16 -39t-16 -39t-39 -16zM185 36q26 -24 26 -61q0 -35 -23.5 -59.5t-62.5 -24.5q-37 0 -62 24.5t-25 59.5q0 15 4 26q-13 -1 -42 -1l-20 45l28 45q91 0 119 20t28 77q0 68 -46 200l86 28q42 -126 42 -233
q0 -108 -52 -146zM125 -62q18 0 29 11t11 26t-10 25t-26 12q-15 -4 -26 -5q-18 -11 -18 -32q0 -14 11 -25.5t29 -11.5z" />
    <glyph glyph-name="uni06BC.medi" unicode="&#x6bc;" horiz-adv-x="346" 
d="M170 418q-23 0 -39 16t-16 39t16 39t39 16t39 -16t16 -39t-16 -39t-39 -16zM354 90l12 -45l-20 -45q-68 0 -107 16t-64 59q-5 -10 -17 -26q40 -25 40 -72q0 -35 -23.5 -59.5t-62.5 -24.5q-38 0 -62.5 24.5t-24.5 59.5q0 12 3 24q-9 -1 -28 -1l-20 45l29 45q30 0 51.5 2.5
t34.5 10t20.5 14t11 22t4 25.5t0.5 33v4v4v133h84v-133q0 -34 4 -53t18 -34.5t42 -21.5t75 -6zM112 -60q18 0 29 11t11 26q0 16 -11.5 26.5t-28.5 10.5h-4q-12 -4 -19 -6q-17 -10 -17 -31q0 -14 11 -25.5t29 -11.5z" />
    <glyph glyph-name="uni06BC.fina" unicode="&#x6bc;" horiz-adv-x="736" 
d="M312 330q-23 0 -39 16t-16 39t16 39t39 16t39 -16t16 -39t-16 -39t-39 -16zM756 45l-20 -45q-70 0 -111 37q-5 -142 -65.5 -210.5t-178.5 -81.5q5 -15 5 -28q0 -35 -23.5 -59.5t-62.5 -24.5q-38 0 -62.5 24.5t-24.5 59.5q0 19 7 33q-175 40 -175 240q0 100 47 196l63 -19
q-28 -77 -28 -164q0 -172 191 -172q124 0 175 49.5t51 168.5q0 57 -15 110t-50 130l92 37q4 -16 9.5 -34t13 -40t11.5 -34q24 -75 55 -101.5t84 -26.5zM340 -283q0 15 -9 24h-21q-14 0 -40 2q-10 -12 -10 -26t11 -25.5t29 -11.5t29 11t11 26z" />
    <glyph glyph-name="uni06BD.init" unicode="&#x6bd;" horiz-adv-x="292" 
d="M127 607q-20 0 -35.5 15t-15.5 36t15.5 36t35.5 15t35.5 -15t15.5 -36t-15.5 -36t-35.5 -15zM43 485q-22 0 -37 15t-15 36t15 36t37 15q20 0 35.5 -15t15.5 -36t-15.5 -36t-35.5 -15zM211 485q-20 0 -35.5 15t-15.5 36t15.5 36t35.5 15q22 0 37 -15t15 -36t-15 -36
t-37 -15zM8 90q91 0 119 20t28 77q0 68 -46 200l86 28q42 -126 42 -233q0 -106 -50 -144t-187 -38l-20 45z" />
    <glyph glyph-name="uni06BD.medi" unicode="&#x6bd;" horiz-adv-x="346" 
d="M173 543q-20 0 -35.5 15t-15.5 36t15.5 36t35.5 15t35.5 -15t15.5 -36t-15.5 -36t-35.5 -15zM89 421q-22 0 -37 15t-15 36t15 36t37 15q20 0 35.5 -15t15.5 -36t-15.5 -36t-35.5 -15zM206 472q0 21 15.5 36t35.5 15q22 0 37 -15t15 -36t-15 -36t-37 -15q-20 0 -35.5 15
t-15.5 36zM354 90l12 -45l-20 -45q-68 0 -107 16t-64 59q-23 -44 -62.5 -59.5t-112.5 -15.5l-20 45l29 45q30 0 51.5 2.5t34.5 10t20.5 14t11 22t4 25.5t0.5 33v4v4v133h84v-133q0 -34 4 -53t18 -34.5t42 -21.5t75 -6z" />
    <glyph glyph-name="uni06BD.fina" unicode="&#x6bd;" horiz-adv-x="736" 
d="M315 455q-20 0 -35.5 15t-15.5 36t15.5 36t35.5 15t35.5 -15t15.5 -36t-15.5 -36t-35.5 -15zM231 333q-22 0 -37 15t-15 36t15 36t37 15q20 0 35.5 -15t15.5 -36t-15.5 -36t-35.5 -15zM348 384q0 21 15.5 36t35.5 15q22 0 37 -15t15 -36t-15 -36t-37 -15q-20 0 -35.5 15
t-15.5 36zM756 45l-20 -45q-70 0 -111 37q-6 -162 -83 -229t-232 -67q-136 0 -200.5 66t-64.5 183q0 100 47 196l63 -19q-28 -77 -28 -164q0 -172 191 -172q124 0 175 49.5t51 168.5q0 57 -15 110t-50 130l92 37q4 -16 9.5 -34t13 -40t11.5 -34q24 -75 55 -101.5t84 -26.5z
" />
    <glyph glyph-name="uni06BF.init" unicode="&#x6bf;" horiz-adv-x="706" 
d="M233 530q-23 0 -39 16t-16 39t16 39t39 16t39 -16t16 -39t-16 -39t-39 -16zM236 464q48 0 85 -9t62.5 -24t47 -34t43.5 -40.5t46.5 -41.5t62 -39t84.5 -31l-12 -78l-101 -8q-77 -6 -153.5 -32.5t-128.5 -54t-125 -50t-147 -22.5l-20 45l28 45q65 0 129.5 19t111.5 43
t119.5 48.5t146.5 32.5q-44 19 -81.5 46.5t-57.5 46.5t-57 33.5t-88 14.5q-58 0 -121 -37l-42 78q84 49 168 49zM273 -144q0 -21 -15.5 -36t-35.5 -15q-22 0 -37 15t-15 36t15 36t37 15q20 0 35.5 -15t15.5 -36zM390 -93q22 0 37 -15t15 -36t-15 -36t-37 -15q-20 0 -35.5 15
t-15.5 36t15.5 36t35.5 15zM306 -215q20 0 35.5 -15t15.5 -36t-15.5 -36t-35.5 -15t-35.5 15t-15.5 36t15.5 36t35.5 15z" />
    <glyph glyph-name="uni06BF.medi" unicode="&#x6bf;" horiz-adv-x="712" 
d="M229 530q-23 0 -39 16t-16 39t16 39t39 16t39 -16t16 -39t-16 -39t-39 -16zM720 90l12 -45l-20 -45q-213 0 -233 183q-53 -13 -117 -45.5t-112.5 -62t-116 -52.5t-133.5 -23l-20 45l28 45q63 0 127 22t112 49.5t119 57t142 40.5q-42 14 -80 36t-59.5 38t-57 28.5
t-80.5 12.5q-58 0 -121 -37l-42 78q84 49 164 49q62 0 106 -13.5t74 -36t59.5 -47t79.5 -50.5t116 -42l-12 -78l-104 -4h-5q15 -66 52.5 -84.5t121.5 -18.5zM363 -94q0 -21 -15.5 -36t-35.5 -15q-22 0 -37 15t-15 36t15 36t37 15q20 0 35.5 -15t15.5 -36zM480 -43
q22 0 37 -15t15 -36t-15 -36t-37 -15q-20 0 -35.5 15t-15.5 36t15.5 36t35.5 15zM396 -165q20 0 35.5 -15t15.5 -36t-15.5 -36t-35.5 -15t-35.5 15t-15.5 36t15.5 36t35.5 15z" />
    <glyph glyph-name="uni06BF.fina" unicode="&#x6bf;" horiz-adv-x="663" 
d="M228 530q-23 0 -39 16t-16 39t16 39t39 16t39 -16t16 -39t-16 -39t-39 -16zM663 0q-99 0 -150.5 46t-59.5 142h1q-171 -18 -253 -91t-82 -171t70.5 -149t206.5 -51q127 0 218 47l34 -79q-98 -60 -261 -60q-171 0 -256 74t-85 203q0 143 103 237.5t307 114.5
q-37 17 -79.5 47t-77 46.5t-77.5 16.5q-67 0 -130 -38l-42 78q82 51 179 51q48 0 89 -17t71.5 -42t60.5 -51.5t71.5 -49t89.5 -30.5l-10 -78l-80 -3q14 -65 43.5 -84t106.5 -19l12 -45zM276 35q20 0 35.5 -15t15.5 -36t-15.5 -36t-35.5 -15q-22 0 -37 15t-15 36t15 36t37 15
zM496 -16q0 -21 -15 -36t-37 -15q-20 0 -35.5 15t-15.5 36t15.5 36t35.5 15q22 0 37 -15t15 -36zM360 -189q-20 0 -35.5 15t-15.5 36t15.5 36t35.5 15t35.5 -15t15.5 -36t-15.5 -36t-35.5 -15z" />
    <glyph glyph-name="uni06C2.fina" unicode="&#x6c2;" horiz-adv-x="597" 
d="M170 353l-6 50l64 11q-42 37 -42 72q0 39 27 64.5t78 25.5q34 0 76 -22l-31 -49q-28 16 -52 16q-23 0 -33 -11t-10 -26q0 -27 42 -61l93 16l7 -51zM605 90l12 -45l-20 -45q-69 0 -119 22.5t-76 55t-45 64.5t-38.5 54.5t-44.5 22.5q-55 0 -92.5 -66.5t-70.5 -198.5l-86 17
q78 338 249 338q37 0 64.5 -12t45 -31.5t32.5 -42.5t30.5 -46.5t35 -43t51 -31.5t72.5 -12z" />
    <glyph glyph-name="uni06C3.fina" unicode="&#x6c3;" horiz-adv-x="597" 
d="M196 402q-21 0 -36.5 15t-15.5 37t15.5 37t36.5 15q22 0 37 -15t15 -37t-15 -37t-37 -15zM351 402q-22 0 -37 15t-15 37t15 37t37 15q21 0 36.5 -15t15.5 -37t-15.5 -37t-36.5 -15zM111 -46l-86 17q78 338 249 338q37 0 64.5 -12t45 -31.5t32.5 -42.5t30.5 -46.5t35 -43
t51 -31.5t72.5 -12l12 -45l-20 -45q-69 0 -119 22.5t-76 55t-45 64.5t-38.5 54.5t-44.5 22.5q-55 0 -92.5 -66.5t-70.5 -198.5z" />
    <glyph glyph-name="uni06C4.fina" unicode="&#x6c4;" horiz-adv-x="539" 
d="M559 46l-20 -46h-103q-25 -106 -110 -172.5t-253 -101.5l-28 87q16 3 46 11q-23 23 -23 57q0 35 25.5 60t61.5 25t61 -25t25 -60v-2q88 45 117 121h-76q-104 0 -162 52.5t-58 135.5t56 142.5t136 59.5q85 0 139.5 -73.5t54.5 -200.5v-26h99zM289 90h86v12
q0 100 -32.5 149.5t-90.5 49.5q-51 0 -84 -31t-33 -78q0 -102 154 -102zM155 -156h5q9 4 20 7q15 12 15 30q0 16 -11.5 26.5t-28.5 10.5t-28.5 -10.5t-11.5 -26.5q0 -14 11 -25.5t29 -11.5z" />
    <glyph glyph-name="uni06CA.fina" unicode="&#x6ca;" horiz-adv-x="539" 
d="M178 483q-21 0 -36.5 15t-15.5 37t15.5 37t36.5 15q22 0 37 -15t15 -37t-15 -37t-37 -15zM333 483q-22 0 -37 15t-15 37t15 37t37 15q21 0 36.5 -15t15.5 -37t-15.5 -37t-36.5 -15zM559 46l-20 -46h-103q-25 -106 -110 -172.5t-253 -101.5l-28 87q140 31 213.5 76
t99.5 111h-76q-104 0 -162 52.5t-58 135.5t56 142.5t136 59.5q85 0 139.5 -73.5t54.5 -200.5v-26h99zM289 90h86v12q0 100 -32.5 149.5t-90.5 49.5q-51 0 -84 -31t-33 -78q0 -102 154 -102z" />
    <glyph glyph-name="uni06CD.fina" unicode="&#x6cd;" horiz-adv-x="777" 
d="M797 45l-20 -45q-45 0 -84 17q7 -15 7 -35q0 -82 -92 -140t-258 -58q-136 0 -200.5 66t-64.5 183q0 55 12 98q-49 -19 -95 -25l-9 48q78 23 139 75l63 -19q-28 -77 -28 -164q0 -172 191 -172q121 0 193 37.5t72 77.5q0 27 -36.5 47.5t-134.5 48.5l39 79q30 -9 81 -26.5
t76.5 -25.5t63.5 -15t73 -7z" />
    <glyph glyph-name="uni06CE.init" unicode="&#x6ce;" horiz-adv-x="292" 
d="M71 616l56 -95l56 95l45 -18l-78 -142h-48l-76 142zM8 90q91 0 119 20t28 77q0 68 -46 200l86 28q42 -126 42 -233q0 -106 -50 -144t-187 -38l-20 45zM63 -195q-21 0 -36.5 15t-15.5 37t15.5 37t36.5 15q22 0 37 -15t15 -37t-15 -37t-37 -15zM218 -195q-22 0 -37 15
t-15 37t15 37t37 15q21 0 36.5 -15t15.5 -37t-15.5 -37t-36.5 -15z" />
    <glyph glyph-name="uni06CE.medi" unicode="&#x6ce;" horiz-adv-x="346" 
d="M196 392h-48l-76 142l45 18l56 -95l56 95l45 -18zM354 90l12 -45l-20 -45q-68 0 -107 16t-64 59q-23 -44 -62.5 -59.5t-112.5 -15.5l-20 45l29 45q30 0 51.5 2.5t34.5 10t20.5 14t11 22t4 25.5t0.5 33v4v4v133h84v-133q0 -34 4 -53t18 -34.5t42 -21.5t75 -6zM95 -91
q22 0 37 -15t15 -37t-15 -37t-37 -15q-21 0 -36.5 15t-15.5 37t15.5 37t36.5 15zM250 -91q21 0 36.5 -15t15.5 -37t-15.5 -37t-36.5 -15q-22 0 -37 15t-15 37t15 37t37 15z" />
    <glyph glyph-name="uni06CE.fina" unicode="&#x6ce;" horiz-adv-x="737" 
d="M170 294h-48l-76 142l45 18l56 -95l56 95l45 -18zM757 45l-20 -45q-45 0 -84 17q7 -15 7 -35q0 -82 -92 -140t-258 -58q-136 0 -200.5 66t-64.5 183q0 100 47 196l63 -19q-28 -77 -28 -164q0 -172 191 -172q121 0 193 37.5t72 77.5q0 27 -36.5 47.5t-134.5 48.5l39 79
q30 -9 81 -26.5t76.5 -25.5t63.5 -15t73 -7z" />
    <glyph glyph-name="uni06CF.fina" unicode="&#x6cf;" horiz-adv-x="539" 
d="M253 456q-23 0 -39 16t-16 39t16 39t39 16t39 -16t16 -39t-16 -39t-39 -16zM559 46l-20 -46h-103q-25 -106 -110 -172.5t-253 -101.5l-28 87q140 31 213.5 76t99.5 111h-76q-104 0 -162 52.5t-58 135.5t56 142.5t136 59.5q85 0 139.5 -73.5t54.5 -200.5v-26h99zM289 90
h86v12q0 100 -32.5 149.5t-90.5 49.5q-51 0 -84 -31t-33 -78q0 -102 154 -102z" />
    <glyph glyph-name="uni06D1.init" unicode="&#x6d1;" horiz-adv-x="292" 
d="M8 90q91 0 119 20t28 77q0 68 -46 200l86 28q42 -126 42 -233q0 -106 -50 -144t-187 -38l-20 45zM57 -93q20 0 35.5 -15t15.5 -36t-15.5 -36t-35.5 -15q-22 0 -37 15t-15 36t15 36t37 15zM225 -93q22 0 37 -15t15 -36t-15 -36t-37 -15q-20 0 -35.5 15t-15.5 36t15.5 36
t35.5 15zM141 -215q20 0 35.5 -15t15.5 -36t-15.5 -36t-35.5 -15t-35.5 15t-15.5 36t15.5 36t35.5 15z" />
    <glyph glyph-name="uni06D1.medi" unicode="&#x6d1;" horiz-adv-x="346" 
d="M354 90l12 -45l-20 -45q-68 0 -107 16t-64 59q-23 -44 -62.5 -59.5t-112.5 -15.5l-20 45l29 45q30 0 51.5 2.5t34.5 10t20.5 14t11 22t4 25.5t0.5 33v4v4v133h84v-133q0 -34 4 -53t18 -34.5t42 -21.5t75 -6zM140 -144q0 -21 -15.5 -36t-35.5 -15q-22 0 -37 15t-15 36
t15 36t37 15q20 0 35.5 -15t15.5 -36zM257 -93q22 0 37 -15t15 -36t-15 -36t-37 -15q-20 0 -35.5 15t-15.5 36t15.5 36t35.5 15zM173 -215q20 0 35.5 -15t15.5 -36t-15.5 -36t-35.5 -15t-35.5 15t-15.5 36t15.5 36t35.5 15z" />
    <glyph glyph-name="uni06D1.fina" unicode="&#x6d1;" horiz-adv-x="737" 
d="M757 45l-20 -45q-45 0 -84 17q7 -15 7 -35q0 -82 -92 -140t-258 -58q-136 0 -200.5 66t-64.5 183q0 100 47 196l63 -19q-28 -77 -28 -164q0 -172 191 -172q121 0 193 37.5t72 77.5q0 27 -36.5 47.5t-134.5 48.5l39 79q30 -9 81 -26.5t76.5 -25.5t63.5 -15t73 -7z
M285 -346q0 -21 -15.5 -36t-35.5 -15q-22 0 -37 15t-15 36t15 36t37 15q20 0 35.5 -15t15.5 -36zM402 -295q22 0 37 -15t15 -36t-15 -36t-37 -15q-20 0 -35.5 15t-15.5 36t15.5 36t35.5 15zM318 -417q20 0 35.5 -15t15.5 -36t-15.5 -36t-35.5 -15t-35.5 15t-15.5 36t15.5 36
t35.5 15z" />
    <glyph glyph-name="uni06D5.fina" unicode="&#x6d5;" horiz-adv-x="513" 
d="M521 90l12 -46l-20 -44h-19q-111 0 -147 100q-26 -31 -67 -48.5t-84 -17.5q-76 0 -123.5 42.5t-47.5 110.5q0 86 84 151.5t228 75.5v95l84 10v-317q0 -64 20 -88t61 -24h19zM210 118q75 0 127 54v161q-115 -4 -174 -43.5t-59 -93.5q0 -78 106 -78z" />
    <glyph glyph-name="uni06EE.fina" unicode="&#x6ee;" horiz-adv-x="532" 
d="M214 684l-56 -95l-45 18l76 142h48l78 -142l-45 -18zM540 90l12 -45l-20 -45q-47 0 -84 23t-58 62q-54 -99 -206 -99q-82 0 -159 21l27 88q77 -17 138 -17q104 0 172 63l-153 344l89 42l124 -318q27 -69 49 -94t69 -25z" />
    <glyph glyph-name="uni06FA.init" unicode="&#x6fa;" horiz-adv-x="835" 
d="M466 543q-20 0 -35.5 15t-15.5 36t15.5 36t35.5 15t35.5 -15t15.5 -36t-15.5 -36t-35.5 -15zM382 421q-22 0 -37 15t-15 36t15 36t37 15q20 0 35.5 -15t15.5 -36t-15.5 -36t-35.5 -15zM499 472q0 21 15.5 36t35.5 15q22 0 37 -15t15 -36t-15 -36t-37 -15q-20 0 -35.5 15
t-15.5 36zM738 415q42 -111 42 -221q0 -99 -46.5 -146.5t-126.5 -47.5q-93 0 -138 67q-47 -67 -141 -67q-46 0 -84 17t-58 47q-47 -64 -186 -64l-20 46l28 44q68 0 102.5 21.5t34.5 75.5v151h81v-129q0 -71 26 -95t77 -24q96 0 96 118v130h82v-129q0 -64 26.5 -91.5
t79.5 -27.5q44 0 64.5 22.5t20.5 73.5q0 85 -41 202zM478 -98q23 0 39 -16t16 -39t-16 -39t-39 -16t-39 16t-16 39t16 39t39 16z" />
    <glyph glyph-name="uni06FA.medi" unicode="&#x6fa;" horiz-adv-x="929" 
d="M468 543q-20 0 -35.5 15t-15.5 36t15.5 36t35.5 15t35.5 -15t15.5 -36t-15.5 -36t-35.5 -15zM384 421q-22 0 -37 15t-15 36t15 36t37 15q20 0 35.5 -15t15.5 -36t-15.5 -36t-35.5 -15zM501 472q0 21 15.5 36t35.5 15q22 0 37 -15t15 -36t-15 -36t-37 -15q-20 0 -35.5 15
t-15.5 36zM937 90l12 -43l-20 -47q-131 0 -169 67q-45 -67 -151 -67q-93 0 -138 67q-47 -67 -141 -67q-46 0 -84 17t-58 47q-47 -64 -188 -64l-20 46l29 44q69 0 103.5 21.5t34.5 75.5v151h81v-129q0 -71 26 -95t77 -24q96 0 96 118v130h82v-129q0 -64 26.5 -91.5
t79.5 -27.5q93 0 93 96v182h84v-173q0 -60 31 -82.5t114 -22.5zM468 -98q23 0 39 -16t16 -39t-16 -39t-39 -16t-39 16t-16 39t16 39t39 16z" />
    <glyph glyph-name="uni06FA.fina" unicode="&#x6fa;" horiz-adv-x="1340" 
d="M879 543q-20 0 -35.5 15t-15.5 36t15.5 36t35.5 15t35.5 -15t15.5 -36t-15.5 -36t-35.5 -15zM795 421q-22 0 -37 15t-15 36t15 36t37 15q20 0 35.5 -15t15.5 -36t-15.5 -36t-35.5 -15zM912 472q0 21 15.5 36t35.5 15q22 0 37 -15t15 -36t-15 -36t-37 -15q-20 0 -35.5 15
t-15.5 36zM1348 90l12 -43l-20 -47q-131 0 -169 67q-45 -67 -151 -67q-93 0 -138 67q-47 -67 -146 -67h-1q-70 0 -110 37q-6 -162 -83 -229t-232 -67q-136 0 -200.5 66t-64.5 183q0 100 47 196l63 -19q-28 -77 -28 -164q0 -172 191 -172q124 0 175 49.5t51 168.5
q0 57 -15 110t-50 130l92 37q4 -16 9.5 -34t13 -40t11.5 -34q24 -75 55 -101.5t84 -26.5q94 0 94 118v130h82v-129q0 -64 26.5 -91.5t79.5 -27.5q93 0 93 96v190h84v-181q0 -60 31 -82.5t114 -22.5zM881 -98q23 0 39 -16t16 -39t-16 -39t-39 -16t-39 16t-16 39t16 39t39 16z
" />
    <glyph glyph-name="uni06FB.init" unicode="&#x6fb;" horiz-adv-x="935" 
d="M638 525q-23 0 -39 16t-16 39t16 39t39 16t39 -16t16 -39t-16 -39t-39 -16zM671 459q91 0 150 -63t59 -177q0 -58 -15.5 -96.5t-44.5 -63.5t-86 -37.5t-123.5 -17t-173.5 -4.5h-104q-63 0 -101.5 15.5t-63.5 57.5q-23 -43 -61 -58t-107 -15l-20 45l29 45q42 0 66.5 5.5
t34.5 21.5t12 30t2 46v9v194h84v-194q0 -56 16.5 -80t70.5 -30q57 172 161 269.5t215 97.5zM437 90q214 0 292 25.5t78 109.5q0 46 -12.5 77t-34.5 44t-40.5 17t-42.5 4q-89 0 -163.5 -63.5t-141.5 -213.5h65zM506 -98q23 0 39 -16t16 -39t-16 -39t-39 -16t-39 16t-16 39
t16 39t39 16z" />
    <glyph glyph-name="uni06FB.medi" unicode="&#x6fb;" horiz-adv-x="966" 
d="M638 525q-23 0 -39 16t-16 39t16 39t39 16t39 -16t16 -39t-16 -39t-39 -16zM974 90l12 -45l-20 -45q-82 0 -132 72q-42 -43 -132.5 -57.5t-264.5 -14.5h-104q-63 0 -101.5 15.5t-63.5 57.5q-23 -43 -61 -58t-107 -15l-20 45l29 45q42 0 66.5 5.5t34.5 21.5t12 30t2 46v9
v194h84v-194q0 -56 16.5 -80t70.5 -30q57 172 161 269.5t215 97.5q91 0 150 -63t59 -177q0 -45 -9 -79q36 -50 103 -50zM437 90q214 0 292 25.5t78 109.5q0 46 -12.5 77t-34.5 44t-40.5 17t-42.5 4q-89 0 -163.5 -63.5t-141.5 -213.5h65zM506 -98q23 0 39 -16t16 -39
t-16 -39t-39 -16t-39 16t-16 39t16 39t39 16z" />
    <glyph glyph-name="uni06FB.fina" unicode="&#x6fb;" horiz-adv-x="1369" 
d="M1041 525q-23 0 -39 16t-16 39t16 39t39 16t39 -16t16 -39t-16 -39t-39 -16zM1377 90l12 -45l-20 -45q-82 0 -132 72q-42 -43 -132.5 -57.5t-264.5 -14.5h-104q-70 0 -111 37q-6 -162 -83 -229t-232 -67q-136 0 -200.5 66t-64.5 183q0 100 47 196l63 -19
q-28 -77 -28 -164q0 -172 191 -172q124 0 175 49.5t51 168.5q0 57 -15 110t-50 130l92 37q4 -16 9.5 -34t13 -40t11.5 -34q18 -58 40 -86t54 -37q58 170 161.5 267t213.5 97q91 0 150 -63t59 -177q0 -45 -9 -79q36 -50 103 -50zM840 90q214 0 292 25.5t78 109.5
q0 46 -12.5 77t-34.5 44t-40.5 17t-42.5 4q-89 0 -163.5 -63.5t-141.5 -213.5h65zM909 -98q23 0 39 -16t16 -39t-16 -39t-39 -16t-39 16t-16 39t16 39t39 16z" />
    <glyph glyph-name="uni06FC.init" unicode="&#x6fc;" horiz-adv-x="573" 
d="M302 530q-23 0 -39 16t-16 39t16 39t39 16t39 -16t16 -39t-16 -39t-39 -16zM547 144l11 -90q-137 -33 -230 -43.5t-199 -10.5h-129l-20 45l28 45h102h64q-49 38 -74 86t-25 95q0 78 61 135.5t169 57.5q89 0 157 -37l-39 -86q-57 31 -118 31q-73 0 -109.5 -31.5
t-36.5 -78.5q0 -95 128 -166q91 9 260 48zM260 -98q23 0 39 -16t16 -39t-16 -39t-39 -16t-39 16t-16 39t16 39t39 16z" />
    <glyph glyph-name="uni06FC.medi" unicode="&#x6fc;" horiz-adv-x="599" 
d="M302 530q-23 0 -39 16t-16 39t16 39t39 16t39 -16t16 -39t-16 -39t-39 -16zM607 90l12 -45l-20 -45h-42q-130 0 -228 80q-149 -80 -290 -80h-39l-20 45l28 45h15q121 0 243 51q-7 7 -28.5 30.5t-33 35.5t-33 32.5t-45.5 39.5t-52 39l11 90q103 42 220 42q115 0 166 -35.5
t51 -104.5q0 -96 -116 -182q34 -23 69 -30.5t102 -7.5h30zM165 341q32 -26 89 -81.5t87 -81.5q108 63 108 123q0 61 -144 61q-58 0 -140 -21zM330 -98q23 0 39 -16t16 -39t-16 -39t-39 -16t-39 16t-16 39t16 39t39 16z" />
    <glyph glyph-name="uni06FC.fina" unicode="&#x6fc;" horiz-adv-x="569" 
d="M298 529q-23 0 -39 16t-16 39t16 39t39 16t39 -16t16 -39t-16 -39t-39 -16zM346 -274q118 0 207 47l35 -79q-99 -60 -251 -60q-153 0 -227.5 69t-74.5 178q0 187 186 275q-98 103 -179 163l12 90q105 41 223 41t169.5 -35t51.5 -105q0 -56 -32 -97.5t-98 -77.5
q37 -27 72 -36t105 -9h32l12 -44l-20 -46h-43q-69 0 -125.5 22.5t-115.5 72.5q-98 -45 -137 -90t-39 -110q0 -77 60 -123t177 -46zM134 341q33 -26 89.5 -80t76.5 -72q65 28 95.5 53.5t30.5 59.5q0 60 -149 60q-67 0 -143 -21zM261 -90q0 23 16 39t39 16t39 -16t16 -39
t-16 -39t-39 -16t-39 16t-16 39z" />
    <glyph glyph-name="uni06FF.init" unicode="&#x6ff;" horiz-adv-x="641" 
d="M370 658l-56 -95l-45 18l76 142h48l78 -142l-45 -18zM145 557q103 -61 161.5 -96.5t115.5 -73.5t83 -60.5t47.5 -50t27.5 -50.5t6 -53q0 -74 -50 -130.5t-116 -56.5q-107 0 -196 49q-84 -35 -195 -35h-29l-20 45l28 45h17q62 0 113 9q-76 79 -76 177q0 56 28 101t75 65
l-66 37zM125 273q0 -85 105 -147q103 47 103 145q0 49 -31 82t-75 33q-43 0 -72.5 -32t-29.5 -81zM420 76q43 0 70 21.5t27 55.5q0 35 -26.5 69t-96.5 82q2 -20 2 -28q0 -111 -82 -185q51 -15 106 -15z" />
    <glyph glyph-name="uni06FF.medi" unicode="&#x6ff;" horiz-adv-x="480" 
d="M302 607l-56 -95l-45 18l76 142h48l78 -142l-45 -18zM500 45l-20 -45h-111q66 -49 66 -135q0 -63 -38 -101t-102 -38q-95 0 -162 77t-74 197h-59l-20 45l28 45h51q6 149 77.5 253t165.5 104q66 0 103.5 -42t37.5 -122q0 -49 -25.5 -103.5t-70.5 -89.5h141zM289 357
q-58 0 -107 -74.5t-58 -192.5h52q82 0 135 55.5t53 127.5q0 84 -75 84zM286 -184q36 0 55 20t19 50q0 52 -40 83t-108 31h-88q10 -87 54 -135.5t108 -48.5z" />
    <glyph glyph-name="uni06FF.fina" unicode="&#x6ff;" horiz-adv-x="584" 
d="M406 607l-56 -95l-45 18l76 142h48l78 -142l-45 -18zM604 45l-20 -45h-111q66 -49 66 -135q0 -63 -38 -101t-102 -38q-95 0 -162 77t-74 198q-90 4 -138 33l40 79q39 -19 98 -22q6 149 77.5 252.5t165.5 103.5q66 0 103.5 -42t37.5 -122q0 -49 -25.5 -103.5t-70.5 -89.5
h141zM393 357q-58 0 -107 -74.5t-58 -192.5h52q82 0 135 55.5t53 127.5q0 84 -75 84zM390 -184q36 0 55 20t19 50q0 52 -40 83t-108 31h-88q10 -87 54 -135.5t108 -48.5z" />
    <glyph glyph-name="uniFB51" unicode="&#x671;" horiz-adv-x="237" arabic-form="final" 
d="M128 728q-36 0 -79 13l-18 -38l-46 16l28 84q12 -4 36 -10q47 102 120 102q33 0 55.5 -21t22.5 -56q0 -47 -33.5 -68.5t-85.5 -21.5zM164 840q-36 0 -72 -56q23 -4 48 -4q56 0 56 33q0 27 -32 27zM245 90l12 -45l-20 -45q-172 0 -172 205v421l84 10v-425
q0 -70 19.5 -95.5t76.5 -25.5z" />
    <glyph glyph-name="uniFB53" unicode="&#x67b;" horiz-adv-x="976" arabic-form="final" 
d="M984 90l12 -43l-20 -47q-77 0 -120 18.5t-71 58.5q-85 -45 -189.5 -68t-258.5 -23q-159 0 -225.5 49t-66.5 157q0 84 37 159l63 -21q-21 -66 -21 -125q0 -71 48.5 -100t172.5 -29q130 0 236 22t169 56v184h84v-118q0 -78 28 -104t122 -26zM378 -184q-21 0 -36.5 15
t-15.5 37t15.5 37t36.5 15q22 0 37 -15t15 -37t-15 -37t-37 -15zM379 -228q21 0 36.5 -15t15.5 -37t-15.5 -37t-36.5 -15q-22 0 -37 15t-15 37t15 37t37 15z" />
    <glyph glyph-name="uniFB54" unicode="&#x67b;" horiz-adv-x="292" arabic-form="initial" 
d="M8 90q91 0 119 20t28 77q0 68 -46 200l86 28q42 -126 42 -233q0 -106 -50 -144t-187 -38l-20 45zM142 -184q-21 0 -36.5 15t-15.5 37t15.5 37t36.5 15q22 0 37 -15t15 -37t-15 -37t-37 -15zM143 -332q-22 0 -37 15t-15 37t15 37t37 15q21 0 36.5 -15t15.5 -37t-15.5 -37
t-36.5 -15z" />
    <glyph glyph-name="uniFB55" unicode="&#x67b;" horiz-adv-x="346" arabic-form="medial" 
d="M354 90l12 -45l-20 -45q-68 0 -107 16t-64 59q-23 -44 -62.5 -59.5t-112.5 -15.5l-20 45l29 45q30 0 51.5 2.5t34.5 10t20.5 14t11 22t4 25.5t0.5 33v4v4v133h84v-133q0 -34 4 -53t18 -34.5t42 -21.5t75 -6zM174 -184q-21 0 -36.5 15t-15.5 37t15.5 37t36.5 15
q22 0 37 -15t15 -37t-15 -37t-37 -15zM175 -228q21 0 36.5 -15t15.5 -37t-15.5 -37t-36.5 -15q-22 0 -37 15t-15 37t15 37t37 15z" />
    <glyph glyph-name="uniFB57" unicode="&#x67e;" horiz-adv-x="976" arabic-form="final" 
d="M984 90l12 -43l-20 -47q-77 0 -120 18.5t-71 58.5q-85 -45 -189.5 -68t-258.5 -23q-159 0 -225.5 49t-66.5 157q0 84 37 159l63 -21q-21 -66 -21 -125q0 -71 48.5 -100t172.5 -29q130 0 236 22t169 56v184h84v-118q0 -78 28 -104t122 -26zM344 -144q0 -21 -15.5 -36
t-35.5 -15q-22 0 -37 15t-15 36t15 36t37 15q20 0 35.5 -15t15.5 -36zM461 -93q22 0 37 -15t15 -36t-15 -36t-37 -15q-20 0 -35.5 15t-15.5 36t15.5 36t35.5 15zM377 -215q20 0 35.5 -15t15.5 -36t-15.5 -36t-35.5 -15t-35.5 15t-15.5 36t15.5 36t35.5 15z" />
    <glyph glyph-name="uniFB58" unicode="&#x67e;" horiz-adv-x="292" arabic-form="initial" 
d="M8 90q91 0 119 20t28 77q0 68 -46 200l86 28q42 -126 42 -233q0 -106 -50 -144t-187 -38l-20 45zM57 -93q20 0 35.5 -15t15.5 -36t-15.5 -36t-35.5 -15q-22 0 -37 15t-15 36t15 36t37 15zM225 -93q22 0 37 -15t15 -36t-15 -36t-37 -15q-20 0 -35.5 15t-15.5 36t15.5 36
t35.5 15zM141 -215q20 0 35.5 -15t15.5 -36t-15.5 -36t-35.5 -15t-35.5 15t-15.5 36t15.5 36t35.5 15z" />
    <glyph glyph-name="uniFB59" unicode="&#x67e;" horiz-adv-x="346" arabic-form="medial" 
d="M354 90l12 -45l-20 -45q-68 0 -107 16t-64 59q-23 -44 -62.5 -59.5t-112.5 -15.5l-20 45l29 45q30 0 51.5 2.5t34.5 10t20.5 14t11 22t4 25.5t0.5 33v4v4v133h84v-133q0 -34 4 -53t18 -34.5t42 -21.5t75 -6zM140 -144q0 -21 -15.5 -36t-35.5 -15q-22 0 -37 15t-15 36
t15 36t37 15q20 0 35.5 -15t15.5 -36zM257 -93q22 0 37 -15t15 -36t-15 -36t-37 -15q-20 0 -35.5 15t-15.5 36t15.5 36t35.5 15zM173 -215q20 0 35.5 -15t15.5 -36t-15.5 -36t-35.5 -15t-35.5 15t-15.5 36t15.5 36t35.5 15z" />
    <glyph glyph-name="uniFB5B" unicode="&#x680;" horiz-adv-x="976" arabic-form="final" 
d="M984 90l12 -43l-20 -47q-77 0 -120 18.5t-71 58.5q-85 -45 -189.5 -68t-258.5 -23q-159 0 -225.5 49t-66.5 157q0 84 37 159l63 -21q-21 -66 -21 -125q0 -71 48.5 -100t172.5 -29q130 0 236 22t169 56v184h84v-118q0 -78 28 -104t122 -26zM299 -78q22 0 37 -15.5
t15 -38.5q0 -20 -15 -35t-37 -15t-37 15t-15 35q0 23 15 38.5t37 15.5zM453 -78q22 0 37 -15.5t15 -38.5q0 -20 -15 -35t-37 -15t-37 15t-15 35q0 23 15 38.5t37 15.5zM299 -225q22 0 37 -15t15 -36q0 -22 -15 -37.5t-37 -15.5t-37 15.5t-15 37.5q0 21 15 36t37 15z
M453 -225q22 0 37 -15t15 -36q0 -22 -15 -37.5t-37 -15.5t-37 15.5t-15 37.5q0 21 15 36t37 15z" />
    <glyph glyph-name="uniFB5C" unicode="&#x680;" horiz-adv-x="292" arabic-form="initial" 
d="M8 90q91 0 119 20t28 77q0 68 -46 200l86 28q42 -126 42 -233q0 -106 -50 -144t-187 -38l-20 45zM63 -182q-22 0 -37 15t-15 35q0 23 15 38.5t37 15.5t37 -15.5t15 -38.5q0 -20 -15 -35t-37 -15zM217 -182q-22 0 -37 15t-15 35q0 23 15 38.5t37 15.5t37 -15.5t15 -38.5
q0 -20 -15 -35t-37 -15zM63 -329q-22 0 -37 15.5t-15 37.5q0 21 15 36t37 15t37 -15t15 -36q0 -22 -15 -37.5t-37 -15.5zM217 -329q-22 0 -37 15.5t-15 37.5q0 21 15 36t37 15t37 -15t15 -36q0 -22 -15 -37.5t-37 -15.5z" />
    <glyph glyph-name="uniFB5D" unicode="&#x680;" horiz-adv-x="346" arabic-form="medial" 
d="M354 90l12 -45l-20 -45q-68 0 -107 16t-64 59q-23 -44 -62.5 -59.5t-112.5 -15.5l-20 45l29 45q30 0 51.5 2.5t34.5 10t20.5 14t11 22t4 25.5t0.5 33v4v4v133h84v-133q0 -34 4 -53t18 -34.5t42 -21.5t75 -6zM95 -78q22 0 37 -15.5t15 -38.5q0 -20 -15 -35t-37 -15t-37 15
t-15 35q0 23 15 38.5t37 15.5zM249 -78q22 0 37 -15.5t15 -38.5q0 -20 -15 -35t-37 -15t-37 15t-15 35q0 23 15 38.5t37 15.5zM95 -225q22 0 37 -15t15 -36q0 -22 -15 -37.5t-37 -15.5t-37 15.5t-15 37.5q0 21 15 36t37 15zM249 -225q22 0 37 -15t15 -36q0 -22 -15 -37.5
t-37 -15.5t-37 15.5t-15 37.5q0 21 15 36t37 15z" />
    <glyph glyph-name="uniFB5F" unicode="&#x67a;" horiz-adv-x="976" arabic-form="final" 
d="M458 504q-21 0 -36.5 15t-15.5 37t15.5 37t36.5 15q22 0 37 -15t15 -37t-15 -37t-37 -15zM459 460q21 0 36.5 -15t15.5 -37t-15.5 -37t-36.5 -15q-22 0 -37 15t-15 37t15 37t37 15zM984 90l12 -43l-20 -47q-77 0 -120 18.5t-71 58.5q-85 -45 -189.5 -68t-258.5 -23
q-159 0 -225.5 49t-66.5 157q0 84 37 159l63 -21q-21 -66 -21 -125q0 -71 48.5 -100t172.5 -29q130 0 236 22t169 56v184h84v-118q0 -78 28 -104t122 -26z" />
    <glyph glyph-name="uniFB60" unicode="&#x67a;" horiz-adv-x="292" arabic-form="initial" 
d="M128 608q-21 0 -36.5 15t-15.5 37t15.5 37t36.5 15q22 0 37 -15t15 -37t-15 -37t-37 -15zM129 460q-22 0 -37 15t-15 37t15 37t37 15q21 0 36.5 -15t15.5 -37t-15.5 -37t-36.5 -15zM8 90q91 0 119 20t28 77q0 68 -46 200l86 28q42 -126 42 -233q0 -106 -50 -144t-187 -38
l-20 45z" />
    <glyph glyph-name="uniFB61" unicode="&#x67a;" horiz-adv-x="346" arabic-form="medial" 
d="M174 544q-21 0 -36.5 15t-15.5 37t15.5 37t36.5 15q22 0 37 -15t15 -37t-15 -37t-37 -15zM175 500q21 0 36.5 -15t15.5 -37t-15.5 -37t-36.5 -15q-22 0 -37 15t-15 37t15 37t37 15zM354 90l12 -45l-20 -45q-68 0 -107 16t-64 59q-23 -44 -62.5 -59.5t-112.5 -15.5l-20 45
l29 45q30 0 51.5 2.5t34.5 10t20.5 14t11 22t4 25.5t0.5 33v4v4v133h84v-133q0 -34 4 -53t18 -34.5t42 -21.5t75 -6z" />
    <glyph glyph-name="uniFB63" unicode="&#x67f;" horiz-adv-x="976" arabic-form="final" 
d="M381 503q-22 0 -37 15t-15 35q0 23 15 38.5t37 15.5t37 -15.5t15 -38.5q0 -20 -15 -35t-37 -15zM535 503q-22 0 -37 15t-15 35q0 23 15 38.5t37 15.5t37 -15.5t15 -38.5q0 -20 -15 -35t-37 -15zM381 356q-22 0 -37 15.5t-15 37.5q0 21 15 36t37 15t37 -15t15 -36
q0 -22 -15 -37.5t-37 -15.5zM535 356q-22 0 -37 15.5t-15 37.5q0 21 15 36t37 15t37 -15t15 -36q0 -22 -15 -37.5t-37 -15.5zM984 90l12 -43l-20 -47q-77 0 -120 18.5t-71 58.5q-85 -45 -189.5 -68t-258.5 -23q-159 0 -225.5 49t-66.5 157q0 84 37 159l63 -21
q-21 -66 -21 -125q0 -71 48.5 -100t172.5 -29q130 0 236 22t169 56v184h84v-118q0 -78 28 -104t122 -26z" />
    <glyph glyph-name="uniFB64" unicode="&#x67f;" horiz-adv-x="292" arabic-form="initial" 
d="M51 607q-22 0 -37 15t-15 35q0 23 15 38.5t37 15.5t37 -15.5t15 -38.5q0 -20 -15 -35t-37 -15zM205 607q-22 0 -37 15t-15 35q0 23 15 38.5t37 15.5t37 -15.5t15 -38.5q0 -20 -15 -35t-37 -15zM51 460q-22 0 -37 15.5t-15 37.5q0 21 15 36t37 15t37 -15t15 -36
q0 -22 -15 -37.5t-37 -15.5zM205 460q-22 0 -37 15.5t-15 37.5q0 21 15 36t37 15t37 -15t15 -36q0 -22 -15 -37.5t-37 -15.5zM8 90q91 0 119 20t28 77q0 68 -46 200l86 28q42 -126 42 -233q0 -106 -50 -144t-187 -38l-20 45z" />
    <glyph glyph-name="uniFB65" unicode="&#x67f;" horiz-adv-x="346" arabic-form="medial" 
d="M97 543q-22 0 -37 15t-15 35q0 23 15 38.5t37 15.5t37 -15.5t15 -38.5q0 -20 -15 -35t-37 -15zM251 543q-22 0 -37 15t-15 35q0 23 15 38.5t37 15.5t37 -15.5t15 -38.5q0 -20 -15 -35t-37 -15zM97 396q-22 0 -37 15.5t-15 37.5q0 21 15 36t37 15t37 -15t15 -36
q0 -22 -15 -37.5t-37 -15.5zM251 396q-22 0 -37 15.5t-15 37.5q0 21 15 36t37 15t37 -15t15 -36q0 -22 -15 -37.5t-37 -15.5zM354 90l12 -45l-20 -45q-68 0 -107 16t-64 59q-23 -44 -62.5 -59.5t-112.5 -15.5l-20 45l29 45q30 0 51.5 2.5t34.5 10t20.5 14t11 22t4 25.5
t0.5 33v4v4v133h84v-133q0 -34 4 -53t18 -34.5t42 -21.5t75 -6z" />
    <glyph glyph-name="uniFB67" unicode="&#x679;" horiz-adv-x="976" arabic-form="final" 
d="M582 469q0 -34 -24.5 -61t-75.5 -27h-154l6 50h26q8 12 11 18v142h49v-75q38 42 80 42q36 0 59 -25.5t23 -63.5zM402 431h71q33 0 47 9t14 30q0 37 -38 37q-44 0 -94 -76zM984 90l12 -43l-20 -47q-77 0 -120 18.5t-71 58.5q-85 -45 -189.5 -68t-258.5 -23
q-159 0 -225.5 49t-66.5 157q0 84 37 159l63 -21q-21 -66 -21 -125q0 -71 48.5 -100t172.5 -29q130 0 236 22t169 56v184h84v-118q0 -78 28 -104t122 -26z" />
    <glyph glyph-name="uniFB68" unicode="&#x679;" horiz-adv-x="292" arabic-form="initial" 
d="M252 573q0 -34 -24.5 -61t-75.5 -27h-154l6 50h26q8 12 11 18v142h49v-75q38 42 80 42q36 0 59 -25.5t23 -63.5zM72 535h71q33 0 47 9t14 30q0 37 -38 37q-44 0 -94 -76zM109 387l86 28q42 -126 42 -233q0 -106 -50 -144t-187 -38l-20 45l28 45q91 0 119 20t28 77
q0 68 -46 200z" />
    <glyph glyph-name="uniFB69" unicode="&#x679;" horiz-adv-x="346" arabic-form="medial" 
d="M298 509q0 -34 -24.5 -61t-75.5 -27h-154l6 50h26q8 12 11 18v142h49v-75q38 42 80 42q36 0 59 -25.5t23 -63.5zM118 471h71q33 0 47 9t14 30q0 37 -38 37q-44 0 -94 -76zM354 90l12 -45l-20 -45q-68 0 -107 16t-64 59q-23 -44 -62.5 -59.5t-112.5 -15.5l-20 45l29 45
q30 0 51.5 2.5t34.5 10t20.5 14t11 22t4 25.5t0.5 33v4v4v133h84v-133q0 -34 4 -53t18 -34.5t42 -21.5t75 -6z" />
    <glyph glyph-name="uniFB6B" unicode="&#x6a4;" horiz-adv-x="964" arabic-form="final" 
d="M709 677q-20 0 -35.5 15t-15.5 36t15.5 36t35.5 15t35.5 -15t15.5 -36t-15.5 -36t-35.5 -15zM625 555q-22 0 -37 15t-15 36t15 36t37 15q20 0 35.5 -15t15.5 -36t-15.5 -36t-35.5 -15zM742 606q0 21 15.5 36t35.5 15q22 0 37 -15t15 -36t-15 -36t-37 -15q-20 0 -35.5 15
t-15.5 36zM970 90l14 -45l-20 -45h-49q-102 0 -200 45q-141 -59 -378 -59q-159 0 -225.5 49t-66.5 157q0 84 37 159l63 -21q-21 -66 -21 -125q0 -71 48.5 -100t171.5 -29q165 0 279 25q-97 79 -97 179q0 80 54 143.5t128 63.5q84 0 137.5 -62.5t53.5 -144.5q0 -107 -90 -180
q50 -10 106 -10h55zM600 280q0 -97 112 -150q113 52 113 150q0 48 -32.5 82.5t-79.5 34.5q-48 0 -80.5 -34.5t-32.5 -82.5z" />
    <glyph glyph-name="uniFB6C" unicode="&#x6a4;" horiz-adv-x="473" arabic-form="initial" 
d="M222 759q-20 0 -35.5 15t-15.5 36t15.5 36t35.5 15t35.5 -15t15.5 -36t-15.5 -36t-35.5 -15zM138 637q-22 0 -37 15t-15 36t15 36t37 15q20 0 35.5 -15t15.5 -36t-15.5 -36t-35.5 -15zM255 688q0 21 15.5 36t35.5 15q22 0 37 -15t15 -36t-15 -36t-37 -15q-20 0 -35.5 15
t-15.5 36zM222 568q86 0 141 -76t55 -211q0 -86 -22.5 -140.5t-76 -86t-128 -43t-191.5 -11.5l-20 46l28 44q125 0 196 13t100.5 38t36.5 70q-37 -31 -115 -31q-88 0 -142 52t-54 133q0 84 56 143.5t136 59.5zM103 370q0 -53 39 -84t115 -31q48 0 88 14q-1 108 -33.5 159.5
t-89.5 51.5q-52 0 -85.5 -31t-33.5 -79z" />
    <glyph glyph-name="uniFB6D" unicode="&#x6a4;" horiz-adv-x="513" arabic-form="medial" 
d="M258 677q-20 0 -35.5 15t-15.5 36t15.5 36t35.5 15t35.5 -15t15.5 -36t-15.5 -36t-35.5 -15zM174 555q-22 0 -37 15t-15 36t15 36t37 15q20 0 35.5 -15t15.5 -36t-15.5 -36t-35.5 -15zM291 606q0 21 15.5 36t35.5 15q22 0 37 -15t15 -36t-15 -36t-37 -15q-20 0 -35.5 15
t-15.5 36zM519 90l14 -45l-20 -45h-49q-103 0 -201 45q-98 -45 -221 -45h-42l-20 45l28 45h44q60 0 120 11q-97 79 -97 179q0 80 54 143.5t128 63.5q84 0 137.5 -62.5t53.5 -144.5q0 -98 -96 -179q57 -11 112 -11h55zM149 280q0 -99 115 -151q110 52 110 151
q0 48 -32.5 82.5t-79.5 34.5q-48 0 -80.5 -34.5t-32.5 -82.5z" />
    <glyph glyph-name="uniFB6F" unicode="&#x6a6;" horiz-adv-x="964" arabic-form="final" 
d="M633 677q-22 0 -37 15t-15 35q0 23 15 38.5t37 15.5t37 -15.5t15 -38.5q0 -20 -15 -35t-37 -15zM787 677q-22 0 -37 15t-15 35q0 23 15 38.5t37 15.5t37 -15.5t15 -38.5q0 -20 -15 -35t-37 -15zM633 530q-22 0 -37 15.5t-15 37.5q0 21 15 36t37 15t37 -15t15 -36
q0 -22 -15 -37.5t-37 -15.5zM787 530q-22 0 -37 15.5t-15 37.5q0 21 15 36t37 15t37 -15t15 -36q0 -22 -15 -37.5t-37 -15.5zM970 90l14 -45l-20 -45h-49q-102 0 -200 45q-141 -59 -378 -59q-159 0 -225.5 49t-66.5 157q0 84 37 159l63 -21q-21 -66 -21 -125
q0 -71 48.5 -100t171.5 -29q165 0 279 25q-97 79 -97 179q0 80 54 143.5t128 63.5q84 0 137.5 -62.5t53.5 -144.5q0 -107 -90 -180q50 -10 106 -10h55zM600 280q0 -97 112 -150q113 52 113 150q0 48 -32.5 82.5t-79.5 34.5q-48 0 -80.5 -34.5t-32.5 -82.5z" />
    <glyph glyph-name="uniFB70" unicode="&#x6a6;" horiz-adv-x="473" arabic-form="initial" 
d="M146 759q-22 0 -37 15t-15 35q0 23 15 38.5t37 15.5t37 -15.5t15 -38.5q0 -20 -15 -35t-37 -15zM300 759q-22 0 -37 15t-15 35q0 23 15 38.5t37 15.5t37 -15.5t15 -38.5q0 -20 -15 -35t-37 -15zM146 612q-22 0 -37 15.5t-15 37.5q0 21 15 36t37 15t37 -15t15 -36
q0 -22 -15 -37.5t-37 -15.5zM300 612q-22 0 -37 15.5t-15 37.5q0 21 15 36t37 15t37 -15t15 -36q0 -22 -15 -37.5t-37 -15.5zM222 568q86 0 141 -76t55 -211q0 -86 -22.5 -140.5t-76 -86t-128 -43t-191.5 -11.5l-20 46l28 44q125 0 196 13t100.5 38t36.5 70
q-37 -31 -115 -31q-88 0 -142 52t-54 133q0 84 56 143.5t136 59.5zM103 370q0 -53 39 -84t115 -31q48 0 88 14q-1 108 -33.5 159.5t-89.5 51.5q-52 0 -85.5 -31t-33.5 -79z" />
    <glyph glyph-name="uniFB71" unicode="&#x6a6;" horiz-adv-x="513" arabic-form="medial" 
d="M182 677q-22 0 -37 15t-15 35q0 23 15 38.5t37 15.5t37 -15.5t15 -38.5q0 -20 -15 -35t-37 -15zM336 677q-22 0 -37 15t-15 35q0 23 15 38.5t37 15.5t37 -15.5t15 -38.5q0 -20 -15 -35t-37 -15zM182 530q-22 0 -37 15.5t-15 37.5q0 21 15 36t37 15t37 -15t15 -36
q0 -22 -15 -37.5t-37 -15.5zM336 530q-22 0 -37 15.5t-15 37.5q0 21 15 36t37 15t37 -15t15 -36q0 -22 -15 -37.5t-37 -15.5zM519 90l14 -45l-20 -45h-49q-103 0 -201 45q-98 -45 -221 -45h-42l-20 45l28 45h44q60 0 120 11q-97 79 -97 179q0 80 54 143.5t128 63.5
q84 0 137.5 -62.5t53.5 -144.5q0 -98 -96 -179q57 -11 112 -11h55zM149 280q0 -99 115 -151q110 52 110 151q0 48 -32.5 82.5t-79.5 34.5q-48 0 -80.5 -34.5t-32.5 -82.5z" />
    <glyph glyph-name="uniFB73" unicode="&#x684;" horiz-adv-x="663" arabic-form="final" 
d="M663 0q-99 0 -150.5 46t-59.5 142h1q-171 -18 -253 -91t-82 -171t70.5 -149t206.5 -51q127 0 218 47l34 -79q-98 -60 -261 -60q-171 0 -256 74t-85 203q0 143 103 237.5t307 114.5q-37 17 -79.5 47t-77 46.5t-77.5 16.5q-67 0 -130 -38l-42 78q82 51 179 51q48 0 89 -17
t71.5 -42t60.5 -51.5t71.5 -49t89.5 -30.5l-10 -78l-80 -3q14 -65 43.5 -84t106.5 -19l12 -45zM414 -7q0 -22 -15 -37t-37 -15q-21 0 -36.5 15t-15.5 37t15.5 37t36.5 15q22 0 37 -15t15 -37zM363 -207q-22 0 -37 15t-15 37t15 37t37 15q21 0 36.5 -15t15.5 -37t-15.5 -37
t-36.5 -15z" />
    <glyph glyph-name="uniFB74" unicode="&#x684;" horiz-adv-x="706" arabic-form="initial" 
d="M236 464q48 0 85 -9t62.5 -24t47 -34t43.5 -40.5t46.5 -41.5t62 -39t84.5 -31l-12 -78l-101 -8q-77 -6 -153.5 -32.5t-128.5 -54t-125 -50t-147 -22.5l-20 45l28 45q65 0 129.5 19t111.5 43t119.5 48.5t146.5 32.5q-44 19 -81.5 46.5t-57.5 46.5t-57 33.5t-88 14.5
q-58 0 -121 -37l-42 78q84 49 168 49zM307 -184q-21 0 -36.5 15t-15.5 37t15.5 37t36.5 15q22 0 37 -15t15 -37t-15 -37t-37 -15zM308 -228q21 0 36.5 -15t15.5 -37t-15.5 -37t-36.5 -15q-22 0 -37 15t-15 37t15 37t37 15z" />
    <glyph glyph-name="uniFB75" unicode="&#x684;" horiz-adv-x="712" arabic-form="medial" 
d="M720 90l12 -45l-20 -45q-213 0 -233 183q-53 -13 -117 -45.5t-112.5 -62t-116 -52.5t-133.5 -23l-20 45l28 45q63 0 127 22t112 49.5t119 57t142 40.5q-42 14 -80 36t-59.5 38t-57 28.5t-80.5 12.5q-58 0 -121 -37l-42 78q84 49 164 49q62 0 106 -13.5t74 -36t59.5 -47
t79.5 -50.5t116 -42l-12 -78l-104 -4h-5q15 -66 52.5 -84.5t121.5 -18.5zM397 -134q-21 0 -36.5 15t-15.5 37t15.5 37t36.5 15q22 0 37 -15t15 -37t-15 -37t-37 -15zM398 -178q21 0 36.5 -15t15.5 -37t-15.5 -37t-36.5 -15q-22 0 -37 15t-15 37t15 37t37 15z" />
    <glyph glyph-name="uniFB77" unicode="&#x683;" horiz-adv-x="663" arabic-form="final" 
d="M663 0q-99 0 -150.5 46t-59.5 142h1q-171 -18 -253 -91t-82 -171t70.5 -149t206.5 -51q127 0 218 47l34 -79q-98 -60 -261 -60q-171 0 -256 74t-85 203q0 143 103 237.5t307 114.5q-37 17 -79.5 47t-77 46.5t-77.5 16.5q-67 0 -130 -38l-42 78q82 51 179 51q48 0 89 -17
t71.5 -42t60.5 -51.5t71.5 -49t89.5 -30.5l-10 -78l-80 -3q14 -65 43.5 -84t106.5 -19l12 -45zM230 -62q0 22 15.5 37t36.5 15q22 0 37 -15t15 -37t-15 -37t-37 -15q-21 0 -36.5 15t-15.5 37zM385 -62q0 22 15 37t37 15q21 0 36.5 -15t15.5 -37t-15.5 -37t-36.5 -15
q-22 0 -37 15t-15 37z" />
    <glyph glyph-name="uniFB78" unicode="&#x683;" horiz-adv-x="706" arabic-form="initial" 
d="M236 464q48 0 85 -9t62.5 -24t47 -34t43.5 -40.5t46.5 -41.5t62 -39t84.5 -31l-12 -78l-101 -8q-77 -6 -153.5 -32.5t-128.5 -54t-125 -50t-147 -22.5l-20 45l28 45q65 0 129.5 19t111.5 43t119.5 48.5t146.5 32.5q-44 19 -81.5 46.5t-57.5 46.5t-57 33.5t-88 14.5
q-58 0 -121 -37l-42 78q84 49 168 49zM228 -91q22 0 37 -15t15 -37t-15 -37t-37 -15q-21 0 -36.5 15t-15.5 37t15.5 37t36.5 15zM383 -91q21 0 36.5 -15t15.5 -37t-15.5 -37t-36.5 -15q-22 0 -37 15t-15 37t15 37t37 15z" />
    <glyph glyph-name="uniFB79" unicode="&#x683;" horiz-adv-x="712" arabic-form="medial" 
d="M720 90l12 -45l-20 -45q-213 0 -233 183q-53 -13 -117 -45.5t-112.5 -62t-116 -52.5t-133.5 -23l-20 45l28 45q63 0 127 22t112 49.5t119 57t142 40.5q-42 14 -80 36t-59.5 38t-57 28.5t-80.5 12.5q-58 0 -121 -37l-42 78q84 49 164 49q62 0 106 -13.5t74 -36t59.5 -47
t79.5 -50.5t116 -42l-12 -78l-104 -4h-5q15 -66 52.5 -84.5t121.5 -18.5zM318 -41q22 0 37 -15t15 -37t-15 -37t-37 -15q-21 0 -36.5 15t-15.5 37t15.5 37t36.5 15zM473 -41q21 0 36.5 -15t15.5 -37t-15.5 -37t-36.5 -15q-22 0 -37 15t-15 37t15 37t37 15z" />
    <glyph glyph-name="uniFB7B" unicode="&#x686;" horiz-adv-x="663" arabic-form="final" 
d="M663 0q-99 0 -150.5 46t-59.5 142h1q-171 -18 -253 -91t-82 -171t70.5 -149t206.5 -51q127 0 218 47l34 -79q-98 -60 -261 -60q-171 0 -256 74t-85 203q0 143 103 237.5t307 114.5q-37 17 -79.5 47t-77 46.5t-77.5 16.5q-67 0 -130 -38l-42 78q82 51 179 51q48 0 89 -17
t71.5 -42t60.5 -51.5t71.5 -49t89.5 -30.5l-10 -78l-80 -3q14 -65 43.5 -84t106.5 -19l12 -45zM276 35q20 0 35.5 -15t15.5 -36t-15.5 -36t-35.5 -15q-22 0 -37 15t-15 36t15 36t37 15zM496 -16q0 -21 -15 -36t-37 -15q-20 0 -35.5 15t-15.5 36t15.5 36t35.5 15q22 0 37 -15
t15 -36zM360 -189q-20 0 -35.5 15t-15.5 36t15.5 36t35.5 15t35.5 -15t15.5 -36t-15.5 -36t-35.5 -15z" />
    <glyph glyph-name="uniFB7C" unicode="&#x686;" horiz-adv-x="706" arabic-form="initial" 
d="M236 464q48 0 85 -9t62.5 -24t47 -34t43.5 -40.5t46.5 -41.5t62 -39t84.5 -31l-12 -78l-101 -8q-77 -6 -153.5 -32.5t-128.5 -54t-125 -50t-147 -22.5l-20 45l28 45q65 0 129.5 19t111.5 43t119.5 48.5t146.5 32.5q-44 19 -81.5 46.5t-57.5 46.5t-57 33.5t-88 14.5
q-58 0 -121 -37l-42 78q84 49 168 49zM273 -144q0 -21 -15.5 -36t-35.5 -15q-22 0 -37 15t-15 36t15 36t37 15q20 0 35.5 -15t15.5 -36zM390 -93q22 0 37 -15t15 -36t-15 -36t-37 -15q-20 0 -35.5 15t-15.5 36t15.5 36t35.5 15zM306 -215q20 0 35.5 -15t15.5 -36t-15.5 -36
t-35.5 -15t-35.5 15t-15.5 36t15.5 36t35.5 15z" />
    <glyph glyph-name="uniFB7D" unicode="&#x686;" horiz-adv-x="712" arabic-form="medial" 
d="M720 90l12 -45l-20 -45q-213 0 -233 183q-53 -13 -117 -45.5t-112.5 -62t-116 -52.5t-133.5 -23l-20 45l28 45q63 0 127 22t112 49.5t119 57t142 40.5q-42 14 -80 36t-59.5 38t-57 28.5t-80.5 12.5q-58 0 -121 -37l-42 78q84 49 164 49q62 0 106 -13.5t74 -36t59.5 -47
t79.5 -50.5t116 -42l-12 -78l-104 -4h-5q15 -66 52.5 -84.5t121.5 -18.5zM363 -94q0 -21 -15.5 -36t-35.5 -15q-22 0 -37 15t-15 36t15 36t37 15q20 0 35.5 -15t15.5 -36zM480 -43q22 0 37 -15t15 -36t-15 -36t-37 -15q-20 0 -35.5 15t-15.5 36t15.5 36t35.5 15zM396 -165
q20 0 35.5 -15t15.5 -36t-15.5 -36t-35.5 -15t-35.5 15t-15.5 36t15.5 36t35.5 15z" />
    <glyph glyph-name="uniFB7F" unicode="&#x687;" horiz-adv-x="663" arabic-form="final" 
d="M663 0q-99 0 -150.5 46t-59.5 142h1q-171 -18 -253 -91t-82 -171t70.5 -149t206.5 -51q127 0 218 47l34 -79q-98 -60 -261 -60q-171 0 -256 74t-85 203q0 143 103 237.5t307 114.5q-37 17 -79.5 47t-77 46.5t-77.5 16.5q-67 0 -130 -38l-42 78q82 51 179 51q48 0 89 -17
t71.5 -42t60.5 -51.5t71.5 -49t89.5 -30.5l-10 -78l-80 -3q14 -65 43.5 -84t106.5 -19l12 -45zM284 63q22 0 37 -15.5t15 -38.5q0 -20 -15 -35t-37 -15t-37 15t-15 35q0 23 15 38.5t37 15.5zM438 63q22 0 37 -15.5t15 -38.5q0 -20 -15 -35t-37 -15t-37 15t-15 35
q0 23 15 38.5t37 15.5zM284 -84q22 0 37 -15t15 -36q0 -22 -15 -37.5t-37 -15.5t-37 15.5t-15 37.5q0 21 15 36t37 15zM438 -84q22 0 37 -15t15 -36q0 -22 -15 -37.5t-37 -15.5t-37 15.5t-15 37.5q0 21 15 36t37 15z" />
    <glyph glyph-name="uniFB80" unicode="&#x687;" horiz-adv-x="706" arabic-form="initial" 
d="M236 464q48 0 85 -9t62.5 -24t47 -34t43.5 -40.5t46.5 -41.5t62 -39t84.5 -31l-12 -78l-101 -8q-77 -6 -153.5 -32.5t-128.5 -54t-125 -50t-147 -22.5l-20 45l28 45q65 0 129.5 19t111.5 43t119.5 48.5t146.5 32.5q-44 19 -81.5 46.5t-57.5 46.5t-57 33.5t-88 14.5
q-58 0 -121 -37l-42 78q84 49 168 49zM228 -78q22 0 37 -15.5t15 -38.5q0 -20 -15 -35t-37 -15t-37 15t-15 35q0 23 15 38.5t37 15.5zM382 -78q22 0 37 -15.5t15 -38.5q0 -20 -15 -35t-37 -15t-37 15t-15 35q0 23 15 38.5t37 15.5zM228 -225q22 0 37 -15t15 -36
q0 -22 -15 -37.5t-37 -15.5t-37 15.5t-15 37.5q0 21 15 36t37 15zM382 -225q22 0 37 -15t15 -36q0 -22 -15 -37.5t-37 -15.5t-37 15.5t-15 37.5q0 21 15 36t37 15z" />
    <glyph glyph-name="uniFB81" unicode="&#x687;" horiz-adv-x="712" arabic-form="medial" 
d="M720 90l12 -45l-20 -45q-213 0 -233 183q-53 -13 -117 -45.5t-112.5 -62t-116 -52.5t-133.5 -23l-20 45l28 45q63 0 127 22t112 49.5t119 57t142 40.5q-42 14 -80 36t-59.5 38t-57 28.5t-80.5 12.5q-58 0 -121 -37l-42 78q84 49 164 49q62 0 106 -13.5t74 -36t59.5 -47
t79.5 -50.5t116 -42l-12 -78l-104 -4h-5q15 -66 52.5 -84.5t121.5 -18.5zM318 -28q22 0 37 -15.5t15 -38.5q0 -20 -15 -35t-37 -15t-37 15t-15 35q0 23 15 38.5t37 15.5zM472 -28q22 0 37 -15.5t15 -38.5q0 -20 -15 -35t-37 -15t-37 15t-15 35q0 23 15 38.5t37 15.5z
M318 -175q22 0 37 -15t15 -36q0 -22 -15 -37.5t-37 -15.5t-37 15.5t-15 37.5q0 21 15 36t37 15zM472 -175q22 0 37 -15t15 -36q0 -22 -15 -37.5t-37 -15.5t-37 15.5t-15 37.5q0 21 15 36t37 15z" />
    <glyph glyph-name="uniFB83" unicode="&#x68d;" horiz-adv-x="532" arabic-form="final" 
d="M540 90l12 -45l-20 -45q-47 0 -84 23t-58 62q-54 -99 -206 -99q-82 0 -159 21l27 88q77 -17 138 -17q104 0 172 63l-153 344l89 42l124 -318q27 -69 49 -94t69 -25zM133 -91q22 0 37 -15t15 -37t-15 -37t-37 -15q-21 0 -36.5 15t-15.5 37t15.5 37t36.5 15zM288 -91
q21 0 36.5 -15t15.5 -37t-15.5 -37t-36.5 -15q-22 0 -37 15t-15 37t15 37t37 15z" />
    <glyph glyph-name="uniFB85" unicode="&#x68c;" horiz-adv-x="532" arabic-form="final" 
d="M136 617q-21 0 -36.5 15t-15.5 37t15.5 37t36.5 15q22 0 37 -15t15 -37t-15 -37t-37 -15zM291 617q-22 0 -37 15t-15 37t15 37t37 15q21 0 36.5 -15t15.5 -37t-15.5 -37t-36.5 -15zM540 90l12 -45l-20 -45q-47 0 -84 23t-58 62q-54 -99 -206 -99q-82 0 -159 21l27 88
q77 -17 138 -17q104 0 172 63l-153 344l89 42l124 -318q27 -69 49 -94t69 -25z" />
    <glyph glyph-name="uniFB87" unicode="&#x68e;" horiz-adv-x="532" arabic-form="final" 
d="M214 715q-20 0 -35.5 15t-15.5 36t15.5 36t35.5 15t35.5 -15t15.5 -36t-15.5 -36t-35.5 -15zM130 593q-22 0 -37 15t-15 36t15 36t37 15q20 0 35.5 -15t15.5 -36t-15.5 -36t-35.5 -15zM247 644q0 21 15.5 36t35.5 15q22 0 37 -15t15 -36t-15 -36t-37 -15q-20 0 -35.5 15
t-15.5 36zM540 90l12 -45l-20 -45q-47 0 -84 23t-58 62q-54 -99 -206 -99q-82 0 -159 21l27 88q77 -17 138 -17q104 0 172 63l-153 344l89 42l124 -318q27 -69 49 -94t69 -25z" />
    <glyph glyph-name="uniFB89" unicode="&#x688;" horiz-adv-x="532" arabic-form="final" 
d="M339 681q0 -34 -24.5 -61t-75.5 -27h-154l6 50h26q8 12 11 18v142h49v-75q38 42 80 42q36 0 59 -25.5t23 -63.5zM159 643h71q33 0 47 9t14 30q0 37 -38 37q-44 0 -94 -76zM540 90l12 -45l-20 -45q-47 0 -84 23t-58 62q-54 -99 -206 -99q-82 0 -159 21l27 88
q77 -17 138 -17q104 0 172 63l-153 344l89 42l124 -318q27 -69 49 -94t69 -25z" />
    <glyph glyph-name="uniFB8B" unicode="&#x698;" horiz-adv-x="413" arabic-form="final" 
d="M181 568q-20 0 -35.5 15t-15.5 36t15.5 36t35.5 15t35.5 -15t15.5 -36t-15.5 -36t-35.5 -15zM97 446q-22 0 -37 15t-15 36t15 36t37 15q20 0 35.5 -15t15.5 -36t-15.5 -36t-35.5 -15zM214 497q0 21 15.5 36t35.5 15q22 0 37 -15t15 -36t-15 -36t-37 -15q-20 0 -35.5 15
t-15.5 36zM421 90l12 -45l-20 -45q-78 0 -109 49q-25 -224 -297 -300l-37 87q137 38 200.5 104t63.5 144q0 79 -78 243l95 30q11 -32 39 -128q21 -79 48.5 -109t82.5 -30z" />
    <glyph glyph-name="uniFB8D" unicode="&#x691;" horiz-adv-x="413" arabic-form="final" 
d="M306 534q0 -34 -24.5 -61t-75.5 -27h-154l6 50h26q8 12 11 18v142h49v-75q38 42 80 42q36 0 59 -25.5t23 -63.5zM126 496h71q33 0 47 9t14 30q0 37 -38 37q-44 0 -94 -76zM421 90l12 -45l-20 -45q-78 0 -109 49q-25 -224 -297 -300l-37 87q137 38 200.5 104t63.5 144
q0 79 -78 243l95 30q11 -32 39 -128q21 -79 48.5 -109t82.5 -30z" />
    <glyph glyph-name="uniFB8F" unicode="&#x6a9;" horiz-adv-x="998" arabic-form="final" 
d="M1006 90l12 -43l-20 -47q-90 0 -153 36t-129 133q-13 -183 -379 -183q-159 0 -225.5 49t-66.5 157q0 84 37 159l63 -21q-21 -66 -21 -125q0 -71 48.5 -100t172.5 -29q89 0 150.5 9.5t93 27t44.5 37.5t13 46q0 63 -68 148l-80 100l18 81l402 245l-5 -95l-336 -198
l184 -232q58 -73 88.5 -102t64 -41t92.5 -12z" />
    <glyph glyph-name="uniFB90" unicode="&#x6a9;" horiz-adv-x="466" arabic-form="initial" 
d="M421 770l-5 -95l-322 -190q156 -70 210 -129.5t54 -140.5q0 -215 -358 -215l-20 45l28 45q105 0 167 18t83.5 46t21.5 71q0 32 -18.5 59.5t-82 67.5t-179.5 89l19 85z" />
    <glyph glyph-name="uniFB91" unicode="&#x6a9;" horiz-adv-x="549" arabic-form="medial" 
d="M557 90l12 -43l-20 -47q-90 0 -153 36t-129 133q-5 -76 -74.5 -122.5t-192.5 -46.5l-20 45l28 45q95 0 142 28t47 78q0 63 -68 148l-80 100l18 81l402 245l-5 -95l-336 -198l184 -232q58 -73 88.5 -102t64 -41t92.5 -12z" />
    <glyph glyph-name="uniFB93" unicode="&#x6af;" horiz-adv-x="998" arabic-form="final" 
d="M918 883l-4 -67l-393 -237l17 72zM1006 90l12 -43l-20 -47q-90 0 -153 36t-129 133q-13 -183 -379 -183q-159 0 -225.5 49t-66.5 157q0 84 37 159l63 -21q-21 -66 -21 -125q0 -71 48.5 -100t172.5 -29q89 0 150.5 9.5t93 27t44.5 37.5t13 46q0 63 -68 148l-80 100l18 81
l402 245l-5 -95l-336 -198l184 -232q58 -73 88.5 -102t64 -41t92.5 -12z" />
    <glyph glyph-name="uniFB94" unicode="&#x6af;" horiz-adv-x="466" arabic-form="initial" 
d="M418 883l-4 -67l-393 -237l17 72zM421 770l-5 -95l-322 -190q156 -70 210 -129.5t54 -140.5q0 -215 -358 -215l-20 45l28 45q105 0 167 18t83.5 46t21.5 71q0 32 -18.5 59.5t-82 67.5t-179.5 89l19 85z" />
    <glyph glyph-name="uniFB95" unicode="&#x6af;" horiz-adv-x="549" arabic-form="medial" 
d="M458 883l-4 -67l-393 -237l17 72zM557 90l12 -43l-20 -47q-90 0 -153 36t-129 133q-5 -76 -74.5 -122.5t-192.5 -46.5l-20 45l28 45q95 0 142 28t47 78q0 63 -68 148l-80 100l18 81l402 245l-5 -95l-336 -198l184 -232q58 -73 88.5 -102t64 -41t92.5 -12z" />
    <glyph glyph-name="uniFB97" unicode="&#x6b3;" horiz-adv-x="998" arabic-form="final" 
d="M918 883l-4 -67l-393 -237l17 72zM1006 90l12 -43l-20 -47q-90 0 -153 36t-129 133q-13 -183 -379 -183q-159 0 -225.5 49t-66.5 157q0 84 37 159l63 -21q-21 -66 -21 -125q0 -71 48.5 -100t172.5 -29q89 0 150.5 9.5t93 27t44.5 37.5t13 46q0 63 -68 148l-80 100l18 81
l402 245l-5 -95l-336 -198l184 -232q58 -73 88.5 -102t64 -41t92.5 -12zM380 -184q-21 0 -36.5 15t-15.5 37t15.5 37t36.5 15q22 0 37 -15t15 -37t-15 -37t-37 -15zM381 -228q21 0 36.5 -15t15.5 -37t-15.5 -37t-36.5 -15q-22 0 -37 15t-15 37t15 37t37 15z" />
    <glyph glyph-name="uniFB98" unicode="&#x6b3;" horiz-adv-x="466" arabic-form="initial" 
d="M418 883l-4 -67l-393 -237l17 72zM421 770l-5 -95l-322 -190q156 -70 210 -129.5t54 -140.5q0 -215 -358 -215l-20 45l28 45q105 0 167 18t83.5 46t21.5 71q0 32 -18.5 59.5t-82 67.5t-179.5 89l19 85zM113 -184q-21 0 -36.5 15t-15.5 37t15.5 37t36.5 15q22 0 37 -15
t15 -37t-15 -37t-37 -15zM114 -228q21 0 36.5 -15t15.5 -37t-15.5 -37t-36.5 -15q-22 0 -37 15t-15 37t15 37t37 15z" />
    <glyph glyph-name="uniFB99" unicode="&#x6b3;" horiz-adv-x="549" arabic-form="medial" 
d="M458 883l-4 -67l-393 -237l17 72zM557 90l12 -43l-20 -47q-90 0 -153 36t-129 133q-5 -76 -74.5 -122.5t-192.5 -46.5l-20 45l28 45q95 0 142 28t47 78q0 63 -68 148l-80 100l18 81l402 245l-5 -95l-336 -198l184 -232q58 -73 88.5 -102t64 -41t92.5 -12zM288 -184
q-21 0 -36.5 15t-15.5 37t15.5 37t36.5 15q22 0 37 -15t15 -37t-15 -37t-37 -15zM289 -228q21 0 36.5 -15t15.5 -37t-15.5 -37t-36.5 -15q-22 0 -37 15t-15 37t15 37t37 15z" />
    <glyph glyph-name="uniFB9B" unicode="&#x6b1;" horiz-adv-x="998" arabic-form="final" 
d="M469 796q-21 0 -36.5 15t-15.5 37t15.5 37t36.5 15q22 0 37 -15t15 -37t-15 -37t-37 -15zM624 796q-22 0 -37 15t-15 37t15 37t37 15q21 0 36.5 -15t15.5 -37t-15.5 -37t-36.5 -15zM914 816l-393 -237l17 72l380 232zM1006 90l12 -43l-20 -47q-90 0 -153 36t-129 133
q-13 -183 -379 -183q-159 0 -225.5 49t-66.5 157q0 84 37 159l63 -21q-21 -66 -21 -125q0 -71 48.5 -100t172.5 -29q89 0 150.5 9.5t93 27t44.5 37.5t13 46q0 63 -68 148l-80 100l18 81l402 245l-5 -95l-336 -198l184 -232q58 -73 88.5 -102t64 -41t92.5 -12z" />
    <glyph glyph-name="uniFB9C" unicode="&#x6b1;" horiz-adv-x="466" arabic-form="initial" 
d="M22 848q0 -22 -15 -37t-37 -15q-21 0 -36.5 15t-15.5 37t15.5 37t36.5 15q22 0 37 -15t15 -37zM125 796q-22 0 -37 15t-15 37t15 37t37 15q21 0 36.5 -15t15.5 -37t-15.5 -37t-36.5 -15zM414 816l-393 -237l17 72l380 232zM421 770l-5 -95l-322 -190q156 -70 210 -129.5
t54 -140.5q0 -215 -358 -215l-20 45l28 45q105 0 167 18t83.5 46t21.5 71q0 32 -18.5 59.5t-82 67.5t-179.5 89l19 85z" />
    <glyph glyph-name="uniFB9D" unicode="&#x6b1;" horiz-adv-x="549" arabic-form="medial" 
d="M65 848q0 -22 -15 -37t-37 -15q-21 0 -36.5 15t-15.5 37t15.5 37t36.5 15q22 0 37 -15t15 -37zM168 796q-22 0 -37 15t-15 37t15 37t37 15q21 0 36.5 -15t15.5 -37t-15.5 -37t-36.5 -15zM454 816l-393 -237l17 72l380 232zM557 90l12 -43l-20 -47q-90 0 -153 36t-129 133
q-5 -76 -74.5 -122.5t-192.5 -46.5l-20 45l28 45q95 0 142 28t47 78q0 63 -68 148l-80 100l18 81l402 245l-5 -95l-336 -198l184 -232q58 -73 88.5 -102t64 -41t92.5 -12z" />
    <glyph glyph-name="uniFB9F" unicode="&#x6ba;" horiz-adv-x="736" arabic-form="final" 
d="M756 45l-20 -45q-70 0 -111 37q-6 -162 -83 -229t-232 -67q-136 0 -200.5 66t-64.5 183q0 100 47 196l63 -19q-28 -77 -28 -164q0 -172 191 -172q124 0 175 49.5t51 168.5q0 57 -15 110t-50 130l92 37q4 -16 9.5 -34t13 -40t11.5 -34q24 -75 55 -101.5t84 -26.5z" />
    <glyph glyph-name="uniFBA1" unicode="&#x6bb;" horiz-adv-x="736" arabic-form="final" 
d="M440 421q0 -34 -24.5 -61t-75.5 -27h-154l6 50h26q8 12 11 18v142h49v-75q38 42 80 42q36 0 59 -25.5t23 -63.5zM260 383h71q33 0 47 9t14 30q0 37 -38 37q-44 0 -94 -76zM756 45l-20 -45q-70 0 -111 37q-6 -162 -83 -229t-232 -67q-136 0 -200.5 66t-64.5 183
q0 100 47 196l63 -19q-28 -77 -28 -164q0 -172 191 -172q124 0 175 49.5t51 168.5q0 57 -15 110t-50 130l92 37q4 -16 9.5 -34t13 -40t11.5 -34q24 -75 55 -101.5t84 -26.5z" />
    <glyph glyph-name="uniFBA2" unicode="&#x6bb;" horiz-adv-x="292" arabic-form="initial" 
d="M252 573q0 -34 -24.5 -61t-75.5 -27h-154l6 50h26q8 12 11 18v142h49v-75q38 42 80 42q36 0 59 -25.5t23 -63.5zM72 535h71q33 0 47 9t14 30q0 37 -38 37q-44 0 -94 -76zM109 387l86 28q42 -126 42 -233q0 -106 -50 -144t-187 -38l-20 45l28 45q91 0 119 20t28 77
q0 68 -46 200z" />
    <glyph glyph-name="uniFBA3" unicode="&#x6bb;" horiz-adv-x="346" arabic-form="medial" 
d="M298 509q0 -34 -24.5 -61t-75.5 -27h-154l6 50h26q8 12 11 18v142h49v-75q38 42 80 42q36 0 59 -25.5t23 -63.5zM118 471h71q33 0 47 9t14 30q0 37 -38 37q-44 0 -94 -76zM354 90l12 -45l-20 -45q-68 0 -107 16t-64 59q-23 -44 -62.5 -59.5t-112.5 -15.5l-20 45l29 45
q30 0 51.5 2.5t34.5 10t20.5 14t11 22t4 25.5t0.5 33v4v4v133h84v-133q0 -34 4 -53t18 -34.5t42 -21.5t75 -6z" />
    <glyph glyph-name="uniFBA5" unicode="&#x6c0;" horiz-adv-x="513" arabic-form="final" 
d="M275 572l-6 50l64 11q-42 37 -42 72q0 39 27 64.5t78 25.5q34 0 76 -22l-31 -49q-28 16 -52 16q-23 0 -33 -11t-10 -26q0 -27 42 -61l93 16l7 -51zM521 90l12 -46l-20 -44h-19q-111 0 -147 100q-26 -31 -67 -48.5t-84 -17.5q-76 0 -123.5 42.5t-47.5 110.5q0 86 84 151.5
t228 75.5v95l84 10v-317q0 -64 20 -88t61 -24h19zM210 118q75 0 127 54v161q-115 -4 -174 -43.5t-59 -93.5q0 -78 106 -78z" />
    <glyph glyph-name="uniFBA7" unicode="&#x6c1;" horiz-adv-x="597" arabic-form="final" 
d="M111 -46l-86 17q78 338 249 338q37 0 64.5 -12t45 -31.5t32.5 -42.5t30.5 -46.5t35 -43t51 -31.5t72.5 -12l12 -45l-20 -45q-69 0 -119 22.5t-76 55t-45 64.5t-38.5 54.5t-44.5 22.5q-55 0 -92.5 -66.5t-70.5 -198.5z" />
    <glyph glyph-name="uniFBA8" unicode="&#x6c1;" horiz-adv-x="292" arabic-form="initial" 
d="M8 90q91 0 119 20t28 77q0 68 -46 200l86 28q42 -126 42 -233q0 -106 -50 -144t-187 -38l-20 45zM130 -254q-26 0 -41.5 15t-15.5 43q0 29 21 77l30 69h34l-15 -100q40 -9 40 -53q0 -22 -15 -36.5t-38 -14.5z" />
    <glyph glyph-name="uniFBA9" unicode="&#x6c1;" horiz-adv-x="590" arabic-form="medial" 
d="M598 90l12 -45l-20 -45h-28q-160 0 -160 -161q0 -59 15 -124l-76 -25q-154 172 -157 377q-58 -67 -154 -67h-30l-20 45l28 45h31q66 0 108 53t78 170l9 30l78 -21q-42 -150 -42 -232q0 -72 13 -127t51 -126q-1 10 -1 27q0 112 61 169t178 57h26z" />
    <glyph glyph-name="uniFBAB" unicode="&#x6be;" horiz-adv-x="584" arabic-form="final" 
d="M604 45l-20 -45h-111q66 -49 66 -135q0 -63 -38 -101t-102 -38q-95 0 -162 77t-74 198q-90 4 -138 33l40 79q39 -19 98 -22q6 149 77.5 252.5t165.5 103.5q66 0 103.5 -42t37.5 -122q0 -49 -25.5 -103.5t-70.5 -89.5h141zM393 357q-58 0 -107 -74.5t-58 -192.5h52
q82 0 135 55.5t53 127.5q0 84 -75 84zM390 -184q36 0 55 20t19 50q0 52 -40 83t-108 31h-88q10 -87 54 -135.5t108 -48.5z" />
    <glyph glyph-name="uniFBAC" unicode="&#x6be;" horiz-adv-x="641" arabic-form="initial" 
d="M145 557q103 -61 161.5 -96.5t115.5 -73.5t83 -60.5t47.5 -50t27.5 -50.5t6 -53q0 -74 -50 -130.5t-116 -56.5q-107 0 -196 49q-84 -35 -195 -35h-29l-20 45l28 45h17q62 0 113 9q-76 79 -76 177q0 56 28 101t75 65l-66 37zM125 273q0 -85 105 -147q103 47 103 145
q0 49 -31 82t-75 33q-43 0 -72.5 -32t-29.5 -81zM420 76q43 0 70 21.5t27 55.5q0 35 -26.5 69t-96.5 82q2 -20 2 -28q0 -111 -82 -185q51 -15 106 -15z" />
    <glyph glyph-name="uniFBAD" unicode="&#x6be;" horiz-adv-x="480" arabic-form="medial" 
d="M500 45l-20 -45h-111q66 -49 66 -135q0 -63 -38 -101t-102 -38q-95 0 -162 77t-74 197h-59l-20 45l28 45h51q6 149 77.5 253t165.5 104q66 0 103.5 -42t37.5 -122q0 -49 -25.5 -103.5t-70.5 -89.5h141zM289 357q-58 0 -107 -74.5t-58 -192.5h52q82 0 135 55.5t53 127.5
q0 84 -75 84zM286 -184q36 0 55 20t19 50q0 52 -40 83t-108 31h-88q10 -87 54 -135.5t108 -48.5z" />
    <glyph glyph-name="uniFBAF" unicode="&#x6d2;" horiz-adv-x="778" arabic-form="final" 
d="M737 -275h-525q-89 0 -135.5 37t-46.5 91q0 94 89.5 166t259.5 72h407l12 -46l-20 -45h-417q-127 0 -191 -40t-64 -94q0 -51 86 -51h574z" />
    <glyph glyph-name="uniFBB1" unicode="&#x6d3;" horiz-adv-x="778" arabic-form="final" 
d="M359 270l7 -51l-213 -35l-6 50l64 11q-42 37 -42 72q0 39 27 64.5t78 25.5q34 0 76 -22l-31 -49q-28 16 -52 16q-23 0 -33 -11t-10 -26q0 -27 42 -61zM737 -275h-525q-89 0 -135.5 37t-46.5 91q0 94 89.5 166t259.5 72h407l12 -46l-20 -45h-417q-127 0 -191 -40t-64 -94
q0 -51 86 -51h574z" />
    <glyph glyph-name="uniFBD4" unicode="&#x6ad;" horiz-adv-x="834" arabic-form="final" 
d="M704 961q-20 0 -35.5 15t-15.5 36t15.5 36t35.5 15t35.5 -15t15.5 -36t-15.5 -36t-35.5 -15zM620 839q-22 0 -37 15t-15 36t15 36t37 15q20 0 35.5 -15t15.5 -36t-15.5 -36t-35.5 -15zM737 890q0 21 15.5 36t35.5 15q22 0 37 -15t15 -36t-15 -36t-37 -15q-20 0 -35.5 15
t-15.5 36zM842 90l12 -43l-20 -47q-47 0 -78.5 18t-58.5 57q-70 -45 -154 -67t-206 -22q-159 0 -225.5 49t-66.5 157q0 84 37 159l63 -21q-21 -66 -21 -125q0 -71 48.5 -100t172.5 -29q185 0 317 78v605l84 11v-573q0 -57 19.5 -82t76.5 -25zM290 326q142 0 142 33
q0 15 -22 25.5t-90 24.5l11 60l166 98l-4 -64l-102 -58q54 -16 76.5 -36t22.5 -50q0 -89 -191 -89z" />
    <glyph glyph-name="uniFBD5" unicode="&#x6ad;" horiz-adv-x="466" arabic-form="initial" 
d="M59 823q-20 0 -35.5 15t-15.5 36t15.5 36t35.5 15t35.5 -15t15.5 -36t-15.5 -36t-35.5 -15zM26 752q0 -21 -15.5 -36t-35.5 -15q-22 0 -37 15t-15 36t15 36t37 15q20 0 35.5 -15t15.5 -36zM92 752q0 21 15.5 36t35.5 15q22 0 37 -15t15 -36t-15 -36t-37 -15
q-20 0 -35.5 15t-15.5 36zM421 770l-5 -95l-322 -190q156 -70 210 -129.5t54 -140.5q0 -215 -358 -215l-20 45l28 45q105 0 167 18t83.5 46t21.5 71q0 32 -18.5 59.5t-82 67.5t-179.5 89l19 85z" />
    <glyph glyph-name="uniFBD6" unicode="&#x6ad;" horiz-adv-x="549" arabic-form="medial" 
d="M99 823q-20 0 -35.5 15t-15.5 36t15.5 36t35.5 15t35.5 -15t15.5 -36t-15.5 -36t-35.5 -15zM66 752q0 -21 -15.5 -36t-35.5 -15q-22 0 -37 15t-15 36t15 36t37 15q20 0 35.5 -15t15.5 -36zM132 752q0 21 15.5 36t35.5 15q22 0 37 -15t15 -36t-15 -36t-37 -15
q-20 0 -35.5 15t-15.5 36zM557 90l12 -43l-20 -47q-90 0 -153 36t-129 133q-5 -76 -74.5 -122.5t-192.5 -46.5l-20 45l28 45q95 0 142 28t47 78q0 63 -68 148l-80 100l18 81l402 245l-5 -95l-336 -198l184 -232q58 -73 88.5 -102t64 -41t92.5 -12z" />
    <glyph glyph-name="uniFBD8" unicode="&#x6c7;" horiz-adv-x="539" arabic-form="final" 
d="M190 420l-23 47q49 16 80 37q-65 29 -65 81q0 41 26 64.5t61 23.5q39 0 60.5 -25t21.5 -61q0 -47 -40.5 -92.5t-120.5 -74.5zM233 584q0 -28 53 -44q16 21 16 42q0 15 -9.5 25t-24.5 10q-35 0 -35 -33zM559 46l-20 -46h-103q-25 -106 -110 -172.5t-253 -101.5l-28 87
q140 31 213.5 76t99.5 111h-76q-104 0 -162 52.5t-58 135.5t56 142.5t136 59.5q85 0 139.5 -73.5t54.5 -200.5v-26h99zM289 90h86v12q0 100 -32.5 149.5t-90.5 49.5q-51 0 -84 -31t-33 -78q0 -102 154 -102z" />
    <glyph glyph-name="uniFBDA" unicode="&#x6c6;" horiz-adv-x="539" arabic-form="final" 
d="M279 430h-48l-76 142l45 18l56 -95l56 95l45 -18zM559 46l-20 -46h-103q-25 -106 -110 -172.5t-253 -101.5l-28 87q140 31 213.5 76t99.5 111h-76q-104 0 -162 52.5t-58 135.5t56 142.5t136 59.5q85 0 139.5 -73.5t54.5 -200.5v-26h99zM289 90h86v12q0 100 -32.5 149.5
t-90.5 49.5q-51 0 -84 -31t-33 -78q0 -102 154 -102z" />
    <glyph glyph-name="uniFBDC" unicode="&#x6c8;" horiz-adv-x="539" arabic-form="final" 
d="M284 623v-183h-57v176zM559 46l-20 -46h-103q-25 -106 -110 -172.5t-253 -101.5l-28 87q140 31 213.5 76t99.5 111h-76q-104 0 -162 52.5t-58 135.5t56 142.5t136 59.5q85 0 139.5 -73.5t54.5 -200.5v-26h99zM289 90h86v12q0 100 -32.5 149.5t-90.5 49.5q-51 0 -84 -31
t-33 -78q0 -102 154 -102z" />
    <glyph glyph-name="uniFBDF" unicode="&#x6cb;" horiz-adv-x="539" arabic-form="final" 
d="M256 581q-20 0 -35.5 15t-15.5 36t15.5 36t35.5 15t35.5 -15t15.5 -36t-15.5 -36t-35.5 -15zM172 459q-22 0 -37 15t-15 36t15 36t37 15q20 0 35.5 -15t15.5 -36t-15.5 -36t-35.5 -15zM289 510q0 21 15.5 36t35.5 15q22 0 37 -15t15 -36t-15 -36t-37 -15q-20 0 -35.5 15
t-15.5 36zM559 46l-20 -46h-103q-25 -106 -110 -172.5t-253 -101.5l-28 87q140 31 213.5 76t99.5 111h-76q-104 0 -162 52.5t-58 135.5t56 142.5t136 59.5q85 0 139.5 -73.5t54.5 -200.5v-26h99zM289 90h86v12q0 100 -32.5 149.5t-90.5 49.5q-51 0 -84 -31t-33 -78
q0 -102 154 -102z" />
    <glyph glyph-name="uniFBE1" unicode="&#x6c5;" horiz-adv-x="539" arabic-form="final" 
d="M559 46l-20 -46h-103q-25 -106 -110 -172.5t-253 -101.5l-28 87q133 30 205 71l-175 4l-32 53l269 -12q30 30 46 71h-76q-104 0 -162 52.5t-58 135.5t56 142.5t136 59.5q85 0 139.5 -73.5t54.5 -200.5v-26h99zM289 90h86v12q0 100 -32.5 149.5t-90.5 49.5q-51 0 -84 -31
t-33 -78q0 -102 154 -102z" />
    <glyph glyph-name="uniFBE3" unicode="&#x6c9;" horiz-adv-x="539" arabic-form="final" 
d="M256 550l-56 -95l-45 18l76 142h48l78 -142l-45 -18zM559 46l-20 -46h-103q-25 -106 -110 -172.5t-253 -101.5l-28 87q140 31 213.5 76t99.5 111h-76q-104 0 -162 52.5t-58 135.5t56 142.5t136 59.5q85 0 139.5 -73.5t54.5 -200.5v-26h99zM289 90h86v12
q0 100 -32.5 149.5t-90.5 49.5q-51 0 -84 -31t-33 -78q0 -102 154 -102z" />
    <glyph glyph-name="uniFBE5" unicode="&#x6d0;" horiz-adv-x="737" arabic-form="final" 
d="M757 45l-20 -45q-45 0 -84 17q7 -15 7 -35q0 -82 -92 -140t-258 -58q-136 0 -200.5 66t-64.5 183q0 100 47 196l63 -19q-28 -77 -28 -164q0 -172 191 -172q121 0 193 37.5t72 77.5q0 27 -36.5 47.5t-134.5 48.5l39 79q30 -9 81 -26.5t76.5 -25.5t63.5 -15t73 -7z
M319 -386q-21 0 -36.5 15t-15.5 37t15.5 37t36.5 15q22 0 37 -15t15 -37t-15 -37t-37 -15zM320 -430q21 0 36.5 -15t15.5 -37t-15.5 -37t-36.5 -15q-22 0 -37 15t-15 37t15 37t37 15z" />
    <glyph glyph-name="uniFBE6" unicode="&#x6d0;" horiz-adv-x="292" arabic-form="initial" 
d="M8 90q91 0 119 20t28 77q0 68 -46 200l86 28q42 -126 42 -233q0 -106 -50 -144t-187 -38l-20 45zM142 -184q-21 0 -36.5 15t-15.5 37t15.5 37t36.5 15q22 0 37 -15t15 -37t-15 -37t-37 -15zM143 -332q-22 0 -37 15t-15 37t15 37t37 15q21 0 36.5 -15t15.5 -37t-15.5 -37
t-36.5 -15z" />
    <glyph glyph-name="uniFBE7" unicode="&#x6d0;" horiz-adv-x="346" arabic-form="medial" 
d="M354 90l12 -45l-20 -45q-68 0 -107 16t-64 59q-23 -44 -62.5 -59.5t-112.5 -15.5l-20 45l29 45q30 0 51.5 2.5t34.5 10t20.5 14t11 22t4 25.5t0.5 33v4v4v133h84v-133q0 -34 4 -53t18 -34.5t42 -21.5t75 -6zM174 -184q-21 0 -36.5 15t-15.5 37t15.5 37t36.5 15
q22 0 37 -15t15 -37t-15 -37t-37 -15zM175 -228q21 0 36.5 -15t15.5 -37t-15.5 -37t-36.5 -15q-22 0 -37 15t-15 37t15 37t37 15z" />
    <glyph glyph-name="uniFBE8" unicode="&#x649;" horiz-adv-x="292" arabic-form="initial" 
d="M8 90q91 0 119 20t28 77q0 68 -46 200l86 28q42 -126 42 -233q0 -106 -50 -144t-187 -38l-20 45z" />
    <glyph glyph-name="uniFBE9" unicode="&#x649;" horiz-adv-x="346" arabic-form="medial" 
d="M354 90l12 -45l-20 -45q-68 0 -107 16t-64 59q-23 -44 -62.5 -59.5t-112.5 -15.5l-20 45l29 45q30 0 51.5 2.5t34.5 10t20.5 14t11 22t4 25.5t0.5 33v4v4v133h84v-133q0 -34 4 -53t18 -34.5t42 -21.5t75 -6z" />
    <glyph glyph-name="uniFBFD" unicode="&#x6cc;" horiz-adv-x="737" arabic-form="final" 
d="M757 45l-20 -45q-45 0 -84 17q7 -15 7 -35q0 -82 -92 -140t-258 -58q-136 0 -200.5 66t-64.5 183q0 100 47 196l63 -19q-28 -77 -28 -164q0 -172 191 -172q121 0 193 37.5t72 77.5q0 27 -36.5 47.5t-134.5 48.5l39 79q30 -9 81 -26.5t76.5 -25.5t63.5 -15t73 -7z" />
    <glyph glyph-name="uniFBFE" unicode="&#x6cc;" horiz-adv-x="292" arabic-form="initial" 
d="M8 90q91 0 119 20t28 77q0 68 -46 200l86 28q42 -126 42 -233q0 -106 -50 -144t-187 -38l-20 45zM63 -195q-21 0 -36.5 15t-15.5 37t15.5 37t36.5 15q22 0 37 -15t15 -37t-15 -37t-37 -15zM218 -195q-22 0 -37 15t-15 37t15 37t37 15q21 0 36.5 -15t15.5 -37t-15.5 -37
t-36.5 -15z" />
    <glyph glyph-name="uniFBFF" unicode="&#x6cc;" horiz-adv-x="346" arabic-form="medial" 
d="M354 90l12 -45l-20 -45q-68 0 -107 16t-64 59q-23 -44 -62.5 -59.5t-112.5 -15.5l-20 45l29 45q30 0 51.5 2.5t34.5 10t20.5 14t11 22t4 25.5t0.5 33v4v4v133h84v-133q0 -34 4 -53t18 -34.5t42 -21.5t75 -6zM95 -91q22 0 37 -15t15 -37t-15 -37t-37 -15q-21 0 -36.5 15
t-15.5 37t15.5 37t36.5 15zM250 -91q21 0 36.5 -15t15.5 -37t-15.5 -37t-36.5 -15q-22 0 -37 15t-15 37t15 37t37 15z" />
    <glyph glyph-name="uniFC5B" unicode="&#xfc5b;" horiz-adv-x="478" arabic-form="isolated" 
d="M137 942l57 7v-183h-57v176zM165 587q-23 0 -39 16t-16 39t16 39t39 16t39 -16t16 -39t-16 -39t-39 -16zM186 -14q-98 0 -161 21l27 88q68 -17 134 -17q37 0 73.5 7t67.5 27.5t31 50.5q0 68 -60 151.5t-136 156.5l66 59q205 -195 205 -367q0 -42 -18.5 -74.5t-45.5 -51.5
t-62.5 -31t-64.5 -16t-56 -4z" />
    <glyph glyph-name="uniFC5C" unicode="&#xfc5c;" horiz-adv-x="363" arabic-form="isolated" 
d="M158 603l57 7v-183h-57v176zM7 -251l-37 87q137 38 200 104t63 144q0 52 -16 103t-56 138l94 34q53 -146 53 -268q0 -125 -79 -212.5t-222 -129.5z" />
    <glyph glyph-name="uniFC61" unicode="&#xfc61;" arabic-form="isolated" 
d="M67 781l-23 47q49 16 80 37q-65 29 -65 81q0 41 26 64.5t61 23.5q39 0 60.5 -25t21.5 -61q0 -47 -40.5 -92.5t-120.5 -74.5zM110 945q0 -28 53 -44q16 21 16 42q0 15 -9.5 25t-24.5 10q-35 0 -35 -33zM241 785q18 -44 18 -86q0 -38 -20.5 -58t-52.5 -20q-34 0 -51 24
q-20 -29 -56 -29q-26 0 -48 19.5t-22 57.5q0 27 13 66l45 -10q-6 -22 -6 -45q0 -32 22 -32q12 0 20 10t8 29v37h47v-41q0 -32 24 -32q25 0 25 39q0 29 -12 56z" />
    <glyph glyph-name="uniFC63" unicode="&#xfc63;" arabic-form="isolated" 
d="M161 984v-183h-57v176zM241 785q18 -44 18 -86q0 -38 -20.5 -58t-52.5 -20q-34 0 -51 24q-20 -29 -56 -29q-26 0 -48 19.5t-22 57.5q0 27 13 66l45 -10q-6 -22 -6 -45q0 -32 22 -32q12 0 20 10t8 29v37h47v-41q0 -32 24 -32q25 0 25 39q0 29 -12 56z" />
    <glyph glyph-name="uniFD3C" unicode="&#xfd3c;" horiz-adv-x="237" arabic-form="final" 
d="M-2 773l2 56l218 42l-2 -56zM-2 688l2 56l218 42l-2 -56zM65 205v421l84 10v-425q0 -70 19.5 -95.5t76.5 -25.5l12 -45l-20 -45q-172 0 -172 205z" />
    <glyph glyph-name="uniFD3D" unicode="&#xfd3d;" horiz-adv-x="224" arabic-form="isolated" 
d="M1 773l2 56l218 42l-2 -56zM1 688l2 56l218 42l-2 -56zM154 0h-84v626l84 10v-636z" />
    <glyph glyph-name="uniFE70" unicode="&#xfe70;" horiz-adv-x="600" arabic-form="isolated" 
d="M33 674l2 56l218 42l-2 -56zM33 589l2 56l218 42l-2 -56z" />
    <glyph glyph-name="uniFE72" unicode="&#xfe72;" horiz-adv-x="600" arabic-form="isolated" 
d="M243 834q38 0 58 -25t20 -61q0 -44 -38 -90t-102 -79l-48 21q0 54 -21 54q-15 0 -39 -25l-28 33q38 43 70 43q53 0 62 -72q27 17 45 31q-66 29 -66 83q0 41 25.5 64t61.5 23zM206 743q0 -28 50 -45q18 25 18 45q0 15 -9 25t-23 10q-36 0 -36 -35z" />
    <glyph glyph-name="uniFE74" unicode="&#xfe74;" horiz-adv-x="600" arabic-form="isolated" 
d="M33 -157l2 56l218 42l-2 -56zM34 -235l2 56l218 42l-2 -56z" />
    <glyph glyph-name="uniFE76" unicode="&#xfe76;" horiz-adv-x="600" arabic-form="isolated" 
d="M33 593l2 56l218 42l-2 -56z" />
    <glyph glyph-name="uniFE78" unicode="&#xfe78;" horiz-adv-x="600" arabic-form="isolated" 
d="M113 824q39 0 60.5 -25t21.5 -61q0 -47 -40.5 -92.5t-120.5 -74.5l-23 47q49 16 80 37q-65 29 -65 81q0 41 26 64.5t61 23.5zM77 735q0 -28 53 -44q16 21 16 42q0 15 -9.5 25t-24.5 10q-35 0 -35 -33z" />
    <glyph glyph-name="uniFE7C" unicode="&#xfe7c;" horiz-adv-x="600" arabic-form="isolated" 
d="M241 785q18 -44 18 -86q0 -38 -20.5 -58t-52.5 -20q-34 0 -51 24q-20 -29 -56 -29q-26 0 -48 19.5t-22 57.5q0 27 13 66l45 -10q-6 -22 -6 -45q0 -32 22 -32q12 0 20 10t8 29v37h47v-41q0 -32 24 -32q25 0 25 39q0 29 -12 56z" />
    <glyph glyph-name="uniFE7E" unicode="&#xfe7e;" horiz-adv-x="600" arabic-form="isolated" 
d="M196 673q0 -42 -27.5 -68t-68.5 -26t-68.5 26t-27.5 68t27.5 68t68.5 26t68.5 -26t27.5 -68zM145 673q0 19 -12 31t-33 12t-33 -12t-12 -31t12 -31t33 -12t33 12t12 31z" />
    <glyph glyph-name="uniFE82" unicode="&#x622;" horiz-adv-x="237" arabic-form="final" 
d="M41 694l-48 14q12 37 36 61.5t52 24.5q22 0 50 -14.5t43 -14.5q17 0 40 16l23 -40q-37 -32 -74 -32q-16 0 -42.5 13.5t-38.5 13.5q-27 0 -41 -42zM65 205v421l84 10v-425q0 -70 19.5 -95.5t76.5 -25.5l12 -45l-20 -45q-172 0 -172 205z" />
    <glyph glyph-name="uniFE84" unicode="&#x623;" horiz-adv-x="237" arabic-form="final" 
d="M211 770l7 -51l-213 -35l-6 50l64 11q-42 37 -42 72q0 39 27 64.5t78 25.5q34 0 76 -22l-31 -49q-28 16 -52 16q-23 0 -33 -11t-10 -26q0 -27 42 -61zM245 90l12 -45l-20 -45q-172 0 -172 205v421l84 10v-425q0 -70 19.5 -95.5t76.5 -25.5z" />
    <glyph glyph-name="uniFE86" unicode="&#x624;" horiz-adv-x="539" arabic-form="final" 
d="M152 434l-6 50l64 11q-42 37 -42 72q0 39 27 64.5t78 25.5q34 0 76 -22l-31 -49q-28 16 -52 16q-23 0 -33 -11t-10 -26q0 -27 42 -61l93 16l7 -51zM559 46l-20 -46h-103q-25 -106 -110 -172.5t-253 -101.5l-28 87q140 31 213.5 76t99.5 111h-76q-104 0 -162 52.5
t-58 135.5t56 142.5t136 59.5q85 0 139.5 -73.5t54.5 -200.5v-26h99zM289 90h86v12q0 100 -32.5 149.5t-90.5 49.5q-51 0 -84 -31t-33 -78q0 -102 154 -102z" />
    <glyph glyph-name="uniFE88" unicode="&#x625;" horiz-adv-x="237" arabic-form="final" 
d="M245 90l12 -45l-20 -45q-172 0 -172 205v551l84 10v-555q0 -70 19.5 -95.5t76.5 -25.5zM133 -193l93 16l7 -51l-213 -35l-6 50l64 11q-42 37 -42 72q0 39 27 64.5t78 25.5q34 0 76 -22l-31 -49q-28 16 -52 16q-23 0 -33 -11t-10 -26q0 -27 42 -61z" />
    <glyph glyph-name="uniFE8A" unicode="&#x626;" horiz-adv-x="737" arabic-form="final" 
d="M249 384l7 -51l-213 -35l-6 50l64 11q-42 37 -42 72q0 39 27 64.5t78 25.5q34 0 76 -22l-31 -49q-28 16 -52 16q-23 0 -33 -11t-10 -26q0 -27 42 -61zM757 45l-20 -45q-45 0 -84 17q7 -15 7 -35q0 -82 -92 -140t-258 -58q-136 0 -200.5 66t-64.5 183q0 100 47 196l63 -19
q-28 -77 -28 -164q0 -172 191 -172q121 0 193 37.5t72 77.5q0 27 -36.5 47.5t-134.5 48.5l39 79q30 -9 81 -26.5t76.5 -25.5t63.5 -15t73 -7z" />
    <glyph glyph-name="uniFE8B" unicode="&#x626;" horiz-adv-x="292" arabic-form="initial" 
d="M23 460l-6 50l64 11q-42 37 -42 72q0 39 27 64.5t78 25.5q34 0 76 -22l-31 -49q-28 16 -52 16q-23 0 -33 -11t-10 -26q0 -27 42 -61l93 16l7 -51zM195 415q42 -126 42 -233q0 -106 -50 -144t-187 -38l-20 45l28 45q91 0 119 20t28 77q0 68 -46 200z" />
    <glyph glyph-name="uniFE8C" unicode="&#x626;" horiz-adv-x="346" arabic-form="medial" 
d="M69 396l-6 50l64 11q-42 37 -42 72q0 39 27 64.5t78 25.5q34 0 76 -22l-31 -49q-28 16 -52 16q-23 0 -33 -11t-10 -26q0 -27 42 -61l93 16l7 -51zM354 90l12 -45l-20 -45q-68 0 -107 16t-64 59q-23 -44 -62.5 -59.5t-112.5 -15.5l-20 45l29 45q30 0 51.5 2.5t34.5 10
t20.5 14t11 22t4 25.5t0.5 33v4v4v133h84v-133q0 -34 4 -53t18 -34.5t42 -21.5t75 -6z" />
    <glyph glyph-name="uniFE8E" unicode="&#x627;" horiz-adv-x="237" arabic-form="final" 
d="M65 205v551l84 10v-555q0 -70 19.5 -95.5t76.5 -25.5l12 -45l-20 -45q-172 0 -172 205z" />
    <glyph glyph-name="uniFE90" unicode="&#x628;" horiz-adv-x="976" arabic-form="final" 
d="M984 90l12 -43l-20 -47q-77 0 -120 18.5t-71 58.5q-85 -45 -189.5 -68t-258.5 -23q-159 0 -225.5 49t-66.5 157q0 84 37 159l63 -21q-21 -66 -21 -125q0 -71 48.5 -100t172.5 -29q130 0 236 22t169 56v184h84v-118q0 -78 28 -104t122 -26zM377 -98q23 0 39 -16t16 -39
t-16 -39t-39 -16t-39 16t-16 39t16 39t39 16z" />
    <glyph glyph-name="uniFE91" unicode="&#x628;" horiz-adv-x="292" arabic-form="initial" 
d="M8 90q91 0 119 20t28 77q0 68 -46 200l86 28q42 -126 42 -233q0 -106 -50 -144t-187 -38l-20 45zM141 -208q-23 0 -39 16t-16 39t16 39t39 16t39 -16t16 -39t-16 -39t-39 -16z" />
    <glyph glyph-name="uniFE92" unicode="&#x628;" horiz-adv-x="346" arabic-form="medial" 
d="M354 90l12 -45l-20 -45q-68 0 -107 16t-64 59q-23 -44 -62.5 -59.5t-112.5 -15.5l-20 45l29 45q30 0 51.5 2.5t34.5 10t20.5 14t11 22t4 25.5t0.5 33v4v4v133h84v-133q0 -34 4 -53t18 -34.5t42 -21.5t75 -6zM173 -98q23 0 39 -16t16 -39t-16 -39t-39 -16t-39 16t-16 39
t16 39t39 16z" />
    <glyph glyph-name="uniFE94" unicode="&#x629;" horiz-adv-x="513" arabic-form="final" 
d="M301 621q-21 0 -36.5 15t-15.5 37t15.5 37t36.5 15q22 0 37 -15t15 -37t-15 -37t-37 -15zM456 621q-22 0 -37 15t-15 37t15 37t37 15q21 0 36.5 -15t15.5 -37t-15.5 -37t-36.5 -15zM521 90l12 -46l-20 -44h-19q-111 0 -147 100q-26 -31 -67 -48.5t-84 -17.5
q-76 0 -123.5 42.5t-47.5 110.5q0 86 84 151.5t228 75.5v95l84 10v-317q0 -64 20 -88t61 -24h19zM210 118q75 0 127 54v161q-115 -4 -174 -43.5t-59 -93.5q0 -78 106 -78z" />
    <glyph glyph-name="uniFE96" unicode="&#x62a;" horiz-adv-x="976" arabic-form="final" 
d="M379 405q-21 0 -36.5 15t-15.5 37t15.5 37t36.5 15q22 0 37 -15t15 -37t-15 -37t-37 -15zM534 405q-22 0 -37 15t-15 37t15 37t37 15q21 0 36.5 -15t15.5 -37t-15.5 -37t-36.5 -15zM984 90l12 -43l-20 -47q-77 0 -120 18.5t-71 58.5q-85 -45 -189.5 -68t-258.5 -23
q-159 0 -225.5 49t-66.5 157q0 84 37 159l63 -21q-21 -66 -21 -125q0 -71 48.5 -100t172.5 -29q130 0 236 22t169 56v184h84v-118q0 -78 28 -104t122 -26z" />
    <glyph glyph-name="uniFE97" unicode="&#x62a;" horiz-adv-x="292" arabic-form="initial" 
d="M49 509q-21 0 -36.5 15t-15.5 37t15.5 37t36.5 15q22 0 37 -15t15 -37t-15 -37t-37 -15zM204 509q-22 0 -37 15t-15 37t15 37t37 15q21 0 36.5 -15t15.5 -37t-15.5 -37t-36.5 -15zM8 90q91 0 119 20t28 77q0 68 -46 200l86 28q42 -126 42 -233q0 -106 -50 -144t-187 -38
l-20 45z" />
    <glyph glyph-name="uniFE98" unicode="&#x62a;" horiz-adv-x="346" arabic-form="medial" 
d="M95 445q-21 0 -36.5 15t-15.5 37t15.5 37t36.5 15q22 0 37 -15t15 -37t-15 -37t-37 -15zM250 445q-22 0 -37 15t-15 37t15 37t37 15q21 0 36.5 -15t15.5 -37t-15.5 -37t-36.5 -15zM354 90l12 -45l-20 -45q-68 0 -107 16t-64 59q-23 -44 -62.5 -59.5t-112.5 -15.5l-20 45
l29 45q30 0 51.5 2.5t34.5 10t20.5 14t11 22t4 25.5t0.5 33v4v4v133h84v-133q0 -34 4 -53t18 -34.5t42 -21.5t75 -6z" />
    <glyph glyph-name="uniFE9A" unicode="&#x62b;" horiz-adv-x="976" arabic-form="final" 
d="M457 503q-20 0 -35.5 15t-15.5 36t15.5 36t35.5 15t35.5 -15t15.5 -36t-15.5 -36t-35.5 -15zM373 381q-22 0 -37 15t-15 36t15 36t37 15q20 0 35.5 -15t15.5 -36t-15.5 -36t-35.5 -15zM490 432q0 21 15.5 36t35.5 15q22 0 37 -15t15 -36t-15 -36t-37 -15q-20 0 -35.5 15
t-15.5 36zM984 90l12 -43l-20 -47q-77 0 -120 18.5t-71 58.5q-85 -45 -189.5 -68t-258.5 -23q-159 0 -225.5 49t-66.5 157q0 84 37 159l63 -21q-21 -66 -21 -125q0 -71 48.5 -100t172.5 -29q130 0 236 22t169 56v184h84v-118q0 -78 28 -104t122 -26z" />
    <glyph glyph-name="uniFE9B" unicode="&#x62b;" horiz-adv-x="292" arabic-form="initial" 
d="M127 607q-20 0 -35.5 15t-15.5 36t15.5 36t35.5 15t35.5 -15t15.5 -36t-15.5 -36t-35.5 -15zM43 485q-22 0 -37 15t-15 36t15 36t37 15q20 0 35.5 -15t15.5 -36t-15.5 -36t-35.5 -15zM211 485q-20 0 -35.5 15t-15.5 36t15.5 36t35.5 15q22 0 37 -15t15 -36t-15 -36
t-37 -15zM8 90q91 0 119 20t28 77q0 68 -46 200l86 28q42 -126 42 -233q0 -106 -50 -144t-187 -38l-20 45z" />
    <glyph glyph-name="uniFE9C" unicode="&#x62b;" horiz-adv-x="346" arabic-form="medial" 
d="M173 543q-20 0 -35.5 15t-15.5 36t15.5 36t35.5 15t35.5 -15t15.5 -36t-15.5 -36t-35.5 -15zM89 421q-22 0 -37 15t-15 36t15 36t37 15q20 0 35.5 -15t15.5 -36t-15.5 -36t-35.5 -15zM206 472q0 21 15.5 36t35.5 15q22 0 37 -15t15 -36t-15 -36t-37 -15q-20 0 -35.5 15
t-15.5 36zM354 90l12 -45l-20 -45q-68 0 -107 16t-64 59q-23 -44 -62.5 -59.5t-112.5 -15.5l-20 45l29 45q30 0 51.5 2.5t34.5 10t20.5 14t11 22t4 25.5t0.5 33v4v4v133h84v-133q0 -34 4 -53t18 -34.5t42 -21.5t75 -6z" />
    <glyph glyph-name="uniFE9E" unicode="&#x62c;" horiz-adv-x="663" arabic-form="final" 
d="M663 0q-99 0 -150.5 46t-59.5 142h1q-171 -18 -253 -91t-82 -171t70.5 -149t206.5 -51q127 0 218 47l34 -79q-98 -60 -261 -60q-171 0 -256 74t-85 203q0 143 103 237.5t307 114.5q-37 17 -79.5 47t-77 46.5t-77.5 16.5q-67 0 -130 -38l-42 78q82 51 179 51q48 0 89 -17
t71.5 -42t60.5 -51.5t71.5 -49t89.5 -30.5l-10 -78l-80 -3q14 -65 43.5 -84t106.5 -19l12 -45zM305 -67q0 23 16 39t39 16t39 -16t16 -39t-16 -39t-39 -16t-39 16t-16 39z" />
    <glyph glyph-name="uniFE9F" unicode="&#x62c;" horiz-adv-x="706" arabic-form="initial" 
d="M236 464q48 0 85 -9t62.5 -24t47 -34t43.5 -40.5t46.5 -41.5t62 -39t84.5 -31l-12 -78l-101 -8q-77 -6 -153.5 -32.5t-128.5 -54t-125 -50t-147 -22.5l-20 45l28 45q65 0 129.5 19t111.5 43t119.5 48.5t146.5 32.5q-44 19 -81.5 46.5t-57.5 46.5t-57 33.5t-88 14.5
q-58 0 -121 -37l-42 78q84 49 168 49zM306 -98q23 0 39 -16t16 -39t-16 -39t-39 -16t-39 16t-16 39t16 39t39 16z" />
    <glyph glyph-name="uniFEA0" unicode="&#x62c;" horiz-adv-x="712" arabic-form="medial" 
d="M720 90l12 -45l-20 -45q-213 0 -233 183q-53 -13 -117 -45.5t-112.5 -62t-116 -52.5t-133.5 -23l-20 45l28 45q63 0 127 22t112 49.5t119 57t142 40.5q-42 14 -80 36t-59.5 38t-57 28.5t-80.5 12.5q-58 0 -121 -37l-42 78q84 49 164 49q62 0 106 -13.5t74 -36t59.5 -47
t79.5 -50.5t116 -42l-12 -78l-104 -4h-5q15 -66 52.5 -84.5t121.5 -18.5zM396 -48q23 0 39 -16t16 -39t-16 -39t-39 -16t-39 16t-16 39t16 39t39 16z" />
    <glyph glyph-name="uniFEA2" unicode="&#x62d;" horiz-adv-x="663" arabic-form="final" 
d="M663 0q-99 0 -150.5 46t-59.5 142h1q-171 -18 -253 -91t-82 -171t70.5 -149t206.5 -51q127 0 218 47l34 -79q-98 -60 -261 -60q-171 0 -256 74t-85 203q0 143 103 237.5t307 114.5q-37 17 -79.5 47t-77 46.5t-77.5 16.5q-67 0 -130 -38l-42 78q82 51 179 51q48 0 89 -17
t71.5 -42t60.5 -51.5t71.5 -49t89.5 -30.5l-10 -78l-80 -3q14 -65 43.5 -84t106.5 -19l12 -45z" />
    <glyph glyph-name="uniFEA3" unicode="&#x62d;" horiz-adv-x="706" arabic-form="initial" 
d="M236 464q48 0 85 -9t62.5 -24t47 -34t43.5 -40.5t46.5 -41.5t62 -39t84.5 -31l-12 -78l-101 -8q-77 -6 -153.5 -32.5t-128.5 -54t-125 -50t-147 -22.5l-20 45l28 45q65 0 129.5 19t111.5 43t119.5 48.5t146.5 32.5q-44 19 -81.5 46.5t-57.5 46.5t-57 33.5t-88 14.5
q-58 0 -121 -37l-42 78q84 49 168 49z" />
    <glyph glyph-name="uniFEA4" unicode="&#x62d;" horiz-adv-x="712" arabic-form="medial" 
d="M720 90l12 -45l-20 -45q-213 0 -233 183q-53 -13 -117 -45.5t-112.5 -62t-116 -52.5t-133.5 -23l-20 45l28 45q63 0 127 22t112 49.5t119 57t142 40.5q-42 14 -80 36t-59.5 38t-57 28.5t-80.5 12.5q-58 0 -121 -37l-42 78q84 49 164 49q62 0 106 -13.5t74 -36t59.5 -47
t79.5 -50.5t116 -42l-12 -78l-104 -4h-5q15 -66 52.5 -84.5t121.5 -18.5z" />
    <glyph glyph-name="uniFEA6" unicode="&#x62e;" horiz-adv-x="663" arabic-form="final" 
d="M228 530q-23 0 -39 16t-16 39t16 39t39 16t39 -16t16 -39t-16 -39t-39 -16zM663 0q-99 0 -150.5 46t-59.5 142h1q-171 -18 -253 -91t-82 -171t70.5 -149t206.5 -51q127 0 218 47l34 -79q-98 -60 -261 -60q-171 0 -256 74t-85 203q0 143 103 237.5t307 114.5
q-37 17 -79.5 47t-77 46.5t-77.5 16.5q-67 0 -130 -38l-42 78q82 51 179 51q48 0 89 -17t71.5 -42t60.5 -51.5t71.5 -49t89.5 -30.5l-10 -78l-80 -3q14 -65 43.5 -84t106.5 -19l12 -45z" />
    <glyph glyph-name="uniFEA7" unicode="&#x62e;" horiz-adv-x="706" arabic-form="initial" 
d="M233 530q-23 0 -39 16t-16 39t16 39t39 16t39 -16t16 -39t-16 -39t-39 -16zM236 464q48 0 85 -9t62.5 -24t47 -34t43.5 -40.5t46.5 -41.5t62 -39t84.5 -31l-12 -78l-101 -8q-77 -6 -153.5 -32.5t-128.5 -54t-125 -50t-147 -22.5l-20 45l28 45q65 0 129.5 19t111.5 43
t119.5 48.5t146.5 32.5q-44 19 -81.5 46.5t-57.5 46.5t-57 33.5t-88 14.5q-58 0 -121 -37l-42 78q84 49 168 49z" />
    <glyph glyph-name="uniFEA8" unicode="&#x62e;" horiz-adv-x="712" arabic-form="medial" 
d="M229 530q-23 0 -39 16t-16 39t16 39t39 16t39 -16t16 -39t-16 -39t-39 -16zM720 90l12 -45l-20 -45q-213 0 -233 183q-53 -13 -117 -45.5t-112.5 -62t-116 -52.5t-133.5 -23l-20 45l28 45q63 0 127 22t112 49.5t119 57t142 40.5q-42 14 -80 36t-59.5 38t-57 28.5
t-80.5 12.5q-58 0 -121 -37l-42 78q84 49 164 49q62 0 106 -13.5t74 -36t59.5 -47t79.5 -50.5t116 -42l-12 -78l-104 -4h-5q15 -66 52.5 -84.5t121.5 -18.5z" />
    <glyph glyph-name="uniFEAA" unicode="&#x62f;" horiz-adv-x="532" arabic-form="final" 
d="M540 90l12 -45l-20 -45q-47 0 -84 23t-58 62q-54 -99 -206 -99q-82 0 -159 21l27 88q77 -17 138 -17q104 0 172 63l-153 344l89 42l124 -318q27 -69 49 -94t69 -25z" />
    <glyph glyph-name="uniFEAC" unicode="&#x630;" horiz-adv-x="532" arabic-form="final" 
d="M211 590q-23 0 -39 16t-16 39t16 39t39 16t39 -16t16 -39t-16 -39t-39 -16zM540 90l12 -45l-20 -45q-47 0 -84 23t-58 62q-54 -99 -206 -99q-82 0 -159 21l27 88q77 -17 138 -17q104 0 172 63l-153 344l89 42l124 -318q27 -69 49 -94t69 -25z" />
    <glyph glyph-name="uniFEAE" unicode="&#x631;" horiz-adv-x="413" arabic-form="final" 
d="M421 90l12 -45l-20 -45q-78 0 -109 49q-25 -224 -297 -300l-37 87q137 38 200.5 104t63.5 144q0 79 -78 243l95 30q11 -32 39 -128q21 -79 48.5 -109t82.5 -30z" />
    <glyph glyph-name="uniFEB0" unicode="&#x632;" horiz-adv-x="413" arabic-form="final" 
d="M178 443q-23 0 -39 16t-16 39t16 39t39 16t39 -16t16 -39t-16 -39t-39 -16zM421 90l12 -45l-20 -45q-78 0 -109 49q-25 -224 -297 -300l-37 87q137 38 200.5 104t63.5 144q0 79 -78 243l95 30q11 -32 39 -128q21 -79 48.5 -109t82.5 -30z" />
    <glyph glyph-name="uniFEB2" unicode="&#x633;" horiz-adv-x="1340" arabic-form="final" 
d="M1348 90l12 -43l-20 -47q-131 0 -169 67q-45 -67 -151 -67q-93 0 -138 67q-47 -67 -146 -67h-1q-70 0 -110 37q-6 -162 -83 -229t-232 -67q-136 0 -200.5 66t-64.5 183q0 100 47 196l63 -19q-28 -77 -28 -164q0 -172 191 -172q124 0 175 49.5t51 168.5q0 57 -15 110
t-50 130l92 37q4 -16 9.5 -34t13 -40t11.5 -34q24 -75 55 -101.5t84 -26.5q94 0 94 118v130h82v-129q0 -64 26.5 -91.5t79.5 -27.5q93 0 93 96v190h84v-181q0 -60 31 -82.5t114 -22.5z" />
    <glyph glyph-name="uniFEB3" unicode="&#x633;" horiz-adv-x="835" arabic-form="initial" 
d="M738 415q42 -111 42 -221q0 -99 -46.5 -146.5t-126.5 -47.5q-93 0 -138 67q-47 -67 -141 -67q-46 0 -84 17t-58 47q-47 -64 -186 -64l-20 46l28 44q68 0 102.5 21.5t34.5 75.5v151h81v-129q0 -71 26 -95t77 -24q96 0 96 118v130h82v-129q0 -64 26.5 -91.5t79.5 -27.5
q44 0 64.5 22.5t20.5 73.5q0 85 -41 202z" />
    <glyph glyph-name="uniFEB4" unicode="&#x633;" horiz-adv-x="929" arabic-form="medial" 
d="M937 90l12 -43l-20 -47q-131 0 -169 67q-45 -67 -151 -67q-93 0 -138 67q-47 -67 -141 -67q-46 0 -84 17t-58 47q-47 -64 -188 -64l-20 46l29 44q69 0 103.5 21.5t34.5 75.5v151h81v-129q0 -71 26 -95t77 -24q96 0 96 118v130h82v-129q0 -64 26.5 -91.5t79.5 -27.5
q93 0 93 96v182h84v-173q0 -60 31 -82.5t114 -22.5z" />
    <glyph glyph-name="uniFEB6" unicode="&#x634;" horiz-adv-x="1340" arabic-form="final" 
d="M879 543q-20 0 -35.5 15t-15.5 36t15.5 36t35.5 15t35.5 -15t15.5 -36t-15.5 -36t-35.5 -15zM795 421q-22 0 -37 15t-15 36t15 36t37 15q20 0 35.5 -15t15.5 -36t-15.5 -36t-35.5 -15zM912 472q0 21 15.5 36t35.5 15q22 0 37 -15t15 -36t-15 -36t-37 -15q-20 0 -35.5 15
t-15.5 36zM1348 90l12 -43l-20 -47q-131 0 -169 67q-45 -67 -151 -67q-93 0 -138 67q-47 -67 -146 -67h-1q-70 0 -110 37q-6 -162 -83 -229t-232 -67q-136 0 -200.5 66t-64.5 183q0 100 47 196l63 -19q-28 -77 -28 -164q0 -172 191 -172q124 0 175 49.5t51 168.5
q0 57 -15 110t-50 130l92 37q4 -16 9.5 -34t13 -40t11.5 -34q24 -75 55 -101.5t84 -26.5q94 0 94 118v130h82v-129q0 -64 26.5 -91.5t79.5 -27.5q93 0 93 96v190h84v-181q0 -60 31 -82.5t114 -22.5z" />
    <glyph glyph-name="uniFEB7" unicode="&#x634;" horiz-adv-x="835" arabic-form="initial" 
d="M466 543q-20 0 -35.5 15t-15.5 36t15.5 36t35.5 15t35.5 -15t15.5 -36t-15.5 -36t-35.5 -15zM382 421q-22 0 -37 15t-15 36t15 36t37 15q20 0 35.5 -15t15.5 -36t-15.5 -36t-35.5 -15zM499 472q0 21 15.5 36t35.5 15q22 0 37 -15t15 -36t-15 -36t-37 -15q-20 0 -35.5 15
t-15.5 36zM738 415q42 -111 42 -221q0 -99 -46.5 -146.5t-126.5 -47.5q-93 0 -138 67q-47 -67 -141 -67q-46 0 -84 17t-58 47q-47 -64 -186 -64l-20 46l28 44q68 0 102.5 21.5t34.5 75.5v151h81v-129q0 -71 26 -95t77 -24q96 0 96 118v130h82v-129q0 -64 26.5 -91.5
t79.5 -27.5q44 0 64.5 22.5t20.5 73.5q0 85 -41 202z" />
    <glyph glyph-name="uniFEB8" unicode="&#x634;" horiz-adv-x="929" arabic-form="medial" 
d="M468 543q-20 0 -35.5 15t-15.5 36t15.5 36t35.5 15t35.5 -15t15.5 -36t-15.5 -36t-35.5 -15zM384 421q-22 0 -37 15t-15 36t15 36t37 15q20 0 35.5 -15t15.5 -36t-15.5 -36t-35.5 -15zM501 472q0 21 15.5 36t35.5 15q22 0 37 -15t15 -36t-15 -36t-37 -15q-20 0 -35.5 15
t-15.5 36zM937 90l12 -43l-20 -47q-131 0 -169 67q-45 -67 -151 -67q-93 0 -138 67q-47 -67 -141 -67q-46 0 -84 17t-58 47q-47 -64 -188 -64l-20 46l29 44q69 0 103.5 21.5t34.5 75.5v151h81v-129q0 -71 26 -95t77 -24q96 0 96 118v130h82v-129q0 -64 26.5 -91.5
t79.5 -27.5q93 0 93 96v182h84v-173q0 -60 31 -82.5t114 -22.5z" />
    <glyph glyph-name="uniFEBA" unicode="&#x635;" horiz-adv-x="1369" arabic-form="final" 
d="M1377 90l12 -45l-20 -45q-82 0 -132 72q-42 -43 -132.5 -57.5t-264.5 -14.5h-104q-70 0 -111 37q-6 -162 -83 -229t-232 -67q-136 0 -200.5 66t-64.5 183q0 100 47 196l63 -19q-28 -77 -28 -164q0 -172 191 -172q124 0 175 49.5t51 168.5q0 57 -15 110t-50 130l92 37
q4 -16 9.5 -34t13 -40t11.5 -34q18 -58 40 -86t54 -37q58 170 161.5 267t213.5 97q91 0 150 -63t59 -177q0 -45 -9 -79q36 -50 103 -50zM840 90q214 0 292 25.5t78 109.5q0 46 -12.5 77t-34.5 44t-40.5 17t-42.5 4q-89 0 -163.5 -63.5t-141.5 -213.5h65z" />
    <glyph glyph-name="uniFEBB" unicode="&#x635;" horiz-adv-x="935" arabic-form="initial" 
d="M671 459q91 0 150 -63t59 -177q0 -58 -15.5 -96.5t-44.5 -63.5t-86 -37.5t-123.5 -17t-173.5 -4.5h-104q-63 0 -101.5 15.5t-63.5 57.5q-23 -43 -61 -58t-107 -15l-20 45l29 45q42 0 66.5 5.5t34.5 21.5t12 30t2 46v9v194h84v-194q0 -56 16.5 -80t70.5 -30
q57 172 161 269.5t215 97.5zM437 90q214 0 292 25.5t78 109.5q0 46 -12.5 77t-34.5 44t-40.5 17t-42.5 4q-89 0 -163.5 -63.5t-141.5 -213.5h65z" />
    <glyph glyph-name="uniFEBC" unicode="&#x635;" horiz-adv-x="966" arabic-form="medial" 
d="M974 90l12 -45l-20 -45q-82 0 -132 72q-42 -43 -132.5 -57.5t-264.5 -14.5h-104q-63 0 -101.5 15.5t-63.5 57.5q-23 -43 -61 -58t-107 -15l-20 45l29 45q42 0 66.5 5.5t34.5 21.5t12 30t2 46v9v194h84v-194q0 -56 16.5 -80t70.5 -30q57 172 161 269.5t215 97.5
q91 0 150 -63t59 -177q0 -45 -9 -79q36 -50 103 -50zM437 90q214 0 292 25.5t78 109.5q0 46 -12.5 77t-34.5 44t-40.5 17t-42.5 4q-89 0 -163.5 -63.5t-141.5 -213.5h65z" />
    <glyph glyph-name="uniFEBE" unicode="&#x636;" horiz-adv-x="1369" arabic-form="final" 
d="M1041 525q-23 0 -39 16t-16 39t16 39t39 16t39 -16t16 -39t-16 -39t-39 -16zM1377 90l12 -45l-20 -45q-82 0 -132 72q-42 -43 -132.5 -57.5t-264.5 -14.5h-104q-70 0 -111 37q-6 -162 -83 -229t-232 -67q-136 0 -200.5 66t-64.5 183q0 100 47 196l63 -19
q-28 -77 -28 -164q0 -172 191 -172q124 0 175 49.5t51 168.5q0 57 -15 110t-50 130l92 37q4 -16 9.5 -34t13 -40t11.5 -34q18 -58 40 -86t54 -37q58 170 161.5 267t213.5 97q91 0 150 -63t59 -177q0 -45 -9 -79q36 -50 103 -50zM840 90q214 0 292 25.5t78 109.5
q0 46 -12.5 77t-34.5 44t-40.5 17t-42.5 4q-89 0 -163.5 -63.5t-141.5 -213.5h65z" />
    <glyph glyph-name="uniFEBF" unicode="&#x636;" horiz-adv-x="935" arabic-form="initial" 
d="M638 525q-23 0 -39 16t-16 39t16 39t39 16t39 -16t16 -39t-16 -39t-39 -16zM671 459q91 0 150 -63t59 -177q0 -58 -15.5 -96.5t-44.5 -63.5t-86 -37.5t-123.5 -17t-173.5 -4.5h-104q-63 0 -101.5 15.5t-63.5 57.5q-23 -43 -61 -58t-107 -15l-20 45l29 45q42 0 66.5 5.5
t34.5 21.5t12 30t2 46v9v194h84v-194q0 -56 16.5 -80t70.5 -30q57 172 161 269.5t215 97.5zM437 90q214 0 292 25.5t78 109.5q0 46 -12.5 77t-34.5 44t-40.5 17t-42.5 4q-89 0 -163.5 -63.5t-141.5 -213.5h65z" />
    <glyph glyph-name="uniFEC0" unicode="&#x636;" horiz-adv-x="966" arabic-form="medial" 
d="M638 525q-23 0 -39 16t-16 39t16 39t39 16t39 -16t16 -39t-16 -39t-39 -16zM974 90l12 -45l-20 -45q-82 0 -132 72q-42 -43 -132.5 -57.5t-264.5 -14.5h-104q-63 0 -101.5 15.5t-63.5 57.5q-23 -43 -61 -58t-107 -15l-20 45l29 45q42 0 66.5 5.5t34.5 21.5t12 30t2 46v9
v194h84v-194q0 -56 16.5 -80t70.5 -30q57 172 161 269.5t215 97.5q91 0 150 -63t59 -177q0 -45 -9 -79q36 -50 103 -50zM437 90q214 0 292 25.5t78 109.5q0 46 -12.5 77t-34.5 44t-40.5 17t-42.5 4q-89 0 -163.5 -63.5t-141.5 -213.5h65z" />
    <glyph glyph-name="uniFEC2" unicode="&#x637;" horiz-adv-x="830" arabic-form="final" 
d="M838 90l12 -45l-20 -45q-82 0 -132 72q-42 -43 -132.5 -57.5t-264.5 -14.5h-271l18 90h110l21 56v610l84 11v-471q59 79 130 121t142 42q91 0 150 -63t59 -177q0 -45 -9 -79q36 -50 103 -50zM301 90q214 0 292 25.5t78 109.5q0 46 -12.5 77t-34.5 44t-40.5 17t-42.5 4
q-89 0 -163.5 -63.5t-141.5 -213.5h65z" />
    <glyph glyph-name="uniFEC3" unicode="&#x637;" horiz-adv-x="767" arabic-form="initial" 
d="M503 459q91 0 150 -63t59 -177q0 -58 -15.5 -96.5t-44.5 -63.5t-86 -37.5t-123.5 -17t-173.5 -4.5h-271l1 3l-19 43l28 44h118l21 56v610l84 11v-471q59 79 130 121t142 42zM269 90q214 0 292 25.5t78 109.5q0 46 -12.5 77t-34.5 44t-40.5 17t-42.5 4q-89 0 -163.5 -63.5
t-141.5 -213.5h65z" />
    <glyph glyph-name="uniFEC4" unicode="&#x637;" horiz-adv-x="798" arabic-form="medial" 
d="M806 90l12 -45l-20 -45q-82 0 -132 72q-42 -43 -132.5 -57.5t-264.5 -14.5h-271l1 3l-19 43l28 44h118l21 56v610l84 11v-471q59 79 130 121t142 42q91 0 150 -63t59 -177q0 -45 -9 -79q36 -50 103 -50zM269 90q214 0 292 25.5t78 109.5q0 46 -12.5 77t-34.5 44t-40.5 17
t-42.5 4q-89 0 -163.5 -63.5t-141.5 -213.5h65z" />
    <glyph glyph-name="uniFEC6" unicode="&#x638;" horiz-adv-x="830" arabic-form="final" 
d="M838 90l12 -45l-20 -45q-82 0 -132 72q-42 -43 -132.5 -57.5t-264.5 -14.5h-271l18 90h110l21 56v610l84 11v-471q59 79 130 121t142 42q91 0 150 -63t59 -177q0 -45 -9 -79q36 -50 103 -50zM502 525q-23 0 -39 16t-16 39t16 39t39 16t39 -16t16 -39t-16 -39t-39 -16z
M301 90q214 0 292 25.5t78 109.5q0 46 -12.5 77t-34.5 44t-40.5 17t-42.5 4q-89 0 -163.5 -63.5t-141.5 -213.5h65z" />
    <glyph glyph-name="uniFEC7" unicode="&#x638;" horiz-adv-x="767" arabic-form="initial" 
d="M503 459q91 0 150 -63t59 -177q0 -58 -15.5 -96.5t-44.5 -63.5t-86 -37.5t-123.5 -17t-173.5 -4.5h-271l1 3l-19 43l28 44h118l21 56v610l84 11v-471q59 79 130 121t142 42zM470 525q-23 0 -39 16t-16 39t16 39t39 16t39 -16t16 -39t-16 -39t-39 -16zM269 90
q214 0 292 25.5t78 109.5q0 46 -12.5 77t-34.5 44t-40.5 17t-42.5 4q-89 0 -163.5 -63.5t-141.5 -213.5h65z" />
    <glyph glyph-name="uniFEC8" unicode="&#x638;" horiz-adv-x="798" arabic-form="medial" 
d="M806 90l12 -45l-20 -45q-82 0 -132 72q-42 -43 -132.5 -57.5t-264.5 -14.5h-271l1 3l-19 43l28 44h118l21 56v610l84 11v-471q59 79 130 121t142 42q91 0 150 -63t59 -177q0 -45 -9 -79q36 -50 103 -50zM470 525q-23 0 -39 16t-16 39t16 39t39 16t39 -16t16 -39t-16 -39
t-39 -16zM269 90q214 0 292 25.5t78 109.5q0 46 -12.5 77t-34.5 44t-40.5 17t-42.5 4q-89 0 -163.5 -63.5t-141.5 -213.5h65z" />
    <glyph glyph-name="uniFECA" unicode="&#x639;" horiz-adv-x="569" arabic-form="final" 
d="M346 -274q118 0 207 47l35 -79q-99 -60 -251 -60q-153 0 -227.5 69t-74.5 178q0 187 186 275q-98 103 -179 163l12 90q105 41 223 41t169.5 -35t51.5 -105q0 -56 -32 -97.5t-98 -77.5q37 -27 72 -36t105 -9h32l12 -44l-20 -46h-43q-69 0 -125.5 22.5t-115.5 72.5
q-98 -45 -137 -90t-39 -110q0 -77 60 -123t177 -46zM134 341q33 -26 89.5 -80t76.5 -72q65 28 95.5 53.5t30.5 59.5q0 60 -149 60q-67 0 -143 -21z" />
    <glyph glyph-name="uniFECB" unicode="&#x639;" horiz-adv-x="573" arabic-form="initial" 
d="M547 144l11 -90q-137 -33 -230 -43.5t-199 -10.5h-129l-20 45l28 45h102h64q-49 38 -74 86t-25 95q0 78 61 135.5t169 57.5q89 0 157 -37l-39 -86q-57 31 -118 31q-73 0 -109.5 -31.5t-36.5 -78.5q0 -95 128 -166q91 9 260 48z" />
    <glyph glyph-name="uniFECC" unicode="&#x639;" horiz-adv-x="599" arabic-form="medial" 
d="M607 90l12 -45l-20 -45h-42q-130 0 -228 80q-149 -80 -290 -80h-39l-20 45l28 45h15q121 0 243 51q-7 7 -28.5 30.5t-33 35.5t-33 32.5t-45.5 39.5t-52 39l11 90q103 42 220 42q115 0 166 -35.5t51 -104.5q0 -96 -116 -182q34 -23 69 -30.5t102 -7.5h30zM165 341
q32 -26 89 -81.5t87 -81.5q108 63 108 123q0 61 -144 61q-58 0 -140 -21z" />
    <glyph glyph-name="uniFECE" unicode="&#x63a;" horiz-adv-x="569" arabic-form="final" 
d="M298 529q-23 0 -39 16t-16 39t16 39t39 16t39 -16t16 -39t-16 -39t-39 -16zM346 -274q118 0 207 47l35 -79q-99 -60 -251 -60q-153 0 -227.5 69t-74.5 178q0 187 186 275q-98 103 -179 163l12 90q105 41 223 41t169.5 -35t51.5 -105q0 -56 -32 -97.5t-98 -77.5
q37 -27 72 -36t105 -9h32l12 -44l-20 -46h-43q-69 0 -125.5 22.5t-115.5 72.5q-98 -45 -137 -90t-39 -110q0 -77 60 -123t177 -46zM134 341q33 -26 89.5 -80t76.5 -72q65 28 95.5 53.5t30.5 59.5q0 60 -149 60q-67 0 -143 -21z" />
    <glyph glyph-name="uniFECF" unicode="&#x63a;" horiz-adv-x="573" arabic-form="initial" 
d="M302 530q-23 0 -39 16t-16 39t16 39t39 16t39 -16t16 -39t-16 -39t-39 -16zM547 144l11 -90q-137 -33 -230 -43.5t-199 -10.5h-129l-20 45l28 45h102h64q-49 38 -74 86t-25 95q0 78 61 135.5t169 57.5q89 0 157 -37l-39 -86q-57 31 -118 31q-73 0 -109.5 -31.5
t-36.5 -78.5q0 -95 128 -166q91 9 260 48z" />
    <glyph glyph-name="uniFED0" unicode="&#x63a;" horiz-adv-x="599" arabic-form="medial" 
d="M302 530q-23 0 -39 16t-16 39t16 39t39 16t39 -16t16 -39t-16 -39t-39 -16zM607 90l12 -45l-20 -45h-42q-130 0 -228 80q-149 -80 -290 -80h-39l-20 45l28 45h15q121 0 243 51q-7 7 -28.5 30.5t-33 35.5t-33 32.5t-45.5 39.5t-52 39l11 90q103 42 220 42q115 0 166 -35.5
t51 -104.5q0 -96 -116 -182q34 -23 69 -30.5t102 -7.5h30zM165 341q32 -26 89 -81.5t87 -81.5q108 63 108 123q0 61 -144 61q-58 0 -140 -21z" />
    <glyph glyph-name="uniFED2" unicode="&#x641;" horiz-adv-x="964" arabic-form="final" 
d="M706 552q-23 0 -39 16t-16 39t16 39t39 16t39 -16t16 -39t-16 -39t-39 -16zM970 90l14 -45l-20 -45h-49q-102 0 -200 45q-141 -59 -378 -59q-159 0 -225.5 49t-66.5 157q0 84 37 159l63 -21q-21 -66 -21 -125q0 -71 48.5 -100t171.5 -29q165 0 279 25q-97 79 -97 179
q0 80 54 143.5t128 63.5q84 0 137.5 -62.5t53.5 -144.5q0 -107 -90 -180q50 -10 106 -10h55zM600 280q0 -97 112 -150q113 52 113 150q0 48 -32.5 82.5t-79.5 34.5q-48 0 -80.5 -34.5t-32.5 -82.5z" />
    <glyph glyph-name="uniFED3" unicode="&#x641;" horiz-adv-x="473" arabic-form="initial" 
d="M219 634q-23 0 -39 16t-16 39t16 39t39 16t39 -16t16 -39t-16 -39t-39 -16zM222 568q86 0 141 -76t55 -211q0 -86 -22.5 -140.5t-76 -86t-128 -43t-191.5 -11.5l-20 46l28 44q125 0 196 13t100.5 38t36.5 70q-37 -31 -115 -31q-88 0 -142 52t-54 133q0 84 56 143.5
t136 59.5zM103 370q0 -53 39 -84t115 -31q48 0 88 14q-1 108 -33.5 159.5t-89.5 51.5q-52 0 -85.5 -31t-33.5 -79z" />
    <glyph glyph-name="uniFED4" unicode="&#x641;" horiz-adv-x="513" arabic-form="medial" 
d="M255 552q-23 0 -39 16t-16 39t16 39t39 16t39 -16t16 -39t-16 -39t-39 -16zM519 90l14 -45l-20 -45h-49q-103 0 -201 45q-98 -45 -221 -45h-42l-20 45l28 45h44q60 0 120 11q-97 79 -97 179q0 80 54 143.5t128 63.5q84 0 137.5 -62.5t53.5 -144.5q0 -98 -96 -179
q57 -11 112 -11h55zM149 280q0 -99 115 -151q110 52 110 151q0 48 -32.5 82.5t-79.5 34.5q-48 0 -80.5 -34.5t-32.5 -82.5z" />
    <glyph glyph-name="uniFED6" unicode="&#x642;" horiz-adv-x="781" arabic-form="final" 
d="M435 481q-21 0 -36.5 15t-15.5 37t15.5 37t36.5 15q22 0 37 -15t15 -37t-15 -37t-37 -15zM590 481q-22 0 -37 15t-15 37t15 37t37 15q21 0 36.5 -15t15.5 -37t-15.5 -37t-36.5 -15zM801 46l-20 -46h-79q-17 -130 -93 -194.5t-236 -64.5q-172 0 -250 64t-78 185
q0 100 47 196l63 -19q-28 -77 -28 -164q0 -83 58 -127.5t196 -44.5q125 0 180.5 45t68.5 124h-63q-128 0 -187 49.5t-59 135.5q0 84 56 143.5t136 59.5q86 0 140.5 -76t54.5 -211v-11h81zM548 90h88q-1 107 -34 158.5t-89 51.5q-52 0 -86 -31.5t-34 -78.5q0 -100 155 -100z
" />
    <glyph glyph-name="uniFED7" unicode="&#x642;" horiz-adv-x="473" arabic-form="initial" 
d="M144 661q-21 0 -36.5 15t-15.5 37t15.5 37t36.5 15q22 0 37 -15t15 -37t-15 -37t-37 -15zM299 661q-22 0 -37 15t-15 37t15 37t37 15q21 0 36.5 -15t15.5 -37t-15.5 -37t-36.5 -15zM222 568q86 0 141 -76t55 -211q0 -86 -22.5 -140.5t-76 -86t-128 -43t-191.5 -11.5
l-20 46l28 44q125 0 196 13t100.5 38t36.5 70q-37 -31 -115 -31q-88 0 -142 52t-54 133q0 84 56 143.5t136 59.5zM103 370q0 -53 39 -84t115 -31q48 0 88 14q-1 108 -33.5 159.5t-89.5 51.5q-52 0 -85.5 -31t-33.5 -79z" />
    <glyph glyph-name="uniFED8" unicode="&#x642;" horiz-adv-x="513" arabic-form="medial" 
d="M180 579q-21 0 -36.5 15t-15.5 37t15.5 37t36.5 15q22 0 37 -15t15 -37t-15 -37t-37 -15zM335 579q-22 0 -37 15t-15 37t15 37t37 15q21 0 36.5 -15t15.5 -37t-15.5 -37t-36.5 -15zM519 90l14 -45l-20 -45h-49q-103 0 -201 45q-98 -45 -221 -45h-42l-20 45l28 45h44
q60 0 120 11q-97 79 -97 179q0 80 54 143.5t128 63.5q84 0 137.5 -62.5t53.5 -144.5q0 -98 -96 -179q57 -11 112 -11h55zM149 280q0 -99 115 -151q110 52 110 151q0 48 -32.5 82.5t-79.5 34.5q-48 0 -80.5 -34.5t-32.5 -82.5z" />
    <glyph glyph-name="uniFEDA" unicode="&#x643;" horiz-adv-x="834" arabic-form="final" 
d="M842 90l12 -43l-20 -47q-47 0 -78.5 18t-58.5 57q-70 -45 -154 -67t-206 -22q-159 0 -225.5 49t-66.5 157q0 84 37 159l63 -21q-21 -66 -21 -125q0 -71 48.5 -100t172.5 -29q185 0 317 78v605l84 11v-573q0 -57 19.5 -82t76.5 -25zM290 326q142 0 142 33q0 15 -22 25.5
t-90 24.5l11 60l166 98l-4 -64l-102 -58q54 -16 76.5 -36t22.5 -50q0 -89 -191 -89z" />
    <glyph glyph-name="uniFEDB" unicode="&#x643;" horiz-adv-x="466" arabic-form="initial" 
d="M421 770l-5 -95l-322 -190q156 -70 210 -129.5t54 -140.5q0 -215 -358 -215l-20 45l28 45q105 0 167 18t83.5 46t21.5 71q0 32 -18.5 59.5t-82 67.5t-179.5 89l19 85z" />
    <glyph glyph-name="uniFEDC" unicode="&#x643;" horiz-adv-x="549" arabic-form="medial" 
d="M557 90l12 -43l-20 -47q-90 0 -153 36t-129 133q-5 -76 -74.5 -122.5t-192.5 -46.5l-20 45l28 45q95 0 142 28t47 78q0 63 -68 148l-80 100l18 81l402 245l-5 -95l-336 -198l184 -232q58 -73 88.5 -102t64 -41t92.5 -12z" />
    <glyph glyph-name="uniFEDE" unicode="&#x644;" horiz-adv-x="706" arabic-form="final" 
d="M726 47l-20 -47q-57 0 -90 30q-7 -72 -33.5 -121.5t-69.5 -76t-91.5 -37.5t-111.5 -11q-136 0 -200.5 66t-64.5 183q0 100 47 196l63 -19q-28 -77 -28 -164q0 -172 191 -172q119 0 168 48t49 158v676l84 10v-571q0 -61 21.5 -83t73.5 -22z" />
    <glyph glyph-name="uniFEDF" unicode="&#x644;" horiz-adv-x="242" arabic-form="initial" 
d="M0 0l-20 45l28 45q44 0 62 26t18 89v551l84 10v-565q0 -117 -43.5 -159t-128.5 -42z" />
    <glyph glyph-name="uniFEE0" unicode="&#x644;" horiz-adv-x="252" arabic-form="medial" 
d="M260 90l12 -45l-20 -45q-85 0 -125 58q-21 -34 -52 -46t-75 -12l-20 45l28 45q28 0 44 5.5t22.5 20t8 26.5t1.5 39v575l84 11v-586q0 -47 21.5 -69t70.5 -22z" />
    <glyph glyph-name="uniFEE2" unicode="&#x645;" horiz-adv-x="713" arabic-form="final" 
d="M721 90l12 -43l-20 -47q-101 0 -133 64q-41 -78 -120 -78q-53 0 -112 30t-103.5 59.5t-62.5 29.5q-32 0 -42 -27.5t-10 -80.5q0 -102 46 -330l-93 -14q-38 207 -38 335q0 101 29.5 161t92.5 60q15 0 30 -6q53 122 111.5 175t132.5 53q73 0 120.5 -61.5t47.5 -163.5v-11
q0 -61 25 -83t87 -22zM451 79q38 0 61 32.5t23 93.5q0 64 -29.5 98t-78.5 34q-46 0 -81.5 -38.5t-80.5 -133.5q3 -2 18.5 -12.5t20.5 -14t19 -12.5t21 -12.5t20 -10.5t22 -10l21 -7t22.5 -5.5t21.5 -1.5z" />
    <glyph glyph-name="uniFEE3" unicode="&#x645;" horiz-adv-x="604" arabic-form="initial" 
d="M381 431q73 0 120.5 -62t47.5 -165q0 -102 -40 -160t-109 -58q-99 0 -235 98q-49 -84 -154 -84h-11l-20 45l28 45h17q31 0 55.5 21.5t51.5 80.5q63 137 117 188t132 51zM395 79q36 0 58.5 34.5t22.5 90.5q0 64 -30 99t-79 35q-48 0 -83 -34.5t-83 -142.5q130 -82 194 -82
z" />
    <glyph glyph-name="uniFEE4" unicode="&#x645;" horiz-adv-x="653" arabic-form="medial" 
d="M661 90l12 -43l-20 -47q-100 0 -132 64q-41 -78 -121 -78q-99 0 -235 98q-49 -84 -154 -84h-11l-20 45l28 45h17q31 0 55.5 21.5t51.5 80.5q63 137 117 188t132 51q73 0 120.5 -62t47.5 -165v-9q0 -61 25 -83t87 -22zM395 79q36 0 58.5 34.5t22.5 90.5q0 64 -30 99
t-79 35q-48 0 -83 -34.5t-83 -142.5q130 -82 194 -82z" />
    <glyph glyph-name="uniFEE6" unicode="&#x646;" horiz-adv-x="736" arabic-form="final" 
d="M312 330q-23 0 -39 16t-16 39t16 39t39 16t39 -16t16 -39t-16 -39t-39 -16zM756 45l-20 -45q-70 0 -111 37q-6 -162 -83 -229t-232 -67q-136 0 -200.5 66t-64.5 183q0 100 47 196l63 -19q-28 -77 -28 -164q0 -172 191 -172q124 0 175 49.5t51 168.5q0 57 -15 110t-50 130
l92 37q4 -16 9.5 -34t13 -40t11.5 -34q24 -75 55 -101.5t84 -26.5z" />
    <glyph glyph-name="uniFEE7" unicode="&#x646;" horiz-adv-x="292" arabic-form="initial" 
d="M124 482q-23 0 -39 16t-16 39t16 39t39 16t39 -16t16 -39t-16 -39t-39 -16zM8 90q91 0 119 20t28 77q0 68 -46 200l86 28q42 -126 42 -233q0 -106 -50 -144t-187 -38l-20 45z" />
    <glyph glyph-name="uniFEE8" unicode="&#x646;" horiz-adv-x="346" arabic-form="medial" 
d="M170 418q-23 0 -39 16t-16 39t16 39t39 16t39 -16t16 -39t-16 -39t-39 -16zM354 90l12 -45l-20 -45q-68 0 -107 16t-64 59q-23 -44 -62.5 -59.5t-112.5 -15.5l-20 45l29 45q30 0 51.5 2.5t34.5 10t20.5 14t11 22t4 25.5t0.5 33v4v4v133h84v-133q0 -34 4 -53t18 -34.5
t42 -21.5t75 -6z" />
    <glyph glyph-name="uniFEEA" unicode="&#x647;" horiz-adv-x="513" arabic-form="final" 
d="M521 90l12 -46l-20 -44h-19q-111 0 -147 100q-26 -31 -67 -48.5t-84 -17.5q-76 0 -123.5 42.5t-47.5 110.5q0 86 84 151.5t228 75.5v95l84 10v-317q0 -64 20 -88t61 -24h19zM210 118q75 0 127 54v161q-115 -4 -174 -43.5t-59 -93.5q0 -78 106 -78z" />
    <glyph glyph-name="uniFEEB" unicode="&#x647;" horiz-adv-x="641" arabic-form="initial" 
d="M145 557q103 -61 161.5 -96.5t115.5 -73.5t83 -60.5t47.5 -50t27.5 -50.5t6 -53q0 -74 -50 -130.5t-116 -56.5q-107 0 -196 49q-84 -35 -195 -35h-29l-20 45l28 45h17q62 0 113 9q-76 79 -76 177q0 56 28 101t75 65l-66 37zM125 273q0 -85 105 -147q103 47 103 145
q0 49 -31 82t-75 33q-43 0 -72.5 -32t-29.5 -81zM420 76q43 0 70 21.5t27 55.5q0 35 -26.5 69t-96.5 82q2 -20 2 -28q0 -111 -82 -185q51 -15 106 -15z" />
    <glyph glyph-name="uniFEEC" unicode="&#x647;" horiz-adv-x="480" arabic-form="medial" 
d="M500 45l-20 -45h-111q66 -49 66 -135q0 -63 -38 -101t-102 -38q-95 0 -162 77t-74 197h-59l-20 45l28 45h51q6 149 77.5 253t165.5 104q66 0 103.5 -42t37.5 -122q0 -49 -25.5 -103.5t-70.5 -89.5h141zM289 357q-58 0 -107 -74.5t-58 -192.5h52q82 0 135 55.5t53 127.5
q0 84 -75 84zM286 -184q36 0 55 20t19 50q0 52 -40 83t-108 31h-88q10 -87 54 -135.5t108 -48.5z" />
    <glyph glyph-name="uniFEEE" unicode="&#x648;" horiz-adv-x="539" arabic-form="final" 
d="M559 46l-20 -46h-103q-25 -106 -110 -172.5t-253 -101.5l-28 87q140 31 213.5 76t99.5 111h-76q-104 0 -162 52.5t-58 135.5t56 142.5t136 59.5q85 0 139.5 -73.5t54.5 -200.5v-26h99zM289 90h86v12q0 100 -32.5 149.5t-90.5 49.5q-51 0 -84 -31t-33 -78q0 -102 154 -102
z" />
    <glyph glyph-name="uniFEF0" unicode="&#x649;" horiz-adv-x="737" arabic-form="final" 
d="M757 45l-20 -45q-45 0 -84 17q7 -15 7 -35q0 -82 -92 -140t-258 -58q-136 0 -200.5 66t-64.5 183q0 100 47 196l63 -19q-28 -77 -28 -164q0 -172 191 -172q121 0 193 37.5t72 77.5q0 27 -36.5 47.5t-134.5 48.5l39 79q30 -9 81 -26.5t76.5 -25.5t63.5 -15t73 -7z" />
    <glyph glyph-name="uniFEF2" unicode="&#x64a;" horiz-adv-x="737" arabic-form="final" 
d="M757 45l-20 -45q-45 0 -84 17q7 -15 7 -35q0 -82 -92 -140t-258 -58q-136 0 -200.5 66t-64.5 183q0 100 47 196l63 -19q-28 -77 -28 -164q0 -172 191 -172q121 0 193 37.5t72 77.5q0 27 -36.5 47.5t-134.5 48.5l39 79q30 -9 81 -26.5t76.5 -25.5t63.5 -15t73 -7z
M240 -293q22 0 37 -15t15 -37t-15 -37t-37 -15q-21 0 -36.5 15t-15.5 37t15.5 37t36.5 15zM395 -293q21 0 36.5 -15t15.5 -37t-15.5 -37t-36.5 -15q-22 0 -37 15t-15 37t15 37t37 15z" />
    <glyph glyph-name="uniFEF3" unicode="&#x64a;" horiz-adv-x="292" arabic-form="initial" 
d="M8 90q91 0 119 20t28 77q0 68 -46 200l86 28q42 -126 42 -233q0 -106 -50 -144t-187 -38l-20 45zM63 -195q-21 0 -36.5 15t-15.5 37t15.5 37t36.5 15q22 0 37 -15t15 -37t-15 -37t-37 -15zM218 -195q-22 0 -37 15t-15 37t15 37t37 15q21 0 36.5 -15t15.5 -37t-15.5 -37
t-36.5 -15z" />
    <glyph glyph-name="uniFEF4" unicode="&#x64a;" horiz-adv-x="346" arabic-form="medial" 
d="M354 90l12 -45l-20 -45q-68 0 -107 16t-64 59q-23 -44 -62.5 -59.5t-112.5 -15.5l-20 45l29 45q30 0 51.5 2.5t34.5 10t20.5 14t11 22t4 25.5t0.5 33v4v4v133h84v-133q0 -34 4 -53t18 -34.5t42 -21.5t75 -6zM95 -91q22 0 37 -15t15 -37t-15 -37t-37 -15q-21 0 -36.5 15
t-15.5 37t15.5 37t36.5 15zM250 -91q21 0 36.5 -15t15.5 -37t-15.5 -37t-36.5 -15q-22 0 -37 15t-15 37t15 37t37 15z" />
    <glyph glyph-name=".notdef" horiz-adv-x="666" 
d="M543 1050v-1400h-420v1400h420zM489 998h-311v-1296h311v1296zM324 451q111 0 111 -115q0 -104 -95 -118v-45q0 -11 -7.5 -17.5t-17.5 -6.5t-17.5 6.5t-7.5 17.5v84q53 3 72 19.5t19 57.5q0 33 -13 51t-48 18q-29 0 -52 -11q-8 -3 -13 -3q-24 0 -24 23q0 19 29.5 29
t63.5 10zM315 120q15 0 25 -10t10 -25q0 -16 -10 -26.5t-25 -10.5t-25 10.5t-10 26.5q0 15 10 25t25 10z" />
    <glyph glyph-name=".null" 
 />
    <glyph glyph-name="nonmarkingreturn" horiz-adv-x="333" 
 />
    <glyph glyph-name="CR" unicode="&#xd;" horiz-adv-x="265" 
 />
    <glyph glyph-name="space" unicode=" " horiz-adv-x="265" 
 />
    <glyph glyph-name="exclam" unicode="!" horiz-adv-x="241" 
d="M170 689l-10 -459h-81l-11 459h102zM120 127q30 0 50 -20t20 -49t-20 -49.5t-50 -20.5q-29 0 -49 20.5t-20 49.5t20 49t49 20z" />
    <glyph glyph-name="quotedbl" unicode="&#x22;" horiz-adv-x="399" 
d="M75 427l-15 262h99l-15 -262h-69zM255 427l-15 262h99l-15 -262h-69z" />
    <glyph glyph-name="numbersign" unicode="#" horiz-adv-x="518" 
d="M503 447h-76l-28 -215h67v-69h-77l-21 -163h-78l21 163h-154l-21 -163h-78l21 163h-64v69h74l28 215h-65v70h74l20 152h78l-20 -152h154l20 152h78l-20 -152h67v-70zM167 232h154l28 215h-154z" />
    <glyph glyph-name="dollar" unicode="$" horiz-adv-x="531" 
d="M491 186q0 -76 -48 -128t-133 -66v-147h-80v144q-123 6 -205 86l54 59q72 -70 172 -70q63 0 103.5 31t40.5 88q0 49 -30 76t-115 53q-103 32 -150.5 75.5t-47.5 117.5q0 70 49 117t129 56v146h80v-147q90 -9 160 -75l-53 -58q-64 60 -150 60q-53 0 -86.5 -24.5
t-33.5 -70.5q0 -43 29 -68t117 -52q46 -14 77 -28t61 -37t45 -57.5t15 -80.5z" />
    <glyph glyph-name="percent" unicode="%" horiz-adv-x="826" 
d="M613 711l64 -42l-463 -700l-64 42zM207 679q72 0 117.5 -46t45.5 -123t-45.5 -123t-117.5 -46q-71 0 -116.5 46t-45.5 123t45.5 123t116.5 46zM207 617q-81 0 -81 -107t81 -107t81 107t-81 107zM619 326q72 0 117 -46t45 -123t-45 -123t-117 -46t-117.5 46t-45.5 123
t45.5 123t117.5 46zM619 263q-81 0 -81 -106q0 -107 81 -107t81 107q0 106 -81 106z" />
    <glyph glyph-name="ampersand" unicode="&#x26;" horiz-adv-x="729" 
d="M302 701q81 0 132 -43t51 -109q0 -59 -37.5 -101.5t-103.5 -81.5l176 -166q40 81 60 169l86 -25q-35 -116 -89 -197l112 -105l-66 -54l-97 94q-86 -94 -221 -94q-100 0 -162 51t-62 136q0 62 35 108.5t104 90.5q-50 48 -73.5 86t-23.5 86q0 68 47.5 111.5t131.5 43.5z
M303 633q-42 0 -66 -24t-24 -62q0 -36 19 -64.5t60 -67.5q51 31 77 61.5t26 67.5q0 42 -25 65.5t-67 23.5zM273 324q-98 -64 -98 -146q0 -55 38.5 -86t101.5 -31q88 0 158 72z" />
    <glyph glyph-name="quotesingle" unicode="'" horiz-adv-x="219" 
d="M75 427l-15 262h99l-15 -262h-69z" />
    <glyph glyph-name="parenleft" unicode="(" horiz-adv-x="324" 
d="M226 845l58 -40q-78 -115 -113 -211t-35 -244t35 -244t113 -211l-58 -40q-42 59 -58.5 84t-47.5 80t-44 96.5t-24.5 103.5t-11.5 131t11.5 131t24.5 103.5t44 96.5t47.5 80t58.5 84z" />
    <glyph glyph-name="parenright" unicode=")" horiz-adv-x="324" 
d="M98 845q42 -59 58.5 -84t47.5 -80t44 -96.5t24.5 -103.5t11.5 -131t-11.5 -131t-24.5 -103.5t-44 -96.5t-47.5 -80t-58.5 -84l-58 40q78 115 113 211t35 244t-35 244t-113 211z" />
    <glyph glyph-name="asterisk" unicode="*" horiz-adv-x="439" 
d="M419 561l-153 -33l104 -116l-72 -53l-79 134l-78 -134l-72 52l103 117l-152 33l27 82l142 -61l-15 157h90l-15 -158l142 63z" />
    <glyph glyph-name="plus" unicode="+" horiz-adv-x="499" 
d="M291 519v-150h146v-76h-146v-149h-84v149h-145v76h145v150h84z" />
    <glyph glyph-name="comma" unicode="," horiz-adv-x="240" 
d="M119 127q30 0 50 -20t20 -49q0 -31 -18 -71l-67 -153h-66l40 166q-28 21 -28 58q0 29 20 49t49 20z" />
    <glyph glyph-name="hyphen" unicode="-" horiz-adv-x="403" 
d="M60 274v78h283v-78h-283z" />
    <glyph glyph-name="period" unicode="." horiz-adv-x="240" 
d="M119 127q30 0 50 -20t20 -49t-20 -49.5t-50 -20.5q-29 0 -49 20.5t-20 49.5t20 49t49 20z" />
    <glyph glyph-name="slash" unicode="/" horiz-adv-x="520" 
d="M337 807l78 -18l-231 -893l-79 19z" />
    <glyph glyph-name="zero" unicode="0" horiz-adv-x="558" 
d="M279 679q111 0 167.5 -88.5t56.5 -256.5t-56.5 -257t-167.5 -89t-167.5 89t-56.5 257t56.5 256.5t167.5 88.5zM279 606q-65 0 -96.5 -64t-31.5 -208t31.5 -208.5t96.5 -64.5q64 0 96 64.5t32 208.5q0 143 -32 207.5t-96 64.5z" />
    <glyph glyph-name="one" unicode="1" horiz-adv-x="433" 
d="M323 669v-669h-92v571l-156 -95l-40 65l207 128h81z" />
    <glyph glyph-name="two" unicode="2" horiz-adv-x="495" 
d="M228 679q91 0 146 -52t55 -131q0 -47 -14 -88t-53.5 -93.5t-85 -101.5t-132.5 -136h301l-11 -77h-395v73q189 197 241.5 269t52.5 150q0 52 -30 81.5t-80 29.5q-41 0 -72 -17t-66 -56l-60 48q81 101 203 101z" />
    <glyph glyph-name="three" unicode="3" horiz-adv-x="499" 
d="M225 679q92 0 145 -49.5t53 -120.5q0 -61 -35.5 -100.5t-94.5 -53.5q67 -6 109 -48t42 -114q0 -89 -62.5 -147t-165.5 -58q-126 0 -201 90l55 51q63 -66 143 -66q63 0 99 35.5t36 95.5q0 66 -34 93t-99 27h-50l11 71h34q52 0 86.5 31t34.5 87q0 47 -30 74.5t-81 27.5
q-74 0 -138 -60l-48 55q85 79 191 79z" />
    <glyph glyph-name="four" unicode="4" horiz-adv-x="532" 
d="M502 238v-73h-87v-165h-89v165h-286v66l201 448l77 -32l-181 -409h190l8 180h80v-180h87z" />
    <glyph glyph-name="five" unicode="5" horiz-adv-x="501" 
d="M433 669l-13 -72h-261v-197q51 26 107 26q86 0 138 -56.5t52 -155.5q0 -100 -64 -163t-168 -63q-115 0 -198 85l54 53q63 -63 143 -63q64 0 100.5 40t36.5 113q0 139 -122 139q-46 0 -95 -23h-72v337h362z" />
    <glyph glyph-name="six" unicode="6" horiz-adv-x="533" 
d="M308 440q78 0 131.5 -55.5t53.5 -157.5q0 -107 -61 -173t-152 -66q-117 0 -171 86.5t-54 239.5q0 166 68 265.5t185 99.5q76 0 138 -41l-36 -61q-47 29 -103 29q-72 0 -114 -69t-46 -185q62 88 161 88zM280 61q58 0 89 44t31 119q0 143 -108 143q-87 0 -144 -92
q3 -110 34.5 -162t97.5 -52z" />
    <glyph glyph-name="seven" unicode="7" horiz-adv-x="444" 
d="M414 669v-69l-250 -610l-84 28l241 576h-296v75h389z" />
    <glyph glyph-name="eight" unicode="8" horiz-adv-x="551" 
d="M365 359q141 -57 141 -180q0 -84 -65 -137.5t-167 -53.5q-103 0 -166 53t-63 136q0 116 132 174q-104 52 -104 156q0 80 60.5 126t142.5 46t142.5 -44.5t60.5 -124.5q0 -50 -28 -86t-86 -65zM276 610q-52 0 -82.5 -27t-30.5 -77q0 -48 29.5 -73t94.5 -46l17 -6
q45 26 65 55t20 71q0 47 -29.5 75t-83.5 28zM275 61q62 0 98.5 32t36.5 85t-31.5 83t-114.5 58l-25 9q-98 -48 -98 -151q0 -55 36 -85.5t98 -30.5z" />
    <glyph glyph-name="nine" unicode="9" horiz-adv-x="525" 
d="M259 679q106 0 161 -69.5t55 -190.5q0 -103 -20 -175.5t-66.5 -123t-109.5 -82.5t-160 -60l-21 69q134 38 205.5 103t76.5 173q-52 -80 -150 -80q-80 0 -132.5 58.5t-52.5 156.5q0 102 61.5 161.5t152.5 59.5zM249 315q79 0 133 83q2 111 -27.5 159.5t-93.5 48.5
q-59 0 -91 -39t-32 -111q0 -70 30 -105.5t81 -35.5z" />
    <glyph glyph-name="colon" unicode=":" horiz-adv-x="240" 
d="M119 495q30 0 50 -20t20 -49t-20 -49.5t-50 -20.5q-29 0 -49 20.5t-20 49.5t20 49t49 20zM119 127q30 0 50 -20t20 -49t-20 -49.5t-50 -20.5q-29 0 -49 20.5t-20 49.5t20 49t49 20z" />
    <glyph glyph-name="semicolon" unicode=";" horiz-adv-x="240" 
d="M119 495q30 0 50 -20t20 -49t-20 -49.5t-50 -20.5q-29 0 -49 20.5t-20 49.5t20 49t49 20zM119 127q30 0 50 -20t20 -49q0 -31 -18 -71l-67 -153h-66l40 166q-28 21 -28 58q0 29 20 49t49 20z" />
    <glyph glyph-name="less" unicode="&#x3c;" horiz-adv-x="500" 
d="M417 551l33 -76l-327 -142l327 -144l-33 -74l-367 171v94z" />
    <glyph glyph-name="equal" unicode="=" horiz-adv-x="500" 
d="M62 389v77h376v-77h-376zM62 196v77h376v-77h-376z" />
    <glyph glyph-name="greater" unicode="&#x3e;" horiz-adv-x="500" 
d="M83 551l367 -171v-94l-367 -171l-33 74l327 144l-327 142z" />
    <glyph glyph-name="question" unicode="?" horiz-adv-x="459" 
d="M238 701q90 0 140.5 -46t50.5 -110q0 -44 -18.5 -76t-45 -51t-53.5 -36.5t-45.5 -44t-18.5 -62.5v-45h-91v50q0 46 18 80t44 53t52 35.5t44 39t18 51.5q0 41 -27 63.5t-74 22.5q-80 0 -139 -72l-63 49q84 99 208 99zM205 127q30 0 50 -20t20 -49t-20 -49.5t-50 -20.5
q-29 0 -49 20.5t-20 49.5t20 49t49 20z" />
    <glyph glyph-name="at" unicode="@" horiz-adv-x="1020" 
d="M526 701q199 0 311.5 -114t112.5 -280q0 -130 -50 -214t-147 -84q-56 0 -87.5 31t-40.5 72q-44 -101 -144 -101q-80 0 -126.5 60t-46.5 160q0 126 60 193.5t158 67.5q82 0 157 -40v-259q0 -62 17 -87.5t51 -25.5q106 0 106 225q0 148 -85.5 234t-245.5 86
q-166 0 -264.5 -108t-98.5 -277q0 -170 96 -273.5t267 -103.5q95 0 192 34l25 -71q-112 -39 -218 -39q-203 0 -329 123.5t-126 329.5q0 198 127 329.5t329 131.5zM492 78q75 0 108 86v247q-33 15 -71 15q-131 0 -131 -195q0 -153 94 -153z" />
    <glyph glyph-name="A" unicode="A" horiz-adv-x="573" 
d="M467 0l-52 173h-261l-52 -173h-96l221 689h120l220 -689h-100zM177 250h215l-107 360z" />
    <glyph glyph-name="B" unicode="B" horiz-adv-x="608" 
d="M404 364q71 -12 115 -50t44 -118q0 -196 -273 -196h-190v689h163q270 0 270 -174q0 -60 -37.5 -100t-91.5 -51zM273 614h-78v-217h104q60 0 98.5 29t38.5 82q0 60 -40.5 83t-122.5 23zM290 76q84 0 128.5 25t44.5 95q0 68 -43 98t-112 30h-113v-248h95z" />
    <glyph glyph-name="C" unicode="C" horiz-adv-x="560" 
d="M341 701q62 0 104.5 -16t86.5 -52l-52 -61q-63 51 -133 51q-86 0 -138.5 -66t-52.5 -212q0 -142 52 -209.5t138 -67.5q70 0 147 57l47 -60q-75 -77 -197 -77q-129 0 -208.5 93.5t-79.5 263.5q0 168 81.5 262t204.5 94z" />
    <glyph glyph-name="D" unicode="D" horiz-adv-x="644" 
d="M244 689q57 0 103.5 -7.5t93 -30t78 -59.5t51 -99t19.5 -145q0 -81 -19.5 -143.5t-51 -100.5t-75.5 -62t-87 -33t-91 -9h-165v689h144zM265 613h-70v-538h77q35 0 64 6.5t58.5 24.5t49 47.5t32 79t12.5 115.5q0 67 -13 116.5t-33.5 77.5t-51 44.5t-59.5 21.5t-66 5z" />
    <glyph glyph-name="E" unicode="E" horiz-adv-x="535" 
d="M473 689l-11 -76h-267v-225h232v-76h-232v-236h286v-76h-381v689h373z" />
    <glyph glyph-name="F" unicode="F" horiz-adv-x="491" 
d="M100 0v689h366l-11 -76h-260v-235h225v-75h-225v-303h-95z" />
    <glyph glyph-name="G" unicode="G" horiz-adv-x="631" 
d="M354 701q65 0 112.5 -18.5t94.5 -57.5l-56 -58q-69 56 -151 56q-83 0 -140.5 -68t-57.5 -210q0 -145 47.5 -212t140.5 -67q76 0 131 31v208h-122l-11 77h227v-333q-107 -61 -225 -61q-136 0 -212.5 91t-76.5 266q0 167 86.5 261.5t212.5 94.5z" />
    <glyph glyph-name="H" unicode="H" horiz-adv-x="680" 
d="M485 0v323h-290v-323h-95v689h95v-288h290v288h95v-689h-95z" />
    <glyph glyph-name="I" unicode="I" horiz-adv-x="295" 
d="M195 689v-689h-95v689h95z" />
    <glyph glyph-name="J" unicode="J" horiz-adv-x="305" 
d="M210 689v-593q0 -102 -44.5 -153t-135.5 -80l-25 69q66 26 88 61.5t22 106.5v589h95z" />
    <glyph glyph-name="K" unicode="K" horiz-adv-x="589" 
d="M195 689v-689h-95v689h95zM570 689l-261 -315l280 -374h-117l-272 368l262 321h108z" />
    <glyph glyph-name="L" unicode="L" horiz-adv-x="498" 
d="M195 689v-606h283l-11 -83h-367v689h95z" />
    <glyph glyph-name="M" unicode="M" horiz-adv-x="778" 
d="M659 689l57 -689h-92l-24 311q-15 183 -17 281l-149 -514h-89l-157 515q0 -125 -13 -289l-23 -304h-90l57 689h128l145 -501l138 501h129z" />
    <glyph glyph-name="N" unicode="N" horiz-adv-x="683" 
d="M583 689v-689h-127l-280 585q13 -148 13 -269v-316h-89v689h124l283 -586q-13 104 -13 210v376h89z" />
    <glyph glyph-name="O" unicode="O" horiz-adv-x="692" 
d="M346 701q133 0 212 -93.5t79 -263.5q0 -168 -79.5 -262t-211.5 -94t-211.5 93t-79.5 262q0 168 80 263t211 95zM346 623q-190 0 -190 -280q0 -143 50.5 -210t139.5 -67q190 0 190 278q0 279 -190 279z" />
    <glyph glyph-name="P" unicode="P" horiz-adv-x="589" 
d="M281 689q128 0 198 -53.5t70 -159.5q0 -113 -73 -168t-194 -55h-87v-253h-95v689h181zM278 328q83 0 126.5 32t43.5 115q0 140 -168 140h-85v-287h83z" />
    <glyph glyph-name="Q" unicode="Q" horiz-adv-x="691" 
d="M479 39q98 0 187 -62l-62 -80q-60 53 -114 73t-146 20q-131 0 -210 92t-79 261q0 168 80 263t211 95q133 0 212 -93.5t79 -263.5q0 -121 -40 -192.5t-118 -112.5zM156 343q0 -143 50.5 -210t139.5 -67q190 0 190 278q0 279 -190 279t-190 -280z" />
    <glyph glyph-name="R" unicode="R" horiz-adv-x="605" 
d="M467 0l-165 292h-107v-292h-95v689h181q262 0 262 -195q0 -140 -149 -185l186 -309h-113zM195 365h96q151 0 151 129q0 64 -38.5 92.5t-123.5 28.5h-85v-250z" />
    <glyph glyph-name="S" unicode="S" horiz-adv-x="545" 
d="M270 701q124 0 213 -80l-52 -58q-74 60 -157 60q-54 0 -89 -25t-35 -73q0 -45 30 -70.5t121 -53.5q48 -15 79.5 -29t62.5 -38t46.5 -59t15.5 -83q0 -92 -66 -148t-180 -56q-143 0 -234 89l52 58q85 -69 181 -69q64 0 106 31.5t42 91.5q0 51 -31 78.5t-118 54.5
q-106 32 -155 77t-49 122q0 79 61 129.5t156 50.5z" />
    <glyph glyph-name="T" unicode="T" horiz-adv-x="517" 
d="M507 689l-10 -81h-191v-608h-95v608h-196v81h492z" />
    <glyph glyph-name="U" unicode="U" horiz-adv-x="662" 
d="M572 689v-468q0 -105 -64 -169t-178 -64q-115 0 -177.5 63.5t-62.5 169.5v468h95v-461q0 -160 145 -160q146 0 146 160v461h96z" />
    <glyph glyph-name="V" unicode="V" horiz-adv-x="556" 
d="M550 689l-220 -689h-102l-222 689h102l173 -586l173 586h96z" />
    <glyph glyph-name="W" unicode="W" horiz-adv-x="826" 
d="M801 689l-140 -689h-122l-127 577l-128 -577h-119l-140 689h93l111 -606l133 606h101l136 -606l115 606h87z" />
    <glyph glyph-name="X" unicode="X" horiz-adv-x="540" 
d="M325 372l210 -372h-108l-159 305l-161 -305h-102l207 367l-189 322h108l139 -259l140 259h102z" />
    <glyph glyph-name="Y" unicode="Y" horiz-adv-x="550" 
d="M545 689l-222 -424v-265h-96v264l-222 425h105l168 -341l168 341h99z" />
    <glyph glyph-name="Z" unicode="Z" horiz-adv-x="522" 
d="M477 689v-77l-341 -531h341l-11 -81h-436v76l344 533h-308v80h411z" />
    <glyph glyph-name="bracketleft" unicode="[" horiz-adv-x="322" 
d="M272 816v-77h-120v-779h120v-76h-207v932h207z" />
    <glyph glyph-name="backslash" unicode="\" horiz-adv-x="520" 
d="M183 807l232 -892l-79 -19l-231 893z" />
    <glyph glyph-name="bracketright" unicode="]" horiz-adv-x="322" 
d="M257 816v-932h-207v76h120v779h-120v77h207z" />
    <glyph glyph-name="asciicircum" unicode="^" horiz-adv-x="540" 
d="M311 840l189 -313h-98l-133 233l-132 -233h-97l189 313h82z" />
    <glyph glyph-name="underscore" unicode="_" horiz-adv-x="520" 
d="M17 -142v79h486v-79h-486z" />
    <glyph glyph-name="grave" unicode="`" horiz-adv-x="300" 
d="M71 801l199 -114l-28 -49l-212 86z" />
    <glyph glyph-name="a" unicode="a" horiz-adv-x="544" 
d="M450 123q0 -32 11 -47.5t33 -23.5l-21 -64q-82 9 -103 79q-53 -79 -157 -79q-78 0 -123 44t-45 115q0 84 60.5 129t171.5 45h81v39q0 56 -27 80t-83 24q-58 0 -142 -28l-23 67q97 36 182 36q185 0 185 -175v-241zM234 57q79 0 124 82v121h-69q-146 0 -146 -108
q0 -95 91 -95z" />
    <glyph glyph-name="b" unicode="b" horiz-adv-x="586" 
d="M333 539q90 0 143 -72.5t53 -202.5q0 -125 -56 -200.5t-151 -75.5q-83 0 -140 70l-9 -58h-81v739l92 11v-289q57 78 149 78zM300 61q61 0 95.5 49.5t34.5 153.5q0 202 -123 202q-70 0 -123 -82v-252q46 -71 116 -71z" />
    <glyph glyph-name="c" unicode="c" horiz-adv-x="477" 
d="M287 539q93 0 161 -57l-44 -58q-54 39 -113 39q-64 0 -99.5 -51t-35.5 -151q0 -195 135 -195q53 0 115 40l42 -60q-72 -58 -161 -58q-107 0 -168.5 72t-61.5 199t62 203.5t168 76.5z" />
    <glyph glyph-name="d" unicode="d" horiz-adv-x="590" 
d="M406 750l92 -11v-739h-81l-9 73q-55 -85 -152 -85q-94 0 -146.5 74t-52.5 199q0 123 56 200.5t151 77.5q81 0 142 -65v276zM276 61q42 0 72 19.5t58 58.5v258q-54 69 -122 69q-61 0 -94.5 -51t-33.5 -152q0 -202 120 -202z" />
    <glyph glyph-name="e" unicode="e" horiz-adv-x="544" 
d="M493 279q0 -23 -2 -47h-336q12 -169 142 -169q71 0 137 46l40 -55q-84 -66 -184 -66q-110 0 -171.5 72t-61.5 198q0 125 59 203t160 78q105 0 161 -69t56 -191zM402 300v6q0 160 -124 160q-113 0 -123 -166h247z" />
    <glyph glyph-name="f" unicode="f" horiz-adv-x="335" 
d="M274 676q-42 0 -60 -18.5t-18 -57.5v-73h128l-10 -71h-118v-456h-92v456h-94v71h94v72q0 68 43.5 109.5t121.5 41.5q63 0 126 -27l-29 -67q-45 20 -92 20z" />
    <glyph glyph-name="g" unicode="g" horiz-adv-x="520" 
d="M493 586l27 -83q-50 -16 -154 -16q93 -42 93 -133q0 -79 -54 -129t-147 -50q-36 0 -67 10q-26 -19 -26 -49q0 -43 69 -43h84q80 0 130 -41t50 -105q0 -77 -63 -118.5t-184 -41.5q-125 0 -175.5 38.5t-50.5 121.5h83q0 -47 30 -67.5t113 -20.5t118.5 20.5t35.5 61.5
q0 75 -106 75h-83q-67 0 -101.5 28.5t-34.5 71.5q0 55 58 93q-89 47 -89 146q0 81 57.5 132.5t145.5 51.5q62 -1 109 6t69.5 15t62.5 26zM252 473q-52 0 -80.5 -32.5t-28.5 -85.5q0 -54 29 -86.5t82 -32.5q54 0 82.5 31.5t28.5 88.5q0 117 -113 117z" />
    <glyph glyph-name="h" unicode="h" horiz-adv-x="579" 
d="M340 539q72 0 112.5 -43t40.5 -118v-378h-92v365q0 56 -21.5 79t-62.5 23q-74 0 -133 -92v-375h-92v738l92 10v-294q62 85 156 85z" />
    <glyph glyph-name="i" unicode="i" horiz-adv-x="276" 
d="M137 780q29 0 47 -18t18 -45t-18 -44.5t-47 -17.5q-28 0 -46 17.5t-18 44.5t18 45t46 18zM184 527v-527h-92v527h92z" />
    <glyph glyph-name="j" unicode="j" horiz-adv-x="277" 
d="M139 780q29 0 47 -18t18 -45t-18 -44.5t-47 -17.5q-28 0 -46 17.5t-18 44.5t18 45t46 18zM185 527v-495q0 -55 -9.5 -93.5t-32.5 -66t-51 -45.5t-74 -39l-27 67q39 18 58.5 34t31.5 49t12 88v501h92z" />
    <glyph glyph-name="k" unicode="k" horiz-adv-x="509" 
d="M184 750v-750h-92v739zM487 527l-194 -233l216 -294h-110l-209 288l194 239h103z" />
    <glyph glyph-name="l" unicode="l" horiz-adv-x="294" 
d="M196 -12q-51 0 -80.5 30.5t-29.5 85.5v635l92 11v-644q0 -42 33 -42q19 0 34 6l24 -64q-33 -18 -73 -18z" />
    <glyph glyph-name="m" unicode="m" horiz-adv-x="850" 
d="M621 539q65 0 104 -43.5t39 -117.5v-378h-92v365q0 102 -74 102q-39 0 -66 -22.5t-58 -70.5v-374h-92v365q0 102 -74 102q-40 0 -67 -23t-57 -70v-374h-92v527h79l8 -77q59 89 152 89q49 0 83.5 -25t49.5 -70q63 95 157 95z" />
    <glyph glyph-name="n" unicode="n" horiz-adv-x="579" 
d="M340 539q72 0 112.5 -43t40.5 -118v-378h-92v365q0 56 -21 79t-62 23q-76 0 -134 -93v-374h-92v527h79l8 -78q60 90 161 90z" />
    <glyph glyph-name="o" unicode="o" horiz-adv-x="584" 
d="M293 539q111 0 172.5 -74t61.5 -201q0 -124 -62.5 -200t-172.5 -76q-111 0 -173 74t-62 201q0 125 62.5 200.5t173.5 75.5zM293 465q-137 0 -137 -202q0 -201 136 -201t136 202q0 201 -135 201z" />
    <glyph glyph-name="p" unicode="p" horiz-adv-x="586" 
d="M334 539q195 0 195 -275q0 -124 -54 -200t-153 -76q-88 0 -138 60v-250l-92 -11v740h79l7 -71q60 83 156 83zM300 63q130 0 130 201q0 202 -119 202q-72 0 -127 -82v-257q42 -64 116 -64z" />
    <glyph glyph-name="q" unicode="q" horiz-adv-x="590" 
d="M419 527h79v-740l-92 11v272q-55 -82 -150 -82q-94 0 -146.5 74t-52.5 199q0 123 56 200.5t151 77.5q84 0 148 -71zM276 61q42 0 72 19.5t58 58.5v258q-54 69 -122 69q-61 0 -94.5 -51t-33.5 -152q0 -202 120 -202z" />
    <glyph glyph-name="r" unicode="r" horiz-adv-x="383" 
d="M321 539q28 0 52 -6l-17 -90q-24 6 -46 6q-49 0 -79 -36t-47 -112v-301h-92v527h79l9 -107q42 119 141 119z" />
    <glyph glyph-name="s" unicode="s" horiz-adv-x="467" 
d="M238 539q100 0 179 -60l-39 -58q-70 45 -137 45q-45 0 -71 -18.5t-26 -50.5t24.5 -50t88.5 -35q88 -22 131.5 -60t43.5 -104q0 -78 -60.5 -119t-147.5 -41q-120 0 -199 69l49 56q67 -51 148 -51q52 0 82.5 21.5t30.5 58.5q0 39 -25.5 59t-102.5 40q-84 22 -121.5 59
t-37.5 94q0 63 54 104t136 41z" />
    <glyph glyph-name="t" unicode="t" horiz-adv-x="361" 
d="M326 85l35 -61q-53 -36 -118 -36q-67 0 -104.5 38.5t-37.5 111.5v318h-92v71h92v119l92 11v-130h125l-10 -71h-115v-314q0 -41 14.5 -59.5t48.5 -18.5q31 0 70 21z" />
    <glyph glyph-name="u" unicode="u" horiz-adv-x="575" 
d="M483 527v-527h-79l-7 82q-59 -94 -164 -94q-69 0 -108 42t-39 119v378h92v-368q0 -54 19 -76.5t62 -22.5q77 0 132 91v376h92z" />
    <glyph glyph-name="v" unicode="v" horiz-adv-x="492" 
d="M482 527l-179 -527h-111l-182 527h100l138 -445l137 445h97z" />
    <glyph glyph-name="w" unicode="w" horiz-adv-x="717" 
d="M697 527l-120 -527h-125l-92 444l-95 -444h-122l-123 527h92l95 -463l104 463h103l99 -463l96 463h88z" />
    <glyph glyph-name="x" unicode="x" horiz-adv-x="485" 
d="M297 282l183 -282h-111l-129 223l-131 -223h-104l184 278l-163 249h108l110 -193l111 193h104z" />
    <glyph glyph-name="y" unicode="y" horiz-adv-x="492" 
d="M482 527l-176 -530q-31 -92 -86.5 -145.5t-158.5 -64.5l-10 72q76 13 109.5 43.5t57.5 97.5h-31l-177 527h98l141 -460l138 460h95z" />
    <glyph glyph-name="z" unicode="z" horiz-adv-x="432" 
d="M404 527v-70l-275 -380h278l-11 -77h-371v69l274 380h-251v78h356z" />
    <glyph glyph-name="braceleft" unicode="{" horiz-adv-x="322" 
d="M277 836v-71q-51 0 -73 -15.5t-22 -52.5v-239q0 -51 -18 -73.5t-57 -35.5q40 -14 57.5 -35t17.5 -72v-239q0 -37 22 -52.5t73 -15.5v-71q-100 0 -141 34.5t-41 114.5v222q0 42 -15.5 59t-54.5 17v76q39 0 54.5 18t15.5 60v222q0 80 41 114.5t141 34.5z" />
    <glyph glyph-name="bar" unicode="|" horiz-adv-x="403" 
d="M243 807v-909h-83v909h83z" />
    <glyph glyph-name="braceright" unicode="}" horiz-adv-x="322" 
d="M45 836q100 0 141 -34.5t41 -114.5v-222q0 -42 15.5 -60t54.5 -18v-76q-39 0 -54.5 -17t-15.5 -59v-222q0 -80 -41 -114.5t-141 -34.5v71q51 0 73 15.5t22 52.5v239q0 51 17.5 72t57.5 35q-39 13 -57 35.5t-18 73.5v239q0 37 -22 52.5t-73 15.5v71z" />
    <glyph glyph-name="asciitilde" unicode="~" horiz-adv-x="488" 
d="M319 250q-43 0 -91 31t-65 31q-39 0 -72 -54l-56 29q50 97 137 97q41 0 89 -30.5t67 -30.5q40 0 70 48l55 -30q-47 -91 -134 -91z" />
    <glyph glyph-name="uni00A0" unicode="&#xa0;" horiz-adv-x="265" 
 />
    <glyph glyph-name="exclamdown" unicode="&#xa1;" horiz-adv-x="241" 
d="M121 495q29 0 49 -20.5t20 -49.5t-20 -49t-49 -20q-30 0 -50 20t-20 49t20 49.5t50 20.5zM162 247l11 -449h-102l10 449h81z" />
    </font>
</defs>
</svg>
